<?xml version="1.0" standalone="no"?>
<!DOCTYPE svg PUBLIC "-//W3C//DTD SVG 1.1//EN" "http://www.w3.org/Graphics/SVG/1.1/DTD/svg11.dtd" >
<svg xmlns="http://www.w3.org/2000/svg" xmlns:xlink="http://www.w3.org/1999/xlink" version="1.1">
<metadata>
Created by FontForge 20170731 at Sun Sep 30 23:47:52 2018
 By Aleksey,,,
Romantic Couple (c) (yadhie setiawan). 2018. All Rights Reserved
</metadata>
<defs>
<font id="RomanticCouple" horiz-adv-x="1014" >
  <font-face 
    font-family="Romantic Couple"
    font-weight="400"
    font-stretch="normal"
    units-per-em="2048"
    panose-1="2 0 5 0 0 0 0 0 0 0"
    ascent="1638"
    descent="-410"
    x-height="658"
    cap-height="1584"
    bbox="-641 -756 2424 1941.12"
    underline-thickness="150"
    underline-position="-442"
    unicode-range="U+001D-201D"
  />
<missing-glyph horiz-adv-x="1024" 
d="M100 0v1434h824v-1434h-824zM150 50h724v1334h-724v-1334zM325 1148q31 28 58 43q53 30 112 30q92 0 148 -47.5t56 -127.5q0 -49 -23 -98.5t-87 -129.5q-63 -80 -99 -132t-36 -99q0 -38 24 -133h-32q-35 97 -35 148q0 76 81.5 218t81.5 217q0 57 -33 90t-91 33
q-38 0 -69 -17q-26 -15 -56 -40v45zM389 334l57 58q11 10 20 10q10 0 22 -11l56 -60q9 -11 9 -20q0 -11 -10 -22l-56 -62q-14 -14 -21 -14q-11 0 -20 10l-61 71q-7 9 -7 18q0 10 11 22z" />
    <glyph glyph-name="ab" unicode="ab" horiz-adv-x="1191" 
d="M283 541q-4 -2 -7 -2h-2q-4 1 -5 5q-10 59 -47 79q-23 12 -50 12q-15 0 -31 -3q-47 -8 -97 -38q-34 -23 -81 -71t-79 -106q-26 -45 -26 -88q0 -13 3 -26q7 -16 22 -17h5q14 0 33 8q69 31 170 135q62 62 90 62q8 0 13 -5q9 -10 11 -29q2 -20 2 -44q0 -21 2 -41q1 -5 2 -11
q1 -11 6.5 -26.5t16.5 -26.5q10 -10 27 -10h3q27 1 85.5 31.5t148.5 126.5q122 128 299 421q129 223 193 338q44 93 77 162q-8 -2 -16 -2q-13 0 -28 4q-6 2 -9 7q-2 4 -2 9v3q2 7 7 10q4 2 8 2h4q21 -17 35 -17q5 0 10 3l4 8q14 30 24 50q0 1 2 2h1v1q2 4 7 6q4 3 8 3t11 -4
l10 -6q2 -1 3 -1q5 -4 5 -8v-1q-2 -2 -6 -8q-4 -7 -10 -15q-3 -5 -6 -9t-5 -8q-5 -7 -7 -12q-2 -3 -19 -33q-11 -20 -25 -45q-7 -12 -14 -26q-2 -3 -3 -6l-41 -74q-21 -35 -23 -39q-118 -247 -296 -632q-39 -82 -80 -171v1v0v-3q-1 -3 -4 -11t-7 -17l-2 -4q-3 -8 -6 -15
q-2 -7 -4 -10q0 -2 -1 -3v-3l1 1q68 108 148 198q80 91 155 114q20 5 36 5q28 0 42 -16q16 -18 16 -50v-7q-4 -35 -25 -79q-38 -79 -127 -151q-90 -72 -225 -96q-4 -1 -12 -1q-7 0 -15 2q-8 3 -10 9q5 10 13 17q8 8 17 12q7 3 10 4h1q5 0 11 -1q5 -2 11 -5q6 -2 11 -4
q3 -1 6 -1h4q110 32 181 91q70 60 101 124q19 38 21 69v7q0 25 -12 40q-10 12 -32 12q-12 0 -28 -4q-67 -21 -140 -105t-137 -185q-65 -102 -106 -177q-40 -75 -41 -79q-3 -5 -8 -9q-4 -3 -10 -3q-5 0 -6 2t-1 4q0 3 1 6h1q4 8 21 45q21 44 60 130q73 156 177 378
q8 17 16 35l185 398q-41 -73 -94 -164q-176 -296 -298 -425q-94 -102 -156 -139t-92 -38q-7 -1 -13 -1q-21 0 -37 11t-26 31l-4 8v1q-7 17 -10 31q-2 9 -2 13l1 3h1q-3 23 -3 46q0 18 -1 32q-2 13 -6 19q-1 1 -3 1q-5 0 -14 -7q-13 -9 -40 -37q-110 -114 -193 -154
q-26 -12 -45 -12q-4 0 -8 1q-23 2 -32 26q-5 12 -5 31q0 17 4 40q15 77 75 148t136 115q58 34 111 44q12 2 25 2q36 0 70 -15q46 -19 62 -49q5 -9 5 -17q0 -20 -28 -37z" />
    <glyph glyph-name="ah" unicode="ah" horiz-adv-x="1540" 
d="M1078 1396q3 5 8 8q4 3 8 3h3q4 0 10 -1q6 0 12 -3q3 -2 3 -6v-2q-1 -6 -11 -15q-11 -10 -35 -24q-12 -21 -68 -137q-56 -115 -137 -281q-89 -185 -182 -374q-92 -190 -158 -323q63 89 139 174q77 85 147 120q26 13 48 13q38 0 63 -38q23 -41 46 -100q14 -34 28 -64
q13 -28 25 -42q24 -32 71 -32h6q50 3 145 63q94 61 311 255q0 1 1 1q5 5 10 8q2 2 3 2q2 0 3 -2t1 -4v-3q-2 -5 -6 -9q-308 -273 -424 -317q-48 -18 -84 -18q-50 0 -75 36q-32 43 -55 107q-17 51 -43 97q-19 26 -46 26q-28 0 -63 -26q-71 -51 -150 -147q-78 -95 -135 -179
q-57 -83 -64 -96q-3 -5 -8 -8q-4 -3 -8 -3q-6 0 -7 4v8q7 12 101 201l208 416q7 13 14 27q125 251 226 450q-66 -113 -182 -312q-176 -296 -297 -425q-94 -102 -156.5 -139t-92.5 -38q-7 -1 -13 -1q-20 0 -36 11t-26 31q-3 4 -4 8l-1 1q-7 17 -9 31q-2 11 -2 14v2h1
q-3 23 -3 46q0 18 -1 32q-1 13 -6 19q-1 1 -3 1q-4 0 -13 -7q-14 -9 -40 -37q-111 -114 -193 -154q-27 -12 -46 -12q-4 0 -8 1q-23 2 -32 26q-5 12 -5 31q0 17 4 40q15 77 76 148q59 71 136 115q57 34 110 44q12 2 25 2q36 0 70 -15q46 -19 63 -49q4 -9 4 -17q0 -20 -27 -37
q-4 -2 -7 -2h-2q-4 1 -6 5q-9 59 -46 79q-23 12 -51 12q-15 0 -31 -3q-47 -8 -97 -38q-34 -23 -81 -71q-46 -48 -79 -106q-25 -43 -25 -86q0 -14 3 -28q6 -16 21 -17h5q14 0 34 8q69 31 170 135q61 62 89 62q8 0 13 -5q10 -10 12 -29q2 -20 2 -44q0 -21 2 -41q0 -5 1 -11
q1 -11 6.5 -26.5t16.5 -26.5q10 -10 27 -10h3q27 1 85.5 31.5t148.5 126.5q122 128 299 421q151 258 218.5 374.5t84.5 144.5q6 13 10 20z" />
    <glyph glyph-name="ak" unicode="ak" horiz-adv-x="1372" 
d="M1031 1389q1 2 4 10t6 18q4 10 8 18t6 8q2 1 4 1t4 -1q6 -1 12 -5q5 -4 7 -12v-3q0 -8 -5 -22l-46 -52l-220 -552l-260 -605l473 613q2 3 11 12q8 8 18 14q5 3 10 3t9 -3q3 -1 8 -7q4 -7 7 -16q2 -4 2 -9q0 -4 -2 -8q-3 -9 -15 -13l-52 -24l-221 -286q-9 -27 -14 -75
q-1 -13 -1 -25q0 -34 12 -64q17 -41 80 -41h3q58 0 131 36q74 37 145 88q70 51 153 121q85 70 86 76q5 4 10 5h3q3 0 5 -2q1 -1 1 -3t-1 -5q-1 -4 -6 -9q-2 -2 -52 -43q-16 -13 -36 -30q-86 -71 -160 -123q-72 -53 -153 -95q-79 -42 -141 -42q-61 0 -86 29q-25 28 -30 66
q-3 21 -3 39q0 15 2 29l-258 -332q-6 -8 -14 -9q-5 0 -7 3q-1 1 -1 3t2 5l396 928q-36 -67 -81 -149q-176 -296 -297 -425q-94 -102 -156 -139t-93 -38q-6 -1 -12 -1q-20 0 -36.5 11t-26.5 31l-4 8v1q-7 17 -10 31q-1 9 -1 13v3q-3 23 -3 46q0 18 -1 32q-1 13 -6 19
q-1 1 -2 1q-4 0 -14 -7q-13 -9 -40 -37q-110 -114 -193 -154q-25 -12 -45 -12q-5 0 -9 1q-22 2 -31 26q-5 12 -5 31q0 17 4 40q15 77 75 148t136 115q57 34 111 44q13 2 25 2q36 0 70 -15q46 -19 62 -49q5 -9 5 -17q0 -20 -28 -37q-3 -2 -7 -2h-2q-4 1 -5 5q-10 59 -47 79
q-22 12 -50 12q-15 0 -31 -3q-47 -8 -98 -38q-33 -23 -80 -71t-79 -106q-25 -45 -25 -88q0 -13 2 -26q6 -16 22 -17h5q14 0 33 8q69 31 170 135q62 62 90 62q8 0 13 -5q9 -10 11 -29q2 -20 2 -44q0 -21 2 -41q1 -5 1 -11q2 -11 7.5 -26.5t16.5 -26.5q10 -10 27 -10h3
q27 1 85.5 31.5t147.5 126.5q123 128 300 421q141 264 198 390z" />
    <glyph glyph-name="al" unicode="al" horiz-adv-x="1203" 
d="M1098 1430q27 28 55 28h3q16 -11 16 -39q0 -21 -9 -52l-4 -4q-1 -2 -2 -3q-6 -5 -9 -5q-5 0 -5 10q0 14 8 45q-4 15 -13 15q-22 0 -75 -88q-66 -105 -189 -360q-124 -256 -212 -496q-50 -137 -50 -214q0 -59 29 -84q28 -14 60 -14q43 0 91 25q86 43 170 117
q82 75 164 169q81 94 84 98q1 1 2 4v7q0 4 1 8t5 4q3 -1 11 -8q2 -2 2 -6t-3 -9q-4 -5 -117 -135v-1q-62 -66 -152 -146q-92 -79 -187 -125q-53 -26 -99 -26q-36 0 -68 16q-31 24 -31 84q0 59 29 152q66 211 168 423q20 44 39 84l-30 -55q-176 -296 -297 -425
q-94 -102 -156.5 -139t-92.5 -38q-7 -1 -13 -1q-20 0 -36 11t-26 31l-4 8v1q-8 17 -10 31q-1 9 -1 13v3q-3 23 -3 46q0 18 -1 32q-1 13 -6 19q-1 1 -2 1q-4 0 -14 -7q-13 -9 -40 -37q-110 -114 -193 -154q-26 -12 -46 -12q-4 0 -8 1q-22 2 -31 26q-5 12 -5 31q0 17 4 40
q15 77 75 148t136 115q57 34 111 44q13 2 25 2q36 0 70 -15q45 -19 62 -49q5 -9 5 -17q0 -20 -28 -37q-3 -2 -7 -2h-2q-4 1 -5 5q-10 59 -47 79q-22 12 -50 12q-15 0 -31 -3q-47 -8 -98 -38q-33 -23 -80 -71t-79 -106q-25 -45 -25 -88q0 -13 2 -26q6 -16 22 -17h5q14 0 33 8
q69 31 170 135q62 62 90 62q8 0 13 -5q9 -10 11 -29q2 -20 2 -44q0 -21 2 -41q1 -5 1 -11q2 -11 7.5 -26.5t16.5 -26.5q10 -10 27 -10h3q27 1 85.5 31.5t147.5 126.5q123 128 300 421q86 155 145 259q35 67 65 123q90 162 119 191z" />
    <glyph glyph-name="ant" unicode="ant" horiz-adv-x="1851" 
d="M1932 1446q1 1 1 4q1 5 4 10t9 7q2 1 5 1q4 0 9 -2q3 0 4 -7q1 -6 2 -15v-8v-8q-1 -8 -2 -11l-28 -48l-144 -341q190 22 348 55t174 69v4q0 5 3 10q3 6 13 7q4 0 8 -3q5 -2 8 -6q3 -3 3 -7q-19 -46 -190 -84q-170 -38 -375 -64l-494 -1176q-2 -6 -7 -9q-4 -3 -9 -3t-7 4
l-1 2q0 3 2 6l485 1172q-22 -3 -42 -5q-143 -245 -229 -378q-100 -153 -196 -254q-84 -88 -149 -98q-8 -1 -15 -1q-35 0 -57.5 17.5t-32.5 41.5q-6 9 -9 22v2q-2 10 -2 11q-2 17 -2 36q0 23 3 50q3 25 3 46q0 26 -4 46q-4 21 -19 30q-8 6 -23 6q-10 0 -23 -3
q-75 -22 -153 -102q-79 -79 -141 -155q-70 -90 -103 -102h-5q-11 0 -13 12v5q0 26 28 86q7 16 15 33q17 45 74 152q25 45 50 86q41 65 52 96q-31 -25 -116 -114q-70 -71 -144 -141t-130 -100q-10 -5 -19 -8l-2 -1q-8 -3 -16 -5q-21 -6 -38 -6q-18 0 -32 6q-27 16 -37 44
q-6 13 -8 22t-2 10h2q-4 29 -4 58q0 18 -2 32q-1 13 -5 19q-1 1 -3 1q-5 0 -14 -7q-13 -9 -40 -37q-110 -114 -193 -154q-26 -12 -46 -12q-4 0 -8 1q-22 2 -31 26q-5 12 -5 31q0 17 4 40q15 77 75 148t136 115q57 34 111 44q12 2 25 2q36 0 70 -15q46 -19 62 -49q5 -9 5 -17
q0 -20 -28 -37q-4 -2 -7 -2h-2q-4 1 -5 5q-10 59 -47 79q-23 12 -50 12q-15 0 -31 -3q-47 -8 -98 -38q-33 -23 -80 -71t-79 -106q-26 -45 -26 -88q0 -13 3 -26q7 -16 22 -17h5q14 0 33 8q69 31 170 135q62 62 90 62q8 0 13 -5q9 -10 11 -29q2 -20 2 -44q0 -36 6 -68t32 -46
q1 -1 3 -1q7 -2 15 -2q22 0 54 15q53 29 128 96t144 137q34 35 61 65q53 66 73 66q22 0 22 -20v-2q0 -22 -32 -73l2 -1l-8 -14q-60 -100 -117 -208q-54 -103 -54 -141v-5q9 4 41 45q11 14 24 29q64 80 148 163q85 84 169 109q18 4 33 4q54 0 65 -45q4 -22 4 -48
q0 -23 -3 -48v-4q-1 -8 -1 -15q-3 -23 -3 -42q0 -9 1 -18v-1q0 -4 3 -17.5t11 -30t24 -27.5q12 -9 31 -9q5 0 11 1q60 10 142 93q93 98 191 247q90 126 226 361q-113 -14 -197 -22q20 -18 30 -55q1 -3 1 -5q0 -4 -2 -7q-3 -5 -9 -6h-3q-5 0 -9 3q-5 4 -8 10q-4 19 -13 30
q-9 12 -18 16q-9 6 -17 7q-4 1 -8 1q-3 0 -6 -1h-11q-28 -4 -33 -4t-8 4q-1 2 -1 4t1 4v6q0 5 1 11q2 6 9 14q21 10 37 10q17 0 43 -7q12 -2 27 -5q16 -3 36 -3q10 0 21 1q33 2 68 5q3 1 7 1q3 1 7 1q32 3 67 7q128 221 193 350zM1851 1241q-58 -101 -129 -222q19 2 39 4z
" />
    <glyph glyph-name="ar" unicode="ar" horiz-adv-x="1263" 
d="M304 561q-4 -2 -7 -2h-2q-5 1 -6 5q-10 59 -46 79q-23 12 -51 12q-15 0 -31 -3q-47 -8 -97 -38q-34 -23 -81 -71q-46 -48 -79 -106q-26 -45 -26 -88q0 -13 3 -26q7 -16 22 -17h5q14 0 33 8q70 31 171 135q61 62 89 62q8 0 13 -5q9 -10 11 -29q3 -20 3 -44q0 -36 5 -68
q4 -16 11 -27q5 -7 13 -13t20 -7h3q38 0 100 38q75 48 119 93t92 107q4 5 9 10q11 14 21 27q54 70 79.5 95.5t52.5 25.5q24 0 25 -19v-6q0 -17 -9 -47q-50 -149 -122 -282l-6 -12q33 53 68 99t84 106q103 124 195 161q38 12 65 12q15 0 26 -4q29 -11 36 -40q3 -14 3 -30
t-3 -33q-6 -33 -15 -57t-13 -28q-2 -4 -7 -9q-4 -4 -9 -4t-8 2q-1 1 -1 3t1 5q0 1 6 21t9 49q1 11 1 22q0 16 -3 32q-5 25 -26 37q-10 5 -25 5q-17 0 -41 -7q-58 -21 -126 -92q-68 -72 -129 -158q-62 -86 -104 -152q-42 -67 -47 -77q-3 -5 -7 -8q-5 -3 -9 -4q-5 0 -7 3
q-1 2 -1 4t1 4l113 272l41 87q25 56 34 87q5 16 5 23q0 8 -5 8q-13 0 -27 -10.5t-38.5 -39.5t-66.5 -82q-27 -34 -47 -59q-105 -121 -180 -162q-28 -19 -68 -35q-23 -9 -44 -9q-17 0 -32 6q-2 0 -3 1t-2 1q-21 13 -28 30q-6 12 -9 26q-8 38 -8 76q0 18 -1 32q-1 13 -6 19
q-1 1 -3 1q-4 0 -14 -7q-13 -9 -39 -37q-111 -114 -193 -154q-27 -12 -46 -12q-4 0 -8 1q-23 2 -32 26q-5 12 -5 31q0 17 4 40q15 77 75 148t136 115q58 34 111 44q12 2 25 2q36 0 70 -15q46 -19 63 -49q4 -9 4 -17q0 -20 -27 -37z" />
    <glyph glyph-name="at1" unicode="at" horiz-adv-x="844" 
d="M1041 1436q2 1 2 4q1 5 4 10t8 7q3 1 6 1q4 0 9 -2q3 0 4 -7q1 -6 2 -15v-16q-1 -8 -2 -11l-28 -48l-144 -341q189 22 348 55q158 33 174 69v4q0 5 3 10q3 6 12 7q4 0 9 -3q5 -2 8 -6q3 -3 3 -7q-20 -46 -190 -84q-171 -38 -375 -64l-494 -1176q-2 -6 -7 -9q-4 -3 -9 -3
q-6 0 -7 4q-1 2 -1 4t1 4l486 1172l-20 -3q-131 -251 -279 -460.5t-267 -234.5q-6 -1 -12 -1q-20 0 -36.5 11t-26.5 31l-4 8v1q-7 17 -10 31q-1 9 -1 13v3q-3 23 -3 46q0 18 -1 32q-1 13 -6 19q-1 1 -2 1q-4 0 -14 -7q-13 -9 -40 -37q-110 -114 -193 -154q-25 -12 -45 -12
q-5 0 -9 1q-22 2 -31 26q-5 12 -5 31q0 17 4 40q15 77 75 148t136 115q57 34 111 44q13 2 25 2q36 0 70 -15q46 -19 62 -49q5 -9 5 -17q0 -20 -28 -37q-3 -2 -7 -2h-2q-4 1 -5 5q-10 59 -47 79q-22 12 -50 12q-15 0 -31 -3q-47 -8 -98 -38q-33 -23 -80 -71t-79 -106
q-25 -45 -25 -88q0 -13 2 -26q6 -16 22 -17h5q14 0 33 8q69 31 170 135q62 62 90 62q8 0 13 -5q9 -10 11 -29q2 -20 2 -44q0 -21 2 -41q1 -5 1 -11h1q1 -11 6.5 -26.5t16.5 -26.5q10 -10 27 -10h3q112 24 255.5 222.5t272.5 439.5q-126 -15 -217 -24q20 -18 30 -55
q1 -3 1 -5q0 -4 -2 -7q-3 -5 -9 -6h-2q-6 0 -10 3q-6 4 -8 10q-5 19 -13 30q-9 12 -18 16q-9 6 -17 7q-4 1 -8 1q-3 0 -6 -1h-11q-29 -4 -33 -4q-6 0 -8 4q-2 2 -2 4t1 4v6q0 5 2 11t8 14q22 10 38 10t43 -7q12 -2 26 -5q17 -3 37 -3q10 0 21 1q33 2 67 5q4 1 7 1q4 1 8 1
q41 4 85 9q118 224 183 368zM946 1195q-42 -87 -93 -184l18 2z" />
    <glyph glyph-name="att" unicode="att" horiz-adv-x="1171" 
d="M767 1023l32 5q23 2 59 8q112 214 174 352l22 58q1 1 1 4q1 5 4 10t9 7q2 1 5 1q4 0 9 -2q3 0 4 -7q2 -6 2 -15v-8v-8q0 -8 -2 -11l-28 -48l-135 -322q87 15 193 34l105 254l42 111q1 1 1 4q1 5 4 10t9 7q2 1 5 1q4 0 9 -2q3 0 4 -7q2 -6 2 -15v-8v-8q0 -8 -2 -11
l-28 -48l-118 -282q114 22 210.5 41t139.5 28q158 33 175 68v5q0 5 3 10q3 6 12 7q4 0 9 -3q4 -2 7 -6q3 -3 3 -7q-19 -46 -189 -84q-48 -11 -152 -32t-226 -44l-9 -23l-511 -1214q-2 -6 -6 -9q-5 -3 -10 -3t-7 4l-1 2q0 3 2 6l485 1172l8 18l17 41q-106 -20 -194 -35
l-8 -20l-495 -1176q-2 -6 -6 -9q-5 -3 -10 -3t-7 4l-1 2q0 3 2 6l485 1172l8 18l-19 -3q-132 -255 -283 -471t-271 -242q-7 -1 -13 -1q-20 0 -36.5 11t-25.5 31q-3 4 -5 8v1q-7 17 -10 31q-2 9 -2 13l1 3h1q-3 23 -3 46q0 18 -1 32q-1 13 -6 19q-1 1 -3 1q-4 0 -14 -7
q-13 -9 -39 -37q-111 -114 -194 -154q-26 -12 -45 -12q-4 0 -8 1q-23 2 -32 26q-5 12 -5 31q0 17 4 40q15 77 75 148t136 115q58 34 111 44q12 2 25 2q36 0 70 -15q46 -19 62 -49q5 -9 5 -18q0 -19 -27 -36q-4 -2 -7 -2h-2q-5 1 -6 5q-10 59 -47 79q-23 12 -50 12
q-15 0 -31 -3q-47 -8 -97 -38q-34 -23 -81 -71q-46 -48 -79 -106q-26 -45 -26 -88q0 -13 3 -26q7 -16 22 -17h5q14 0 33 8q70 31 171 135q61 62 89 62q8 0 13 -5q9 -10 11 -29q3 -20 3 -44q0 -21 1 -41q1 -5 2 -11q1 -11 6.5 -26.5t16.5 -26.5q10 -10 27 -10h3
q115 24 261.5 229t275.5 451q-34 -6 -57 -9l-32 -4q-149 -19 -252 -29q19 -18 29 -55q1 -3 1 -5q0 -4 -2 -7q-3 -5 -9 -6h-3q-5 0 -9 3q-5 4 -7 10q-5 19 -14 30q-9 12 -18 16q-9 6 -17 7q-4 1 -8 1q-3 0 -6 -1h-10q-29 -4 -34 -4t-7 4q-2 2 -2 4t1 4v6q0 5 2 11q1 6 8 14
q22 10 38 10t42 -7q13 -2 27 -5q16 -3 36 -3q10 0 21 1q33 2 68 5q3 1 7 1q4 1 7 1q56 5 119 12zM958 1205q-39 -79 -84 -166l16 2z" />
    <glyph glyph-name="tt" unicode="tt" horiz-adv-x="457" 
d="M58 1023l31 5q33 4 92 13l121 294l42 111q1 1 1 4q1 5 4 10t9 7q3 1 6 1q4 0 9 -2q3 0 4 -7q1 -6 2 -15v-16q-1 -8 -2 -11l-29 -48l-135 -322q99 17 218 39l4 10l8 18l129 311l42 111q1 1 1 4q1 5 4 10t9 8q2 1 4 1q5 0 11 -3q3 0 4 -6q1 -7 1 -15l1 -9l-1 -8
q0 -7 -1 -10l-29 -48l-135 -323l-16 -37l-3 -8q107 20 196 37.5t130 26.5q158 33 174 68v5q0 5 3 10q3 6 12 7q4 0 9 -3q5 -2 8 -6q3 -3 3 -7q-20 -46 -190 -84q-45 -10 -141.5 -29.5t-211.5 -41.5l-483 -1151q-2 -6 -7 -9t-10 -3t-6 3q-1 2 -1 4q0 3 1 5l474 1145
q-119 -23 -219 -40l-8 -20l-494 -1176q-2 -6 -7 -9t-10 -3t-6 4q-1 2 -1 4t1 4l485 1172l8 18q-57 -9 -92 -14l-31 -4q-150 -19 -253 -29q20 -18 30 -55q1 -3 1 -5q0 -4 -2 -7q-3 -5 -9 -6h-3q-6 0 -10 3q-5 4 -7 10q-5 19 -13 30q-9 12 -18 16q-9 6 -17 7q-4 1 -8 1
q-3 0 -6 -1h-11q-29 -4 -33 -4q-6 0 -8 4q-2 2 -2 4t1 4v6q0 5 2 11t8 14q22 10 38 10t43 -7q12 -2 26 -5q17 -3 37 -3q10 0 21 1q33 2 67 5q4 1 7 1q4 1 8 1q56 5 119 12z" />
    <glyph glyph-name="ch" unicode="ch" horiz-adv-x="1433" 
d="M172 591q-3 -15 -12 -31t-22 -26q-5 -4 -10 -4t-7 3q-1 2 -1 4q0 3 1 5q2 1 5 8t6 19t3 22v3q0 10 -5 17q-6 9 -19 12h-7q-12 0 -32 -6q-45 -18 -111 -86q-45 -57 -90 -134q-18 -42 -18 -74q0 -26 11 -46q4 -5 9 -9v-1l15 -10t34 -13h1q10 -2 23 -2q23 0 62 10.5
t102 61.5q68 52 218 225t299 357t214 267l3 6q100 200 118 232q3 5 8 9q3 2 7 2h14q6 -1 12 -4q3 -2 3 -6v-2q-1 -5 -11 -15q-11 -9 -35 -24q-12 -21 -68 -136q-56 -116 -137 -282q-89 -185 -182 -374q-92 -189 -159 -322q64 88 140 173q77 85 147 120q26 13 48 13
q37 0 63 -38q23 -40 46 -100q14 -34 28 -63q13 -29 25 -42q23 -32 69 -32h8q50 2 145 63q94 60 311 255q0 1 1 1q5 5 10 8q2 2 3 2q2 0 3 -2t1 -5v-3q-2 -5 -6 -9q-308 -273 -424 -316q-49 -18 -85 -18q-50 0 -74 35q-32 43 -55 107q-17 51 -43 98q-19 25 -46 25
q-28 0 -63 -26q-71 -51 -150 -147q-78 -95 -135 -179q-57 -83 -64 -95q-3 -5 -8 -8q-4 -3 -8 -3q-6 0 -7 3v9q7 11 101 201q89 179 207 413q7 15 15 29q104 208 191 381q-76 -99 -219 -277.5t-285.5 -341.5t-216.5 -215q-50 -36 -90 -49q-38 -13 -66 -13q-2 0 -17 0.5
t-31 6.5t-17 7q-26 14 -38 36q-12 24 -12 52t12 60q20 62 66 123q41 57 90 99q49 41 92 55q31 10 51 10q9 0 16 -2q22 -6 28 -21q3 -9 3 -19q0 -8 -2 -17z" />
    <glyph glyph-name="ck" unicode="ck" horiz-adv-x="1256" 
d="M934 1404q1 2 3 10q3 8 7 19q4 9 8 17t6 8q1 1 3 1t5 -1q6 -1 12 -5q5 -3 7 -12v-3q0 -8 -5 -22l-46 -52l-221 -552l-259 -604l473 612q2 3 10 12q9 8 19 14q5 3 10 3t9 -2q3 -1 8 -8q4 -7 7 -16q1 -4 1 -9q0 -4 -1 -8q-3 -8 -15 -12l-52 -25l-221 -286q-9 -27 -14 -75
q-2 -13 -2 -25q0 -34 13 -64q17 -41 80 -41h3q58 0 130 36q75 37 146 88q69 51 153 121q85 70 85 76q6 5 10 6h2q4 0 7 -3q1 -1 1 -3t-1 -4q-1 -5 -6 -10q-2 -1 -52 -42q-16 -13 -36 -30q-86 -71 -160 -124q-73 -53 -153 -95q-79 -41 -141 -41q-61 0 -86 28q-26 28 -30 66
q-4 21 -4 39q0 15 3 29l-258 -331q-6 -8 -14 -9q-5 0 -7 3q-1 1 -1 3t2 5l426 999q-69 -93 -203.5 -267t-270.5 -333.5t-211 -211.5q-49 -36 -89 -49q-39 -13 -66 -13q-2 0 -17.5 0.5t-31.5 6.5t-17 7q-26 14 -38 36q-11 23 -11 50q0 29 12 62q20 62 65 123q42 57 91 99
q48 41 91 55q31 10 51 10q9 0 16 -2q23 -6 28 -21q3 -10 3 -21q0 -7 -1 -15q-3 -15 -12.5 -31t-22.5 -26q-5 -4 -10 -4t-6 3q-1 2 -1 4q0 3 1 5q1 1 4 8t6 19t4 22q0 12 -5 20q-6 9 -19 12h-6q-13 0 -34 -6q-52 -16 -110 -81t-90 -139q-19 -41 -19 -74q0 -26 12 -46
q4 -5 8 -9l1 -1q2 -2 14 -10t34 -13h1q10 -2 23 -2q23 0 62 10.5t103 61.5q65 49 202 211.5t276 339.5t208 269z" />
    <glyph glyph-name="eb" unicode="eb" horiz-adv-x="1111" 
d="M-55 544q-4 1 -5 5q0 4 3 9t8 9q4 2 7 2h3q1 0 20 -2q55 67 108 98q11 7 27 15q17 7 34 8h2q17 0 29 -13q9 -11 9 -28q0 -4 -0.5 -16.5t-16.5 -32.5q-36 -40 -74 -49q-34 -8 -67 -8h-7q-17 0 -32 -1q-37 -49 -58 -109q-11 -35 -11 -63q0 -49 33 -75q39 -28 82 -28
q34 0 70 18q48 25 110 80.5t121 124.5q293 360 546 765q43 65 85 128l4 9q-7 -2 -16 -2q-12 0 -28 4q-6 2 -9 7q-2 5 -2 10v3q2 6 7 9q4 2 9 2h4q21 -16 35 -16q5 0 9 2l29 58q0 1 1 2l1 1v1q3 3 7 5q4 3 8 3t11 -4q6 -2 11 -5q1 -1 3 -2q5 -3 5 -8v-1q-2 -2 -7 -8
q-4 -7 -10 -15q-3 -5 -6 -9q-2 -4 -5 -8q-5 -7 -7 -11q-2 -3 -19 -34q-11 -20 -24 -44q-7 -13 -15 -27q-2 -3 -3 -6q-23 -41 -41 -74q-20 -35 -22 -39q-119 -247 -297 -632q-39 -82 -79 -171v-1l-4 -12q-4 -8 -8 -17q-1 -2 -1 -4q-3 -8 -6 -15q-3 -6 -4 -10q-1 -2 -1 -3
l-1 -2v-1l1 1q68 108 148 198q80 91 155 114q20 5 36 5q28 0 43 -16q15 -18 15 -49v-8q-3 -35 -25 -79q-37 -78 -127 -151q-89 -72 -224 -96q-4 -1 -12 -1t-15 2q-8 3 -10 9q4 10 12 18t17 11q7 3 10 4l1 1q6 0 11 -2q6 -2 11 -5q6 -2 11 -4q5 -1 10 -1q110 32 181 92
q70 59 101 123q19 39 22 69v4q0 28 -13 43q-10 12 -32 12q-12 0 -28 -4q-67 -21 -140 -105q-72 -84 -137 -185q-65 -102 -105 -177q-41 -75 -42 -79q-3 -5 -8 -9q-4 -3 -9 -3t-7 3v2q0 3 1 7h1q3 8 20 45q21 44 60 130q73 157 177 378q8 18 16 35q95 203 187 400
q69 147 121 255q-88 -135 -197.5 -302.5t-177.5 -260.5q-90 -127 -212 -273q-123 -148 -225 -208q-58 -26 -99 -26q-7 0 -33 2.5t-50 21.5q-31 20 -42 55q-7 22 -7 46q0 32 12 69q22 63 59 115q-4 1 -8 1q-8 1 -9 1zM9 564q8 -1 17 -1q34 0 68 10q43 13 56 57q2 8 2 14
q0 9 -5 13q-4 5 -11 5q-3 0 -7 -1q-14 -3 -34 -15q-42 -26 -86 -82z" />
    <glyph glyph-name="el" unicode="el" horiz-adv-x="1094" 
d="M999 1435q27 27 55 27h4q15 -11 15 -38q0 -21 -9 -53q-2 -2 -3 -4q-2 -1 -2 -3q-6 -5 -10 -5q-5 0 -5 11q0 14 8 44q-4 15 -13 15q-23 0 -75 -88q-65 -105 -189 -360t-212 -496q-50 -136 -50 -213q0 -60 30 -84q28 -14 60 -14q42 0 91 24q86 44 169 118t164 168q1 2 3 3
q78 91 81 95q1 1 2 4v7q0 5 1 8q1 4 4 4h1q4 -1 11 -7q3 -3 3 -7t-4 -9q-3 -5 -117 -135v-1q-61 -66 -152 -146q-91 -79 -186 -125q-54 -26 -100 -26q-36 0 -68 16q-32 24 -32 84q0 59 30 152q66 211 168 423q112 241 198 399q-87 -134 -184.5 -281.5t-157.5 -230.5
q-90 -127 -212 -273q-123 -148 -225 -208q-58 -26 -99 -26q-7 0 -33 2.5t-51 21.5q-30 20 -41 55q-7 22 -7 46q0 32 12 69q22 63 59 115q-4 1 -8 1q-8 1 -9 1q-4 1 -5 5q0 4 3 9t8 8q4 3 8 3h2q1 0 20 -3q55 67 108 99q11 7 27 15q17 7 34 8h2q17 0 29 -13q9 -11 9 -28
q0 -4 -0.5 -16.5t-16.5 -32.5q-36 -40 -74 -49q-34 -8 -67 -8h-7q-17 0 -32 -1q-37 -49 -58 -109q-11 -35 -11 -63q0 -49 33 -75q39 -28 82 -28q34 0 70 18q104 59 231 205q293 360 546 764q67 102 132 201l1 -3q6 9 11 14zM-22 535q8 -1 17 -1q34 0 68 10q43 13 56 57
q2 8 2 14q0 9 -5 13q-4 5 -11 5q-3 0 -7 -1q-14 -3 -34 -15q-42 -26 -86 -82z" />
    <glyph glyph-name="em" unicode="em" horiz-adv-x="1671" 
d="M572 549q15 35 25 62q22 50 25 66q0 1 -1 1l-1 1l-1 -0.5t-3.5 -2t-6.5 -4.5t-10 -8t-13 -13q-14 -13 -42 -41q-16 -17 -36 -37q-8 -8 -15 -16q-99 -100 -217 -208.5t-187 -130.5q-45 -11 -79 -11q-19 0 -35 4q-21 3 -37 10q-4 2 -7 4q-17 9 -19 12q-23 19 -32 48
q-7 21 -7 45q0 32 13 70q21 63 59 115q-5 0 -9 1q-7 1 -9 1q-4 1 -4 5l-1 2q0 3 3 7q3 5 8 8q3 2 8 2h3q1 0 19 -2q55 67 109 99q10 7 27 15q16 7 34 8q17 0 30 -13q9 -12 9 -25q0 -15 -13 -32q-23 -33 -73 -56q-49 -22 -106 -22h-5q-37 -49 -58 -109q-11 -36 -11 -63
q0 -49 33 -75q11 -9 23 -14l1 -1q20 -12 58 -12q29 0 68 7q70 24 190.5 130.5t216.5 203.5q28 28 53 52t38 36q36 31 49 31q13 -1 13 -19v-3q-1 -32 -50 -140q-60 -132 -77 -166q-23 -58 -37 -98q-11 -31 -11 -41q0 -5 3 -5q2 0 5 1l7 7q5 5 12 16t19 28q7 12 17 27
q5 9 12 19q74 120 152 228q79 109 134 128q4 1 9 1q14 0 26 -7q16 -8 19 -21q1 -6 1 -14q0 -39 -22 -106l-10 -31q-4 -10 -7 -21q-19 -48 -26 -85q-2 -9 -2 -16q0 -25 19 -36q8 -4 17 -4q25 0 52 29q38 40 75 93q29 42 56 71q20 21 44 29q10 3 18 3q12 0 21 -7
q13 -17 16 -58q0 -6 1 -13v-12q4 -28 9 -58q6 -29 22 -52q19 -35 72 -35q26 0 62 9q104 27 382 253q5 4 10 4q4 0 6 -3q1 -2 1 -4t-1 -5q-2 -5 -7 -8q-293 -236 -410 -263q-36 -8 -65 -8q-63 0 -87 40q-18 27 -26 62q-7 35 -9 67q-2 22 -5 39t-11 23q-3 2 -6 2q-9 0 -22 -15
q-25 -27 -56 -67q-1 -2 -2 -3q-3 -4 -6 -9q-42 -59 -84 -102q-29 -28 -58 -28q-15 0 -29 7q-29 18 -29 60q0 11 2 24q9 60 30 126q12 37 19 67q6 22 6 36q0 6 -1 10q-3 12 -15 12l-6 -1q-82 -34 -221 -264q-22 -33 -49 -73q-27 -38 -49 -73q-23 -35 -31 -55q-10 -23 -17 -34
q-8 -11 -14 -14t-11 -3h-2q-9 0 -9 15t9 44q18 58 53 145l1 3q0 9 84 201v1zM-9 537q8 -1 17 -1q33 0 68 10q43 13 57 57q1 8 1 13q0 10 -4 14q-4 5 -12 5q-3 0 -7 -1q-14 -3 -34 -16q-42 -25 -86 -81z" />
    <glyph glyph-name="er" unicode="er" horiz-adv-x="1138" 
d="M602 604q15 45 20 80l-1 1h-1.5t-4 -1.5t-6.5 -4.5t-9.5 -8t-13.5 -13q-14 -13 -42 -42q-16 -16 -36 -37q-8 -7 -15 -15q-99 -101 -217 -209.5t-188 -127.5q-46 -12 -80 -12q-18 0 -33 3q-21 2 -37 10q-4 1 -7 3q-17 9 -19 13q-23 19 -32 47q-7 21 -7 45q0 33 13 71
q21 63 59 115h-8q-8 1 -10 1q-4 1 -4 6l-1 2q0 3 3 7q3 5 9 8q3 2 7 2h3q1 0 19 -2q55 67 109 98q10 8 27 15q17 8 34 8h2q16 0 28 -12q9 -12 9 -25q0 -16 -13 -33q-23 -32 -73 -55q-49 -23 -106 -23h-5q-37 -49 -58 -109q-11 -35 -11 -63q0 -49 33 -75q11 -8 23 -14h1
q19 -12 50 -12q28 0 87 15t179.5 121.5t216.5 204.5q29 28 53.5 52t37.5 35q35 31 48 31h1q13 0 13 -19v-3q-1 -18 -5 -39q-17 -70 -56 -152l-62 -144q30 47 55.5 80.5t64.5 81.5q9 10 18 21q102 124 195 161q38 12 64 12q15 0 26 -4q30 -11 36 -40q4 -16 4 -32
q0 -15 -3 -30q-6 -33 -15 -57q-9 -25 -14 -28q-2 -5 -6 -9q-5 -5 -10 -5t-8 2q-1 2 -1 4t1 4q0 1 6 21t10 49q1 11 1 21q0 17 -3 33q-6 25 -27 37q-10 6 -26 6t-39 -7q-58 -22 -126 -93q-69 -71 -130 -158q-62 -86 -103 -152q-42 -66 -47 -76q-3 -6 -8 -9l-8 -4q-5 0 -8 3
q-1 2 -1 4t1 4zM-8 544q8 -1 16 -1q33 0 68 10q43 12 57 57q1 7 1 13q0 9 -4 13q-4 5 -12 5q-3 0 -7 -1q-14 -3 -34 -15q-42 -25 -85 -81z" />
    <glyph glyph-name="nt" unicode="nt" horiz-adv-x="1091" 
d="M55 676q0 2 -1 6q-2 9 -3 23v3q0 12 9 24q5 3 13 6q6 2 10 2h3q7 0 9 -8q1 -2 1 -5q0 -8 -5 -23q0 -6 -17 -37q-18 -32 -46 -79q-60 -100 -117 -208q-54 -103 -54 -141v-5q9 4 42 45q10 13 23 28q64 81 148 164q85 84 170 109q18 3 32 3q54 0 65 -44q4 -22 4 -48
q0 -23 -3 -48v-4q-1 -8 -1 -16q-2 -21 -2 -40q0 -18 2 -35q4 -23 16 -34l2 -2v-1q3 -1 8 -1q23 0 90 41t161 134q146 145 289 377q39 65 71 122q-128 -16 -220 -26q19 -17 30 -55q1 -3 1 -5q0 -4 -2 -6q-3 -5 -10 -6h-2q-6 0 -10 3q-5 3 -7 10q-5 19 -14 30q-8 11 -18 16
q-9 5 -17 6t-13 1l-6 -1h-5q-29 -3 -34 -3t-7 3q-2 2 -2 5q0 1 1 3v7q0 5 2 11q1 6 8 14q22 9 38 9t43 -6q12 -2 26 -5q17 -3 37 -3q10 0 21 1q33 2 67 5q4 1 9 1q3 1 6 1q42 4 89 9q106 191 147 287l12 28l41 110q1 1 1 5q1 4 4 10q3 5 9 7q3 1 6 1q4 0 9 -2q3 0 4 -7
q1 -6 2 -15v-16q-1 -8 -2 -11l-29 -48l-143 -342q189 23 348 56q158 33 174 68v5q0 5 3 10q3 6 12 7q4 0 9 -3q4 -2 7 -6q4 -3 4 -7q-20 -46 -190 -84q-171 -38 -375 -64l-494 -1176q-2 -6 -7 -9q-4 -3 -10 -3q-5 0 -6 3q-1 2 -1 4q0 3 1 5l485 1172l-14 -2
q-36 -64 -81 -138q-145 -235 -294 -382q-100 -100 -177 -146q-59 -36 -88 -36q-8 0 -14 3q-6 1 -11 4q-20 13 -27 42q-3 22 -3 47t3 52q3 24 3 45q0 26 -4 47q-5 20 -20 30q-8 6 -22 6q-11 0 -24 -3q-75 -23 -153 -102q-79 -79 -141 -156q-70 -89 -103 -101h-4q-11 0 -14 12
v5q0 26 28 86q30 65 76 144q45 79 85 146q18 32 30 51q18 32 18 34zM1044 1078q-19 -35 -41 -73l12 1z" />
    <glyph glyph-name="ent" unicode="ent" horiz-adv-x="1693" 
d="M632 567q-30 -64 -67 -128q-23 -38 -44 -77q-15 -29 -27 -51q-37 -61 -37 -86v-2q9 4 42 44q10 14 23 29q64 80 148 164q85 83 169 109q18 3 32 3q55 0 66 -44q4 -23 4 -49q0 -23 -3 -48v-4q-1 -8 -1 -15q-3 -21 -3 -40t3 -35q4 -24 16 -35l2 -2q3 -2 8 -2q23 0 90 41
t161 135q146 144 289 376q39 65 71 122q-128 -16 -220 -25q19 -18 30 -55q1 -2 1 -4q0 -5 -3 -8q-2 -4 -9 -5h-3q-5 0 -9 2q-5 4 -7 10q-5 19 -14 30q-8 12 -18 17q-9 5 -17 6q-4 1 -7 1q-4 0 -6 -1h-11q-29 -3 -34 -3t-7 3q-2 2 -2 4t1 4v6q0 5 2 11q1 6 8 14q22 10 38 10
t43 -7q12 -2 26 -5q16 -3 36 -3q11 0 22 1q33 2 67 5q4 1 9 2h6q42 4 89 9q106 192 147 288l12 27l41 111q1 1 1 4q1 5 4 10t9 8q2 1 4 1q5 0 11 -3q3 0 4 -7q1 -6 2 -15v-16q-1 -8 -2 -11l-29 -48l-143 -341q189 22 348 55q157 33 174 69v4q0 5 3 11q3 5 12 6q4 0 9 -2
q4 -3 7 -6q4 -4 4 -8q-20 -46 -190 -84q-171 -38 -375 -64l-494 -1175q-2 -6 -7 -10q-4 -3 -10 -3q-5 0 -6 4q-1 2 -1 4q0 3 1 5l485 1171l-14 -2q-36 -63 -81 -138q-145 -235 -294 -381q-100 -101 -177 -147q-60 -36 -89 -36q-8 0 -13 3q-6 2 -11 5q-20 13 -27 41
q-4 22 -4 47t4 52q2 25 2 46q0 25 -3 46q-5 21 -20 31q-8 5 -22 5q-10 0 -24 -3q-75 -22 -153 -102q-79 -79 -141 -155q-70 -90 -103 -102h-5q-11 0 -13 12v5q0 27 28 86l10 22q22 52 57 114q22 40 43 79q20 38 39 71q13 28 25.5 56.5t19.5 48.5q5 16 5 21v2h-2l-1 1
q-1 0 -2.5 -1t-5.5 -3.5t-10 -8t-15 -15.5q-14 -13 -42 -41q-16 -17 -36 -37q-8 -8 -16 -15q-98 -101 -216.5 -209.5t-187.5 -127.5q-47 -13 -81 -13q-18 0 -32 3q-21 3 -37 10q-4 2 -7 4q-17 9 -20 13q-22 18 -31 47q-7 22 -7 46q0 32 12 69q22 63 60 115q-5 1 -9 1
q-7 1 -9 1q-4 1 -4 5v2q0 3 2 7q3 5 8 8q4 3 8 3h2q2 0 20 -3q55 67 109 99q10 7 27 15q16 7 34 8h2q16 0 28 -13q9 -11 9 -24q0 -16 -13 -33q-23 -32 -74 -56q-48 -22 -105 -22h-5q-37 -49 -58 -109q-11 -35 -11 -63q0 -49 33 -75q11 -8 23 -14h1q19 -12 50 -12q28 0 87 15
t179.5 121.5t216.5 204.5q28 28 53 52t38 35q36 31 52 31l8.5 -0.5t8.5 -21.5q-1 -26 -15 -64t-32 -71zM1644 1066q-19 -34 -41 -73l11 2zM14 562q8 -1 17 -1q34 0 68 10q43 13 57 57q1 8 1 13q0 10 -4 14q-4 5 -11 5q-4 0 -8 -1q-14 -3 -34 -15q-42 -26 -86 -82z" />
    <glyph glyph-name="et" unicode="et" horiz-adv-x="893" 
d="M-59 537q-4 1 -4 5v2q0 3 2 7q3 5 8 8q4 2 7 2h3q2 0 20 -2q55 67 109 99q10 7 27 15q16 7 34 8h2q16 0 28 -13q10 -12 10 -31q0 -2 -1 -14t-16 -32q-37 -41 -75 -50q-31 -7 -61 -7h-13q-16 0 -32 -1q-37 -49 -58 -109q-11 -36 -11 -63q0 -49 33 -75q36 -26 78 -26
q40 0 109.5 37.5t195.5 183.5q218 262 412 560q-107 -13 -187 -21q19 -18 29 -55q1 -3 1 -5q0 -4 -2 -7q-3 -4 -9 -5h-3q-5 0 -9 2q-5 4 -7 10q-5 19 -14 30q-8 12 -18 17q-9 5 -17 6q-4 1 -8 1q-3 0 -6 -1h-10q-29 -3 -34 -3t-7 3q-2 2 -2 4t1 4v6q0 5 2 11q1 6 8 14
q22 10 38 10t43 -6q12 -3 26 -6q16 -3 36 -3q11 0 22 1q32 2 67 5l8 2q3 0 6 1q29 2 59 5q61 92 121 183l34 52l34 83l42 111q1 1 1 4q1 5 4 10t9 8q2 1 4 1q5 0 10 -3q4 0 5 -7q1 -6 1 -15v-8v-8q0 -8 -1 -11l-29 -48l-143 -341q189 22 347 55t175 69v4q0 5 3 11q3 5 12 6
q4 0 9 -2q4 -3 7 -6q3 -4 3 -8q-19 -46 -190 -84q-170 -38 -374 -64l-495 -1175q-2 -6 -6 -9q-5 -4 -10 -4t-6 4q-1 2 -1 4q0 3 1 5l485 1171q-24 -3 -47 -6q-131 -199 -210 -310q-91 -127 -213 -274t-207 -192q-78 -41 -122 -41q-4 0 -28.5 2.5t-49.5 21.5q-31 20 -42 55
q-7 22 -7 46q0 32 12 69q22 63 60 115q-5 0 -9 1q-7 1 -9 1zM778 1063q21 2 43 5l70 168q-53 -82 -113 -173zM5 557q8 -1 17 -1q34 0 68 10q43 13 57 57q1 8 1 13q0 10 -4 14q-4 5 -11 5q-4 0 -8 -1q-14 -3 -34 -16q-42 -25 -86 -81z" />
    <glyph glyph-name="ett" unicode="ett" horiz-adv-x="1107" 
d="M682 1048l31 4q16 2 38 5q56 85 111 169q13 20 26 39l39 94l41 111q1 1 1 4q2 5 5 10t8 8q2 1 5 1q4 0 10 -3q3 0 4 -7q1 -6 2 -15v-16q-1 -8 -2 -11l-28 -48l-136 -322q99 17 219 39l4 10l8 18l129 312l41 110q1 1 1 4q1 5 5 11q3 5 8 7q3 1 5 1q5 0 10 -3q3 0 4 -6
q1 -7 2 -15v-16q-1 -8 -2 -11l-28 -48l-136 -323l-16 -37l-3 -8q108 21 197 38t129 26q158 33 174 69v4q0 5 4 11q2 5 12 6q4 0 8 -3q5 -2 8 -5q3 -4 3 -8q-19 -46 -190 -84q-45 -10 -141 -29.5t-211 -41.5l-484 -1151q-2 -6 -7 -9q-4 -3 -9 -3q-6 0 -7 3q-1 2 -1 4q0 3 1 5
l475 1145q-120 -23 -219 -40l-9 -20l-494 -1175q-2 -6 -7 -9q-4 -4 -9 -4q-6 0 -7 4q-1 2 -1 4q0 3 1 5l486 1171l8 18l-42 -6q-137 -210 -221 -328q-91 -127 -212 -274q-123 -147 -226 -208q-60 -26 -101 -26q-6 0 -31 3t-50 22q-31 20 -41 55q-7 22 -7 46q0 32 12 69
q21 63 59 115q-5 0 -8 1q-8 1 -10 1q-4 1 -4 5v2q0 3 2 7q3 5 9 8q3 2 8 2h2q1 0 19 -2q55 67 109 99q10 7 27 15q17 7 34 8h3q16 0 27 -13q10 -12 10 -31q0 -2 -0.5 -14t-16.5 -32q-37 -41 -75 -50q-31 -7 -60 -7h-13q-17 0 -33 -1q-36 -49 -58 -109q-10 -35 -10 -63
q0 -49 33 -75q40 -29 83 -29q34 0 69 18q48 26 109.5 81.5t121.5 124.5q224 270 423 577q-19 -3 -34 -5l-31 -4q-150 -19 -253 -29q20 -18 30 -55q1 -3 1 -5q0 -4 -2 -7q-3 -4 -9 -5h-3q-5 0 -9 2q-5 4 -8 10q-4 19 -13 30q-9 12 -18 17t-17 6q-4 1 -7 1q-4 0 -7 -1h-11
q-28 -3 -33 -3t-8 3q-1 2 -1 4t1 4v6q0 5 1 11q2 6 9 14q21 10 37 10q17 0 43 -6q12 -3 27 -6q16 -3 36 -3q10 0 21 1q33 2 68 5l8 2q3 0 6 1q56 5 119 12zM863 1203q-45 -68 -94 -143q17 2 36 6zM-15 537q9 -1 17 -1q33 0 67 10q43 13 57 57q2 8 2 13q0 10 -5 14
q-3 5 -11 5q-3 0 -8 -1q-14 -3 -34 -16q-42 -25 -85 -81z" />
    <glyph glyph-name="ff" unicode="ff" horiz-adv-x="977" 
d="M446 1476q4 5 8 9q5 4 10 4q4 0 10 -3q5 -3 9 -8q2 -3 2 -6v-2q-3 -8 -19 -31q-39 -53 -106 -178q-122 -237 -243 -476q6 3 12 5q49 20 103 46q119 62 272.5 146.5t293.5 176.5l44 86l8 16q4 8 8 15q32 69 58 117q42 80 79 124q45 55 79 63q8 2 15 2q8 0 16 -3
q19 -7 26 -29q5 -12 5 -28q0 -9 -2 -19q-7 -59 -71 -148q-78 -96 -251 -208q-83 -160 -181 -358q-47 -94 -98 -197q32 -8 65 -18q102 -31 209 -46q13 -1 25 -1q103 0 199 89q5 4 11 5h3q3 0 5 -1q2 -2 2 -4t-1 -4q-1 -5 -5 -9q-104 -94 -225 -94h-17q-130 12 -235 43
q-3 0 -7 1q-12 3 -22 5q-12 2 -21 4l-14 -27l5 -5q28 -25 51 -65q21 -35 21 -98q0 -11 -1 -22q-3 -78 -55 -214q-135 -319 -294 -470q-45 -43 -80 -60q-21 -10 -36 -10t-25 8t-14 24v4q0 59 114 309q117 258 283 587q-15 15 -24 33q-5 8 -5 16q0 4 1 7q5 19 25 21h6
q16 0 31 -4q153 300 273 531q-308 -188 -562 -315q-77 -40 -120 -63q-46 -91 -91 -183q5 -47 15 -99v-2q8 -39 14 -80q6 -56 6 -100q0 -46 -10.5 -92t-14.5 -48l-6 -14q-134 -319 -294 -470q-44 -43 -79 -60q-21 -10 -36 -10t-25 8t-14 24v4q0 60 113 309q147 317 304 628
q-4 22 -4 43q0 95 92 156q7 4 17 9q137 269 243 473q2 6 6 12l2 4q97 185 109 215zM63 727q-54 -45 -56 -111q29 57 56 111zM-1 159q16 28 16 112q0 47 -5 111q-6 41 -13 80q-6 31 -11 61q-144 -291 -277 -587q-112 -246 -120 -297q4 -12 10 -19q6 -5 15 -5q10 0 23 7
q29 14 68 51q153 144 283 455q4 10 7 19zM830 1181q147 99 215 184q58 86 63 142q1 8 1 15q0 12 -3 19q-3 10 -10 13q-3 1 -7 1t-9 -1q-26 -6 -65 -54q-20 -25 -44 -63v-1q-10 -17 -23 -40q-7 -13 -14 -27h-1q-8 -15 -17 -31q-19 -35 -43 -77q-21 -39 -43 -80zM491 505
q-157 -321 -269 -569q-111 -246 -119 -297q4 -12 10 -19q6 -5 14 -5q10 0 23 7q29 14 69 51q152 144 282 455q49 129 54 203q1 12 1 22q0 57 -18 90q-20 39 -47 62zM496 567q-12 2 -20 2q5 -8 12 -17z" />
    <glyph glyph-name="gh" unicode="gh" horiz-adv-x="1556" 
d="M261 522q0 -5 -4 -10q-4 -4 -10 -6q-3 -1 -5 -1t-4 1q-3 2 -3 5l1 11q0 10 -4 25q-3 16 -14 31q-11 16 -32 29q-20 13 -55 19h-8q-47 0 -101 -44q-55 -44 -96 -107q-40 -60 -48 -117q-1 -10 -1 -19q0 -65 50 -69h6q55 0 117 47q33 27 66 56q42 37 78 65q36 27 61 27
q12 0 14 -12v-8q0 -38 -41 -141q-3 -6 -5 -13l-10 -23q231 177 558 494q56 112 111 225q78 161 158 320q3 5 5 11h1q75 140 137 186q20 15 36 15q3 0 7 -1q21 -4 25 -35v-14q0 -133 -125.5 -314.5t-317.5 -374.5q-52 -107 -105 -215q-93 -190 -159 -323q63 89 140 174
t147 120q25 13 47 13q38 0 64 -38q22 -41 46 -100q14 -34 27 -63t25 -42q25 -33 71 -33h6q51 3 145 63q95 61 311 255q0 1 1 1q6 5 10 8q2 2 4 2t3 -2q1 -1 1 -3t-1 -4q-1 -5 -6 -9q-308 -273 -424 -317q-48 -18 -83 -18q-50 0 -75 36q-33 43 -55 107q-17 51 -44 98
q-19 25 -46 25t-63 -26q-71 -51 -149 -147q-79 -95 -135 -179q-57 -83 -65 -96q-3 -5 -7 -8q-5 -3 -9 -3q-5 0 -7 4l-1 2q0 3 2 6q6 12 101 201q90 181 209 418q6 12 12 25l7 13q-336 -320 -553 -489l-1 -1q-38 -87 -90 -188q-112 -220 -238 -392q-115 -157 -193 -157
q-8 0 -15 2q-14 5 -24 15q-19 20 -19 51q0 28 15 66q29 77 104 175q175 229 441 436q13 31 23 58q40 99 40 132v8q-16 0 -47 -25q-32 -24 -69 -57q-32 -29 -67 -58q-58 -47 -109 -65q-17 -6 -32 -6q-30 0 -53 27q-21 27 -21 65q0 11 2 23q12 66 58 134q46 69 107 118
q36 29 80 44q34 11 60 11q8 0 15 -1q38 -6 58 -20q21 -14 30 -32q10 -18 10 -35v-10q0 -10 -1 -18q-2 -12 -2 -14h-1zM826 818q180 185 297 360q107 160 107 281q0 11 -1 22q-1 15 -7 16h-3q-9 0 -23 -11q-59 -43 -131 -178q-76 -154 -151 -309q-15 -30 -29 -60
q-29 -60 -59 -121zM86 48q43 85 77 160q-32 -25 -125 -116q-93 -90 -194 -203q-102 -114 -160 -212q-36 -60 -36 -100q0 -25 14 -42q7 -7 20 -12q4 -1 10 -1q65 0 172 153q115 165 222 373z" />
    <glyph glyph-name="ght" unicode="ght" horiz-adv-x="1909" 
d="M316 582q0 -5 -4 -10q-4 -4 -10 -6q-3 -1 -5 -1t-4 1q-3 2 -3 5l1 11q0 10 -4 25q-3 16 -14 31q-11 16 -32 29q-20 13 -55 19h-8q-47 0 -101 -44q-55 -44 -96 -107q-40 -60 -48 -117q-1 -10 -1 -19q0 -65 50 -69h6q55 0 117 47q33 27 66 56q42 37 78 65q36 27 61 27
q12 0 14 -12v-6q0 -38 -41 -143q-3 -6 -5 -13l-10 -23q231 177 558 494q56 112 111 225q78 161 158 320q3 5 5 11h1q75 140 137 186q20 15 36 15q3 0 7 -1q21 -4 25 -35v-14q0 -133 -125.5 -314.5t-317.5 -374.5q-52 -107 -105 -215q-93 -190 -159 -323q63 89 140 174
t147 120q25 13 47 13q38 0 64 -38q22 -41 46 -100q13 -33 26 -61v-1q12 -25 36 -50t60 -31q6 -1 13 -1q23 0 54.5 14t84.5 68q109 107 293 420q54 94 97 171q-118 -15 -204 -23q20 -18 30 -55v-5q0 -4 -1 -7q-3 -5 -9 -6h-3q-6 0 -10 3q-5 4 -7 10q-5 19 -13 30
q-9 12 -18 16q-9 6 -17 7q-5 1 -8 1q-4 0 -6 -1h-11q-29 -4 -33 -4q-6 0 -8 4q-2 2 -2 4t1 4v6q0 5 2 11t8 14q22 10 38 10t43 -7q12 -2 26 -5q16 -3 36 -3q11 0 22 1q33 2 67 5q5 1 9 1q3 1 6 1q35 4 73 7q210 393 210 408h-1l7 20q1 1 1 4q1 5 5 10q3 5 8 7q2 1 5 1
q4 0 10 -2q3 0 4 -7q1 -6 2 -15v-16q-1 -8 -2 -11l-28 -48l-144 -341q189 22 348 55q158 33 174 69v4q0 5 3 10q3 6 12 7q4 0 9 -3q5 -2 8 -6q3 -3 3 -7q-20 -46 -190 -84q-171 -38 -375 -64l-494 -1176q-2 -5 -7 -9q-4 -3 -10 -3q-5 0 -6 4q-1 2 -1 4t1 4l486 1172l-27 -3
q-44 -83 -101 -185q-184 -315 -295 -424q-104 -103 -168 -103q-7 0 -13 1q-35 5 -60 23t-41 39l-1 3q-14 18 -20 31l-6 13q-12 24 -21 51q-17 51 -44 98q-19 25 -46 25t-63 -26q-71 -51 -149 -147q-79 -95 -135 -179q-57 -83 -65 -96q-3 -5 -7 -8q-5 -3 -9 -3q-5 0 -7 4
l-1 2q0 3 2 6q6 12 101 201q89 180 208 416q6 13 13 27l7 13q-336 -320 -553 -489l-1 -1q-38 -87 -90 -188q-112 -220 -238 -392q-115 -157 -193 -157q-8 0 -15 2q-14 5 -24 15q-19 20 -19 51q0 28 15 66q29 77 103 175q176 229 442 436q13 31 23 58q40 99 40 132v8
q-16 0 -47 -25q-32 -24 -69 -57q-32 -29 -67 -58q-58 -47 -109 -65q-17 -6 -32 -6q-30 0 -53 27q-21 27 -21 65q0 11 2 23q12 66 58 134q46 69 107 118q36 29 80 44q34 11 60 11q8 0 15 -1q37 -6 58 -20t30 -32q10 -18 10 -35v-10q0 -10 -1 -18q-2 -12 -2 -14h-1zM1851 1237
q-43 -85 -112 -215l24 2zM881 878q180 185 297 360q107 160 107 281q0 11 -1 22q-1 15 -7 16h-3q-9 0 -23 -11q-59 -43 -131 -178q-76 -154 -151 -309q-15 -30 -29 -60q-29 -60 -59 -121zM141 108q43 85 77 160q-32 -25 -125 -116q-93 -90 -194 -203q-102 -114 -160 -212
q-36 -60 -36 -100q0 -25 14 -42q7 -7 20 -12q4 -1 10 -1q65 0 172 153q115 165 222 373z" />
    <glyph glyph-name="gt" unicode="gt" horiz-adv-x="1038" 
d="M329 582q0 -5 -4 -10q-5 -4 -10 -6q-2 -1 -5 -1q-2 0 -4 1q-3 1 -3 4q0 1 1 3v9q0 10 -4 25q-4 16 -14 31q-11 16 -32 29t-55 19h-8q-46 0 -101 -44t-97 -107q-39 -60 -48 -117q-1 -10 -1 -19q0 -65 51 -69h7q54 0 115 47q34 27 66 56q42 37 78 65q36 27 62 27
q11 0 14 -12v-6q0 -38 -42 -143q-6 -17 -14 -35q19 15 40 28q76 53 135 93q26 18 48 33q30 21 55 37q80 56 162 109l37 90q-33 18 -64 56q-24 36 -44 91q-20 52 -39 81q-9 12 -18 16q-9 6 -17 7q-4 1 -7 1q-4 0 -7 -1h-11q-28 -4 -33 -4t-8 4q-1 2 -1 4t1 4v6q0 5 2 11
q1 6 8 14q22 10 38 10t42 -7q13 -2 27 -5q16 -3 36 -3q10 0 21 1q33 2 68 5q4 1 9 1q2 1 5 1q56 5 119 12l129 312l42 111q1 1 1 4q1 5 4 10t9 7q3 1 6 1t8 -2q3 0 5 -7q1 -6 1 -15q1 -4 1 -8t-1 -8q0 -8 -1 -11l-29 -48l-143 -341q189 22 347 55t174 69v4q0 5 4 10
q3 6 12 7q4 0 8 -3q5 -2 8 -6q3 -3 3 -7q-19 -46 -190 -84q-170 -38 -374 -64l-120 -285q12 -7 20 -14q10 -9 10 -19q0 -12 -15 -27q-7 -4 -13 -9q-20 -16 -44 -30l-333 -792q-2 -5 -6 -9q-5 -3 -10 -3t-7 4v2q0 3 1 6l319 770q-6 -3 -11 -6q-41 -25 -80 -52
q-46 -30 -117 -81q-12 -9 -25 -18q-64 -45 -150 -107q-31 -22 -61 -45q-39 -87 -91 -188q-112 -220 -238 -392q-115 -157 -192 -157q-8 0 -15 2q-15 5 -25 15q-18 20 -18 51q0 29 14 66q30 77 104 175q175 229 441 436q14 31 24 58q40 99 40 132v8q-17 0 -48 -25
q-31 -24 -68 -57q-33 -29 -67 -58q-59 -47 -109 -65q-16 -6 -31 -6q-31 0 -55 27q-20 27 -20 64q0 12 2 24q11 66 58 134q46 69 107 118q35 29 79 44q35 11 61 11q7 0 14 -1q38 -6 59 -20t30 -32t10 -35v-10q0 -10 -1 -18q-2 -12 -2 -14h-1zM759 654q20 14 35 25q6 6 6 10
t-3 6q-6 5 -16 11zM626 977q26 -32 39 -85t46 -104q26 -32 56 -49l110 267q-149 -19 -251 -29zM154 108q43 85 77 160q-32 -25 -125 -116q-94 -90 -195 -203q-101 -114 -159 -212q-36 -60 -36 -100q0 -25 14 -42q7 -7 19 -12q5 -1 10 -1q66 0 173 153q115 165 222 373z" />
    <glyph glyph-name="ht" unicode="ht" horiz-adv-x="1114" 
d="M438 1457q3 5 9 8q4 3 8 3h3q4 0 10 -1q6 0 11 -3q4 -2 4 -6v-2q-1 -6 -11 -15q-11 -10 -35 -24q-12 -21 -68 -137q-57 -115 -137 -281q-89 -185 -182 -374q-93 -190 -159 -323q63 89 140 174t147 120q26 13 48 13q37 0 63 -38q22 -41 46 -100q14 -34 27 -63
q10 -22 19 -35v1l1 -1q2 -4 14 -15t33 -18q9 -3 21 -3q13 0 34.5 5.5t56.5 38.5q54 57 170 213.5t246 351.5l36 54q-118 -15 -204 -23q20 -18 30 -55q1 -3 1 -5q0 -4 -2 -7q-3 -5 -9 -6h-3q-5 0 -9 3q-6 4 -8 10q-5 19 -13 30q-9 12 -18 16q-9 6 -17 7q-4 1 -7 1q-4 0 -7 -1
h-11q-29 -4 -33 -4q-5 0 -8 4q-2 2 -2 4t1 4v6q0 5 2 11t9 14q21 10 37 10q17 0 43 -7q12 -2 26 -5q17 -3 37 -3q10 0 21 1q33 2 67 5q5 1 9 1q3 1 6 1q36 4 74 8q85 132 148 253l26 63l42 111q1 1 1 4q1 5 4 10t8 7q3 1 6 1q4 0 9 -2q3 0 4 -7q1 -6 2 -15v-16q-1 -8 -2 -11
l-28 -48l-144 -341q189 22 348 55q158 33 174 69v4q0 5 3 10q3 6 12 7q5 0 9 -3q5 -2 8 -6q3 -3 3 -7q-20 -46 -190 -84t-375 -64l-494 -1176q-2 -5 -7 -9q-4 -3 -9 -3q-6 0 -7 4q-1 2 -1 4t1 4l486 1172l-26 -3q-23 -36 -47 -72q-131 -196 -248 -353.5t-172 -215.5
q-39 -39 -71 -52q-23 -9 -43 -9q-7 0 -23 2.5t-34 15t-28 25.5t-11 16q-25 39 -44 92q-17 51 -44 98q-18 25 -45 25t-63 -26q-72 -51 -150 -147q-78 -95 -135 -179q-57 -83 -64 -96q-3 -5 -8 -8q-4 -3 -9 -3t-6 4q-1 2 -1 4t1 4q6 12 101 201q90 181 209 418q6 12 12 25
q127 252 228 452q100 200 117 233zM1096 1136q-32 -56 -68 -114l22 2z" />
    <glyph glyph-name="il" unicode="il" horiz-adv-x="976" 
d="M159 848q4 7 14 14q7 4 13 4q2 0 5 -1q8 -4 14 -14q3 -7 3 -12q0 -4 -1 -7l-44 -58q-4 -7 -12 -9q-3 -1 -5 -1q-5 0 -9 3q-8 3 -9 11q-1 3 -1 6q0 4 2 9zM875 1441q27 28 54 28h4q15 -11 15 -39q0 -21 -8 -52l-4 -4q-1 -2 -2 -3q-6 -5 -10 -5q-5 0 -5 10q0 14 9 45
q-4 15 -14 15q-22 0 -74 -88q-66 -105 -189 -360q-124 -256 -212 -496q-50 -137 -50 -214q0 -59 29 -84q28 -14 59 -14q43 0 92 25q86 43 170 117q82 75 164 169q81 94 84 98q1 1 1 4q1 3 1 7t1 8t5 4q3 -1 10 -8q3 -2 3 -6t-4 -9q-3 -5 -117 -135v-1q-61 -66 -151 -146
q-92 -79 -187 -125q-54 -26 -100 -26q-36 0 -67 16q-32 24 -32 84q0 59 30 152q66 211 168 423q70 151 129 269q-72 -110 -159 -238q-130 -187 -250 -335q-165 -200 -224 -250q-24 -20 -64 -34q-18 -6 -33 -6q-19 0 -34 10q-23 19 -23 58q0 20 6 45q18 64 56 137q3 5 5 10
q39 80 74 137q14 24 23 38q13 21 14 23q4 5 9 8q3 2 7 2h2q4 -1 10 -7q5 -5 7 -14v-3q0 -8 -7 -18q0 -1 -1 -1q-6 -8 -40 -59q-34 -52 -72 -120q-38 -69 -57 -129q-8 -25 -8 -43q0 -27 16 -42q11 -8 28 -8q13 0 30 5q19 7 42 23q58 50 221 248q120 148 250 334
q158 233 257 390q85 152 113 180z" />
    <glyph glyph-name="ilt" unicode="ilt" horiz-adv-x="1272" 
d="M1328 1453q1 1 1 4q1 5 5 11q3 5 8 7q2 1 5 1q4 0 10 -3q3 0 4 -6q1 -7 2 -15v-16q-1 -8 -2 -11l-28 -48l-144 -342q189 23 348 56q158 33 174 68v4q0 6 3 11q3 6 12 7q4 0 9 -3q5 -2 8 -6q3 -3 3 -8q-20 -45 -190 -84q-171 -38 -375 -63l-494 -1176q-2 -6 -7 -9
q-4 -3 -10 -3q-5 0 -6 3q-1 2 -1 4q0 3 1 5l486 1172l-21 -3q-131 -237 -268 -482q-86 -156 -162 -233.5t-126 -102.5q-14 -8 -25 -12q-66 -29 -109 -29q-54 0 -70 47q-13 35 -13 77q0 59 25 133q66 211 167 423q71 151 130 269q-72 -110 -159 -238q-130 -187 -250 -335
q-165 -200 -224 -250q-24 -20 -64 -34q-18 -6 -33 -6q-19 0 -34 10q-23 19 -23 58q0 20 6 45q18 64 56 137q3 5 5 10q39 80 74 137q14 24 23 38q12 21 14 23q4 5 9 8q3 2 7 2h2q4 -1 9 -7q6 -5 8 -14v-3q0 -8 -7 -18q0 -1 -1 -1q-6 -8 -40 -59q-34 -52 -72 -120
q-38 -69 -57 -129q-8 -25 -8 -43q0 -27 16 -42q11 -8 28 -8q13 0 30 5q19 7 42 23q58 50 221 248q120 148 250 334q158 233 257 390q85 152 113 180q27 28 54 28h4q15 -11 15 -39q0 -21 -8 -52l-4 -4q-1 -2 -2 -3q-6 -5 -10 -5q-5 0 -5 10q0 14 9 45q-4 15 -14 15
q-22 0 -75 -88q-65 -105 -188 -360q-124 -256 -212 -496q-52 -138 -52 -216q0 -59 31 -82q19 -12 44 -12q7 0 27.5 2.5t55.5 16.5q45 17 127 91t179 242q134 240 261 474q-126 -16 -216 -25q20 -17 30 -55v-5q0 -4 -1 -6q-3 -5 -9 -6h-3q-6 0 -10 3q-5 3 -7 10q-5 19 -13 30
q-9 11 -18 16t-17 6q-9 1 -14 1l-6 -1h-5q-29 -3 -33 -3q-6 0 -8 3q-2 2 -2 4t1 4v7q0 5 2 11t8 14q22 9 38 9t43 -6q12 -2 26 -5q16 -3 37 -3q10 0 21 1q33 2 67 5q4 0 8 1q3 0 7 1q40 4 84 8q115 213 143 265l21 51zM1209 1157q-31 -57 -70 -128l18 2zM160 848q4 7 14 14
q6 4 12 4q3 0 6 -1q8 -4 14 -14q3 -7 3 -12q0 -4 -1 -7l-44 -58q-4 -7 -12 -9q-3 -1 -5 -1q-5 0 -9 3q-8 3 -9 11q-1 4 -1 7q0 4 1 8z" />
    <glyph glyph-name="in" unicode="in" horiz-adv-x="1301" 
d="M154 835q4 7 14 13q7 4 12 4q3 0 6 -1q8 -4 14 -14q4 -6 4 -11q0 -4 -2 -7l-44 -58q-4 -7 -12 -9q-2 -1 -5 -1q-4 0 -9 3q-8 3 -9 10q-1 4 -1 8t1 7zM200 394q65 66 129 153q19 26 35 47q42 63 67 76q7 1 13 1q12 0 22 -5q14 -9 16 -29l1 -7q0 -33 -34 -103
q-33 -66 -64 -124q-18 -33 -38 -71q-6 -10 -17.5 -34t-23 -50.5t-14.5 -37.5t-3 -14q0 -5 3 -5q1 0 3 1q10 5 40 42q10 12 22 27v1q11 13 21 26q52 68 121 138q84 84 169 109q18 3 32 3q54 0 65 -44q4 -22 4 -48q0 -22 -3 -48v-5q-1 -7 -1 -15q-2 -21 -2 -40q0 -18 2 -35
q5 -23 16 -34q7 -6 22 -6q10 0 24 3q102 26 206 89q105 63 169 117q78 73 91 90q12 17 14 21h1q4 4 10 5h2q3 0 6 -2q2 -1 2 -3t-1 -4q-1 -5 -7 -9q0 -3 -70 -65t-136 -111q-67 -48 -144 -91q-76 -43 -150 -61q-18 -4 -32 -4q-20 0 -32 8q-21 13 -27 42q-4 24 -4 51
q0 23 3 48q3 24 3 46q0 25 -4 46q-4 20 -19 30q-9 6 -23 6q-10 0 -23 -3q-76 -23 -154 -102q-79 -80 -141 -156q-69 -89 -103 -101h-4q-10 0 -13 12v6q0 27 27 85q30 65 76 144q14 25 28 49q9 19 44 91q32 64 32 90l-1 5q-2 14 -16 14h-4q-12 -3 -39 -35.5t-62 -79.5
q-64 -88 -131 -156q-19 -19 -74 -62.5t-104 -67t-77 -23.5q-21 0 -38 9q-19 18 -19 53q0 20 6 46q18 71 57 151t74 137q14 24 23 38q12 21 14 22q4 6 9 9q4 2 7 2h2q4 -1 9 -7q6 -6 8 -15l1 -3q0 -8 -8 -17q0 -1 -1 -1q-6 -8 -40 -60q-34 -51 -72 -119q-38 -69 -57 -129
q-8 -26 -8 -45q0 -27 16 -41q14 -8 32 -8q26 0 60 17q58 30 110.5 71.5t68.5 58.5z" />
    <glyph glyph-name="ir" unicode="ir" horiz-adv-x="1033" 
d="M145 815q5 7 15 13q6 4 11 4q3 0 6 -1q8 -4 14 -14q4 -6 4 -11q0 -4 -2 -7l-43 -58q-4 -7 -12 -9q-3 -1 -5 -1q-5 0 -10 3q-7 3 -9 10q-1 3 -1 6q0 5 2 9zM407 606q5 8 10 14q33 50 52 60q8 3 16 3h4q10 -1 15 -7q9 -12 9 -31q0 -9 -2 -20q-6 -33 -20 -66t-22 -49
q-6 -11 -11 -21q-60 -114 -115 -233q69 110 171 234q102 125 195 161q39 13 66 13q14 0 25 -4q29 -12 36 -41q3 -14 3 -30q0 -15 -3 -32q-6 -33 -15 -57q-9 -25 -13 -28q-2 -5 -7 -9t-10 -5q-5 0 -7 3q-2 1 -2 3t1 4q0 1 6 21q6 21 10 49q1 11 1 21q0 17 -3 33q-6 26 -27 37
q-10 6 -25 6q-17 0 -40 -7q-58 -21 -126 -93q-68 -71 -130 -157q-62 -87 -103 -153q-42 -66 -47 -76q-3 -5 -8 -8q-4 -3 -8 -4q-5 0 -7 2q-1 2 -1 4q0 3 1 5q23 59 43 111q47 129 112 260q48 86 53 129q-1 13 -7 13h-2q-7 -3 -18 -14.5t-21 -24.5t-13 -18q-1 -1 -1 -2
q-160 -237 -398 -366q-58 -30 -94 -30q-19 0 -31 8q-19 18 -19 52q0 20 7 47q18 71 57 151t73 137q15 24 24 38q12 21 13 22q4 6 9 9q4 2 7 2h2q4 -1 10 -7t8 -15v-3q0 -8 -7 -17q0 -1 -1 -1q-7 -8 -41 -60q-34 -51 -72 -119q-38 -69 -57 -129q-7 -24 -7 -43q0 -27 16 -43
q10 -7 26 -7q33 0 89 30q110 59 209 154.5t162 193.5z" />
    <glyph glyph-name="itt" unicode="itt" horiz-adv-x="920" 
d="M148 819q4 7 14 13q6 4 12 4q3 0 5 -1q9 -4 15 -14q4 -6 4 -11q0 -4 -2 -7l-44 -58q-4 -7 -12 -9q-2 -1 -5 -1q-4 0 -9 3q-8 3 -9 10q-1 4 -1 8t1 7zM473 931l31 4q9 1 20 3q128 200 198 316l37 99q2 1 2 4q1 5 4 11q3 5 8 7q2 1 5 1q4 0 10 -3q3 0 4 -6q1 -7 2 -15v-16
q-1 -8 -2 -11l-28 -48l-136 -323q99 17 219 40l4 9l8 19l129 311l41 111q1 1 1 4q2 5 5 10t8 8q2 1 4 1q5 0 11 -3q3 0 4 -7q1 -6 2 -15v-16q-1 -8 -2 -11l-28 -48l-136 -322l-16 -38l-3 -7q108 20 197 37.5t129 25.5q158 34 174 69v4q0 6 4 11q2 6 12 7q4 0 8 -3q5 -2 8 -6
q3 -3 3 -8q-19 -46 -190 -84q-45 -10 -141 -29t-211 -41l-484 -1151q-2 -6 -7 -10q-4 -3 -9 -3q-6 0 -7 4q-1 2 -1 4q0 3 1 5l475 1144q-120 -22 -219 -40l-9 -19l-494 -1176q-2 -6 -7 -9q-4 -3 -9 -3q-6 0 -7 3q-1 2 -1 4q0 3 1 5l486 1172l8 18q-36 -6 -63 -10
q-130 -206 -266.5 -399.5t-226.5 -274.5q-24 -20 -64 -33q-17 -6 -32 -6q-20 0 -35 10q-23 19 -23 59q0 19 5 43q19 65 57 137q2 6 5 11q39 80 74 137q14 24 23 38q12 21 13 22q4 6 9 9q5 2 8 2h2q4 -1 9 -7q6 -5 8 -15v-3q0 -8 -7 -17q0 -1 -1 -1q-6 -8 -40 -60
q-34 -51 -73 -119q-38 -69 -56 -129q-7 -25 -7 -43q0 -28 15 -43q11 -7 27 -7q14 0 31 5q19 6 42 23q87 78 222.5 266.5t265.5 392.5q-8 -1 -15 -2l-31 -4q-150 -19 -253 -30q20 -17 30 -55q1 -3 1 -5q0 -4 -2 -6q-3 -5 -9 -6h-3q-5 0 -9 3q-5 3 -8 10q-4 19 -13 30t-18 16
t-17 6t-14 1l-6 -1h-5q-28 -3 -33 -3t-8 3q-1 2 -1 4t1 4v7q0 5 1 11q2 6 9 14q21 9 37 9q17 0 43 -6q12 -2 27 -5q16 -3 36 -3q10 0 21 1q33 2 68 5q3 0 7 1q4 0 7 1q56 5 119 12zM700 1200q-65 -107 -162 -260q26 4 58 9z" />
    <glyph glyph-name="kk" unicode="kk" horiz-adv-x="1420" 
d="M348 1393q1 2 3 10q3 8 7 19q3 10 8 17q4 8 5 8l4 1l5 -1q6 -1 12 -5q5 -3 7 -12v-3q0 -8 -5 -22l-46 -52l-221 -552l-259 -604l473 612q2 3 10 12q8 8 19 14q5 3 11 3q4 0 8 -2q3 -1 7 -8q5 -7 8 -16q2 -4 2 -9q0 -4 -2 -8q-3 -8 -15 -12l-52 -24l-221 -287
q-9 -27 -14 -75q-2 -13 -2 -25q0 -34 13 -64q14 -34 59 -39h8q26 0 77 18t133 81q75 61 197 199.5t253 304.5l4 5l158 374h-1q80 190 146 233q20 14 34 14h4q20 -1 28 -23q3 -9 3 -21q0 -34 -23 -97q-28 -72 -113.5 -197.5t-199.5 -270.5l-35 -88l-259 -604l473 612
q2 3 10 12q8 8 19 14q5 3 11 3q4 0 8 -2q3 -1 7 -8q5 -7 8 -16q2 -4 2 -9q0 -4 -2 -8q-3 -8 -15 -12l-52 -24l-221 -287q-9 -27 -14 -75q-2 -13 -2 -25q0 -34 13 -64q17 -41 80 -41h3q58 0 130 36q75 37 145 88t154 121t85 76q6 5 10 6h3q4 0 6 -2q1 -1 1 -3t-1 -5
q-1 -5 -7 -10q-1 -1 -51 -42q-16 -13 -36 -30q-86 -71 -160 -124q-73 -53 -153 -95q-80 -41 -142 -41q-60 0 -85 28q-26 29 -30 66q-4 23 -4 43q0 13 2 25l-257 -331q-6 -8 -14 -9q-5 0 -7 3v1v2.5t1 4.5l313 742q-123 -153 -240 -285t-186 -188q-46 -40 -106.5 -71
t-103.5 -31q-61 0 -86 28q-26 29 -30 66q-3 21 -3 39q0 15 2 29l-258 -331q-6 -8 -14 -9q-5 0 -7 3q-1 1 -1 3t2 5zM899 935q98 129 179.5 250t107.5 185q13 36 13 60q0 1 -1 13.5t-6 25.5q-3 8 -8 8h-2q-8 0 -23 -10q-51 -35 -118 -176z" />
    <glyph glyph-name="la" unicode="la" horiz-adv-x="1204" 
d="M434 1425q27 27 54 27h4q15 -11 15 -39q0 -21 -8 -51q-2 -3 -4 -5l-2 -2q-7 -6 -10 -6q-5 0 -5 11q0 13 9 44q-5 15 -14 15q-22 0 -74 -88q-66 -105 -189 -360q-124 -255 -212 -496q-51 -138 -51 -215q0 -59 30 -82q16 -10 36 -10h8q84 15 168.5 87t165.5 160
q34 36 67 69q37 42 72.5 69t75 48t89.5 31q11 1 23 1q37 0 72 -14q46 -20 62 -50q5 -9 5 -17q0 -19 -28 -36q-4 -3 -7 -3q-1 0 -2 1q-4 1 -5 5q-10 59 -47 79q-23 12 -52 12q-14 0 -29 -3q-47 -9 -98 -39q-33 -23 -80 -71t-79 -106q-26 -44 -26 -87q0 -14 3 -27
q6 -16 22 -17h5q13 0 33 8q69 32 170 135q61 62 89 62q8 0 14 -5q9 -9 11 -29t2 -44q0 -35 6 -67t32 -47q10 -4 23 -4q31 0 78 24q65 35 135 90t145 125q74 69 76 73q6 5 11 6h2q3 0 6 -2q1 -1 1 -4v-4q-1 -4 -5 -9q-3 -3 -82 -75q-79 -73 -155 -131q-75 -58 -147 -94
q-48 -24 -83 -24q-17 0 -31 6q-33 20 -41 58q-9 38 -9 76q0 19 -1 32q-1 14 -6 19q-1 1 -3 1q-4 0 -13 -7q-13 -9 -40 -37q-110 -114 -193 -153q-25 -12 -44 -12q-6 0 -10 1q-22 2 -31 25q-6 12 -6 31q0 17 5 40q7 38 26 75q-86 -101 -181 -178q3 -1 3 -2q-9 -5 -19 -13
q-7 -5 -15 -10q-47 -33 -106 -54q-22 -8 -42 -8q-34 0 -62 22q-31 24 -31 85q0 58 29 150q66 211 168 424q119 256 208 418q90 162 119 192z" />
    <glyph glyph-name="ll" unicode="ll" horiz-adv-x="1033" 
d="M418 1435q27 27 54 27h4q15 -11 15 -39q0 -21 -8 -51q-2 -3 -4 -5l-2 -2q-7 -6 -10 -6q-5 0 -5 11q0 13 9 44q-5 15 -14 15q-22 0 -75 -88q-65 -105 -188 -360q-124 -255 -212 -496q-50 -136 -50 -214q0 -58 29 -83q28 -14 60 -14h8q38 3 115 47.5t199 163.5
q80 82 172 202q46 118 102 238q120 256 209 418q14 26 27 48q45 88 78 127q8 11 14 17q36 33 57 33q10 0 17 -9q9 -15 9 -37q0 -19 -6 -43q-9 -43 -96 -196t-213 -344q-74 -112 -151 -216q-28 -69 -53 -138q-50 -136 -50 -214q0 -58 29 -83q27 -14 59 -14q42 0 92 25
q86 43 169 117t165 168q81 94 84 99q1 1 1 3q1 3 1 8q0 4 1 8q0 3 3 3h2q3 0 10 -7q3 -2 3 -6q0 -5 -4 -9q-3 -6 -117 -136v-1q-61 -66 -151 -145q-92 -80 -187 -125q-54 -26 -100 -26q-36 0 -67 16q-32 23 -32 84q0 58 30 151q17 56 37 111q-24 -27 -57 -65v-1
q-61 -66 -151 -145q-92 -80 -187 -125q-54 -26 -100 -26q-36 0 -67 16q-32 23 -32 84q0 58 30 151q66 211 167 424q120 256 209 418q90 162 119 192zM587 685q58 80 113 163q5 7 13 19q41 60 116.5 179t132.5 232q44 88 44 134q0 13 -3 23q-2 5 -6 7q-9 0 -25 -16.5t-33 -40
t-30 -44.5q-65 -105 -188 -360q-73 -151 -134 -296z" />
    <glyph glyph-name="mm" unicode="mm" horiz-adv-x="2171" 
d="M535 377q-6 14 -10 30q-7 34 -9 67q-2 22 -5 39q-3 16 -11 23q-3 2 -6 2q-9 0 -22 -16q-25 -26 -56 -67q-1 -1 -2 -3l-6 -8q-42 -60 -84 -102q-29 -28 -59 -28q-14 0 -28 6q-29 18 -29 60q0 11 2 24q9 60 30 126q12 37 19 67q5 20 5 34q0 7 -1 13q-2 12 -14 12l-6 -1
q-82 -34 -221 -265q-22 -32 -49 -72q-27 -39 -49 -74q-23 -35 -31 -54q-10 -24 -18 -34q-7 -11 -13 -14t-12 -3h-1q-8 0 -8 15t8 44q18 58 52 145q35 87 72 171q36 84 60 135q3 7 3 15q0 4 -1 8q-1 12 -6 22q-4 9 -6 12v2q2 4 10 7q7 3 16 4h4q8 0 15 -3q3 0 5 -5
q2 -6 2 -11q0 -7 -1 -11q-1 -2 -22 -49q-9 -22 -20 -47q-14 -32 -31 -69q-29 -69 -58 -137q-27 -69 -43 -115q-11 -31 -11 -42q0 -5 3 -5q2 0 5 2l7 7l12 15v1q7 11 18 28q8 11 18 27q5 8 12 18q74 120 152 229q79 109 134 127q5 1 10 1q13 0 25 -6q16 -8 19 -21q1 -7 1 -14
q0 -40 -22 -106q-5 -16 -10 -31q-4 -10 -7 -21q-19 -48 -26 -86q-2 -8 -2 -16q0 -24 19 -36q8 -4 17 -4q25 0 52 30q38 40 75 92q29 42 56 72q20 21 44 29q9 3 17 3q13 0 22 -8q13 -16 15 -57q0 -7 2 -13v-12q3 -29 9 -58q7 -28 21 -50q12 -11 25 -12q16 -2 19 -2
q25 0 61 17q74 40 157 114.5t151 142.5q80 82 109 97q18 8 32 8h3q15 -1 21 -18q2 -5 2 -13q0 -28 -28 -98h-1q-4 -10 -8 -21q-29 -70 -56 -133q-17 -39 -27 -62q-11 -27 -20 -49q-14 -31 -24 -58q-10 -29 -12 -41q-1 -5 -1 -8v-1q1 0 3 0.5t9 11t16 24.5l8 12
q90 139 186 274q79 109 134 127q5 1 10 1q12 0 24 -6q17 -8 19 -21q1 -7 1 -14q0 -40 -22 -106q-5 -16 -10 -31q-4 -10 -7 -21q-18 -48 -26 -86q-2 -8 -2 -15q0 -25 20 -37q8 -4 17 -4q24 0 52 30q38 40 74 92q30 42 56 72q21 21 45 29q9 3 16 3q14 0 23 -8q13 -16 15 -57
q0 -7 1 -13t1 -12q3 -29 8 -58q6 -30 22 -52q20 -35 72 -35q27 0 62 9q104 27 382 253q5 4 10 4q4 0 6 -3q1 -2 1 -5q0 -2 -1 -4q-2 -6 -7 -9q-293 -236 -410 -262q-37 -8 -65 -8q-63 0 -86 39q-19 28 -26 63q-8 34 -10 67q-2 22 -5 39q-3 16 -10 23q-3 2 -6 2q-9 0 -23 -16
q-25 -26 -56 -67q-1 -1 -2 -3l-6 -8q-41 -60 -84 -102q-29 -28 -59 -28q-14 0 -28 6q-29 18 -29 61q0 11 2 23q9 60 30 126q13 37 20 67q5 21 5 36q0 6 -1 11q-2 12 -15 12q-3 0 -6 -1q-82 -34 -221 -265q-22 -32 -49 -72q-27 -39 -49 -74q-11 -18 -22 -42q-14 -28 -26 -46
q-8 -11 -14 -14t-11 -3h-1q-9 0 -9 15t9 44q17 58 52 145q34 87 71 171q4 9 13 29q12 23 25 53l4 10q17 38 26 63t9 35v3q-2 3 -7 3h-3q-7 -1 -18 -6q-23 -13 -102 -92l-51 -51q-66 -68 -141 -137t-138 -103q-38 -20 -66 -20q-7 0 -14 2q-31 6 -48 30q-15 20 -22 44z" />
    <glyph glyph-name="nn" unicode="nn" horiz-adv-x="1700" 
d="M40 645q0 2 -1 6q-2 9 -3 23v3q0 13 9 24q5 3 12 6q6 2 11 2h3q7 0 9 -7q1 -2 1 -5q0 -8 -5 -24q0 -6 -18 -37q-17 -32 -45 -79q-60 -100 -117 -208q-54 -103 -54 -141v-5q9 4 41 45q11 14 24 29q64 80 148 163q85 84 169 109q19 4 34 4q53 0 64 -45q4 -22 4 -48
q0 -23 -3 -48v-4q-1 -8 -1 -15q-2 -21 -2 -40t2 -35q4 -24 16 -35q9 -6 23 -6t41.5 10t63 30.5t51.5 31.5q3 2 4 3q147 93 256 196q95 93 119 104q7 3 11 3q7 0 7 -8.5t-9 -27.5t-19.5 -36.5t-14.5 -23.5q-1 -1 -1 -2q-60 -100 -116 -208q-55 -103 -55 -141v-5q10 4 42 45
q10 14 24 29q64 80 148 163q84 84 169 109q18 4 33 4q53 0 64 -45q5 -23 5 -51q0 -21 -3 -45v-4q-2 -8 -2 -15q-2 -21 -2 -40t2 -35q5 -24 16 -35q7 -6 21 -6q11 0 26 4q101 25 206 88q104 63 168 117q78 74 91 90q13 17 14 21h1q5 4 10 5h3q3 0 5 -2q3 -1 3 -5l-1 -2
q-2 -5 -7 -9q-1 -2 -71 -65q-70 -62 -136 -111q-67 -48 -144 -90q-76 -43 -150 -62q-17 -4 -30 -4q-21 0 -34 9q-21 13 -27 41q-4 24 -4 51q0 23 3 48t3 46q0 26 -4 46q-4 21 -19 30q-9 6 -23 6q-10 0 -23 -3q-75 -22 -154 -102q-78 -79 -140 -155q-70 -90 -104 -102h-4
q-10 0 -13 12v5q0 26 27 86q31 66 76 144q14 25 41 69.5t53 87.5t38 63l5 8q-10 -3 -34 -24t-73 -73q-32 -37 -109.5 -100.5t-162 -119t-138.5 -67.5q-4 -1 -7 -2q-17 -4 -31 -4q-21 0 -34 9q-21 13 -27 41q-4 24 -4 51q0 23 3 48t3 46q0 26 -4 46q-4 21 -19 30q-8 6 -22 6
q-11 0 -24 -3q-75 -22 -153 -102q-79 -79 -141 -155q-70 -90 -103 -102h-4q-11 0 -14 12v5q0 26 28 86q30 66 75 144q46 79 85 147q19 31 31 50q18 32 18 34z" />
    <glyph glyph-name="oh" unicode="oh" horiz-adv-x="1535" 
d="M45 622q4 4 9 5q5 0 8 -3l1 -3l-1 -5q-2 -5 -6 -9h-1q-2 0 -34 -31q-1 -9 -1 -18q0 -44 24 -85q29 -50 107 -79h1q69 88 86 216q2 17 2 33q0 86 -39 113q-19 16 -42 16q-22 0 -44 -12q-66 -34 -90 -155l5 5q4 3 6 5l6 6q2 1 3 1zM1138 1450q3 5 8 9q4 2 8 2h13
q7 -1 12 -4q5 -2 5 -6l-1 -2q-1 -5 -12 -15q-10 -8 -30 -20l1 -1q-1 -7 -93 -178q-50 -104 -117 -243q-90 -185 -183 -374q-92 -189 -158 -322q63 88 140 173q76 85 146 120q27 13 49 13q37 0 63 -38q22 -40 45 -100q14 -34 28 -63q13 -29 25 -42q25 -32 70 -32h7
q50 2 145 63q94 60 311 255q0 1 1 1q5 5 10 8q2 2 4 2q1 0 2 -2q2 -2 2 -5l-1 -3q-2 -5 -6 -9q-308 -273 -424 -316q-48 -18 -84 -18q-49 0 -74 35q-33 43 -56 107q-17 51 -43 98q-18 25 -45 25q-28 0 -64 -26q-71 -51 -150 -147q-78 -95 -135 -179q-57 -83 -64 -95
q-3 -5 -8 -8q-4 -3 -8 -3q-5 0 -7 3v3q0 3 1 6q6 11 101 201q89 180 208 417q6 12 13 25q63 127 120 241q-97 -156 -232 -332q-94 -129 -233 -235q-104 -81 -220 -81q-37 0 -75 8q-17 -20 -35 -38q-50 -46 -101 -65l-1 -1q-30 -11 -55 -11q-19 0 -36 6q-27 10 -42 42
q-11 29 -11 58q0 43 24 87q42 74 93 125q28 160 123 210q45 18 76 18q42 0 61 -33q25 -43 25 -108q0 -22 -3 -48q-21 -129 -98 -219q31 -10 67 -11q75 0 181 62t253 247q234 312 347 532q61 123 91 182q9 18 10 21h1q10 20 15 28zM-13 540q-52 -61 -69 -129q-6 -28 -6 -51
q0 -34 14 -58q16 -25 49 -25q19 0 43 8l1 1q43 16 86 56q14 13 28 29q-83 23 -122 83q-23 37 -24 86z" />
    <glyph glyph-name="ont" unicode="ont" horiz-adv-x="1823" 
d="M55 638q5 4 10 4h2q2 0 5 -2q1 -1 1 -3t-1 -5q-2 -6 -6 -9h-1q-1 0 -33 -32q-1 -9 -1 -19q0 -43 23 -84q30 -50 108 -78h1q69 87 85 215q1 19 1 36q0 84 -37 111q-20 15 -42 15t-45 -12q-66 -34 -89 -155l5 5q3 4 6 6l5 5q2 2 3 2zM1562 779q66 110 119 206q7 13 13 25
q-126 -16 -219 -25q19 -17 29 -54q1 -3 1 -6q0 -4 -2 -6q-3 -5 -9 -6h-3q-5 0 -9 3q-5 3 -7 10q-5 19 -14 30q-8 11 -18 16q-9 5 -17 6t-14 1l-5 -1h-5q-29 -3 -34 -3t-7 3q-2 2 -2 5q0 1 1 3v7q0 5 2 11q1 6 8 14q22 9 38 9t43 -6q12 -2 26 -5q16 -3 36 -3q10 0 22 1
q33 2 67 5q2 0 5 1q5 1 10 1q18 2 39 4q26 2 49 4q142 241 168 339q2 4 3 8l30 79q1 2 1 5q1 4 4 10q3 5 9 7q2 1 5 1q5 0 10 -2q3 0 4 -7q1 -6 2 -15v-16q-1 -8 -2 -11l-29 -48l-143 -342q189 23 347 56t175 68v5q0 5 3 10q3 6 12 7q4 0 9 -3q4 -2 7 -6q3 -3 3 -7
q-19 -46 -189 -84q-171 -38 -375 -64l-494 -1176q-2 -6 -7 -9t-10 -3t-6 3q-1 2 -1 4q0 3 1 5l485 1172l-14 -2q-62 -112 -142 -245q-35 -59 -130 -183.5t-206 -216.5q-76 -63 -138 -63q-27 0 -52 13q-21 13 -27 42q-4 22 -4 47t4 52q2 22 2 42q0 27 -4 50q-4 20 -19 30
q-9 6 -23 6q-10 0 -23 -3q-75 -23 -153 -102q-79 -79 -141 -156q-70 -89 -103 -101h-5q-11 0 -13 12l-1 5q0 26 29 86q30 65 75 144q10 16 28 46q35 56 71.5 120.5t41.5 91.5q0 4 -3 4q-1 0 -4.5 -1.5t-11 -8.5t-13 -14t-6.5 -8q-41 -50 -83 -98q-93 -105 -153 -146
q-93 -74 -212 -83q-25 -2 -48 -2q-43 0 -82 8q-17 -20 -36 -37q-50 -46 -100 -65l-1 -2q-29 -11 -54 -11q-20 0 -37 7q-28 10 -43 41q-11 28 -11 57q0 44 25 89q41 74 92 125q28 160 123 209q44 18 76 18q43 0 62 -33q24 -43 24 -109q0 -22 -2 -47q-22 -129 -99 -218
q48 -11 93 -11q120 0 221 77q58 40 150 144q42 48 82 97q10 15 32.5 33t39.5 18q13 0 13 -23q0 -6 -1 -15q-4 -34 -42 -103t-79 -136q-30 -50 -46 -79q-7 -13 -19 -33q-18 -28 -34.5 -59.5t-16.5 -52.5v0q3 0 13.5 11.5t27.5 32.5q10 13 23 28q64 81 148 164q85 84 169 109
q17 3 32 3q55 0 66 -44q3 -22 3 -48q0 -23 -2 -48v-4q-1 -8 -1 -16q-3 -21 -3 -40q0 -18 3 -35q4 -23 16 -34q19 -12 42 -12q53 0 144.5 80t186 202.5t118.5 167.5zM1771 1121q-22 -42 -48 -89l12 1zM-3 555q-52 -61 -68 -129q-7 -28 -7 -51q0 -33 14 -57q15 -26 49 -26
q19 0 44 8l1 1q42 16 85 56q14 13 29 29q-83 24 -123 84q-23 36 -24 85z" />
    <glyph glyph-name="or" unicode="or" horiz-adv-x="1362" 
d="M50 598q5 4 10 4h2q3 0 6 -2l1 -3l-1 -5q-2 -6 -6 -9h-2l-33 -32q-1 -9 -1 -18q0 -44 24 -85q29 -50 107 -78h1q69 87 85 215q2 19 2 36q0 84 -38 111q-19 15 -42 15q-22 0 -44 -12q-67 -34 -90 -155l11 11q4 4 6 5q1 2 2 2zM524 454q115 92 191 195q47 60 67 70
q14 8 21 8q6 0 7 -5q2 -5 2 -11q0 -9 -6 -27t-15.5 -38t-11.5 -25l-143 -312q69 110 172 234q102 124 194 160q40 13 66 13q15 0 25 -4q30 -12 36 -41q4 -14 4 -30q0 -15 -4 -32q-5 -33 -15 -57q-9 -25 -13 -28q-2 -5 -7 -9q-4 -4 -9 -5q-5 0 -8 3q-1 1 -1 3t1 4q0 1 6 22
q6 20 9 49q2 12 2 24q0 15 -3 29q-6 26 -27 38q-9 5 -24 5q-17 0 -42 -7q-58 -21 -126 -93q-68 -71 -129 -157q-62 -87 -104 -153q-41 -66 -47 -76q-2 -5 -7 -8t-9 -4q-5 0 -7 3q-1 2 -1 4t1 4l196 483q-15 -16 -37 -44q-78 -104 -194 -198q-132 -107 -291 -107q-41 0 -84 7
q-17 -20 -35 -37q-50 -46 -101 -65l-1 -2q-29 -11 -54 -11q-19 0 -37 7q-27 10 -42 41q-11 29 -11 58q0 43 24 88q42 74 93 125q28 160 122 209q45 18 77 18q42 0 61 -33q25 -43 25 -108q0 -22 -3 -48q-21 -129 -98 -218q46 -11 91 -11q135 0 254 100zM-8 515
q-51 -61 -68 -129q-6 -27 -6 -50q0 -34 14 -58q16 -26 50 -26q18 0 42 8l1 1q43 16 85 56q14 13 29 29q-83 24 -122 84q-24 36 -25 85z" />
    <glyph glyph-name="ol" unicode="ol" horiz-adv-x="1258" 
d="M40 580q5 4 10 5q4 0 8 -3l1 -3l-1 -5q-2 -5 -6 -9h-1q-2 0 -34 -31q-1 -9 -1 -18q0 -44 24 -85q29 -50 107 -79h1q69 88 85 216q2 19 2 36q0 83 -38 110q-19 16 -42 16q-22 0 -44 -12q-67 -34 -90 -155l11 11q4 3 6 5q1 1 2 1zM1166 1443q27 27 55 27h4q16 -11 16 -39
q0 -21 -9 -51q-2 -3 -4 -5l-2 -2q-6 -6 -10 -6t-4 10q0 14 8 45q-4 15 -13 15q-22 0 -76 -88q-12 -20 -26 -45q-27 -52 -73 -135q-40 -78 -89 -180q-124 -255 -212 -496q-50 -136 -50 -214q0 -58 29 -83q28 -14 60 -14q42 0 91 25q86 43 169 117t164 168q82 94 85 99
q1 1 1 3q1 3 1 8q0 4 1 8q1 3 3 3h1q4 0 11 -7q3 -2 3 -6q0 -5 -4 -9q-3 -6 -117 -136v-1q-61 -66 -152 -145q-91 -80 -186 -125q-53 -26 -99 -26q-36 0 -68 16q-31 24 -31 85q0 58 28 150q67 211 168 424q20 42 39 82q-87 -135 -201 -283q-94 -129 -233 -235
q-105 -81 -220 -81q-37 0 -75 8q-17 -20 -35 -38q-50 -46 -101 -65l-1 -1q-30 -11 -55 -11q-19 0 -36 6q-27 10 -42 42q-11 29 -11 58q0 43 24 87q42 74 93 125q28 160 122 210q45 18 77 18q42 0 61 -33q25 -43 25 -108q0 -22 -3 -48q-21 -129 -98 -219q31 -10 67 -11
q75 0 181 62t253 247q162 213 267 392q60 122 111 214q32 59 57 101q11 25 13 28l3 -1q31 49 45 64zM-18 498q-51 -61 -68 -129q-6 -28 -6 -51q0 -34 14 -58q16 -25 49 -25q19 0 43 8l1 1q43 16 85 56q14 13 29 29q-83 24 -122 83q-24 37 -25 86z" />
    <glyph glyph-name="ot" unicode="ot" horiz-adv-x="964" 
d="M1043 1420q1 1 1 4q1 5 4 10t9 8q2 1 5 1q4 0 10 -3q3 0 4 -7q1 -6 2 -14v-17q-1 -8 -2 -11l-29 -47l-143 -342q189 22 347 55t175 69v4q0 5 3 11q3 5 12 6q4 0 9 -2q4 -3 7 -6q3 -4 3 -8q-19 -46 -189 -84q-171 -38 -375 -64l-494 -1175q-2 -6 -7 -9q-5 -4 -10 -4t-6 4
q-1 2 -1 4q0 3 1 5l485 1171l-32 -4q-42 -68 -98 -158q-180 -287 -267 -370q-93 -88 -142 -101q-35 -14 -81 -15h-8q-40 0 -75 9q-17 -20 -35 -37q-50 -46 -101 -65l-1 -2q-29 -11 -53 -11q-20 0 -37 7q-28 9 -43 41q-11 29 -11 58q0 43 24 88q42 74 93 125q28 159 123 209
q45 18 77 18q42 0 61 -33q25 -43 25 -107q0 -23 -4 -49q-21 -129 -98 -218q40 -13 76 -13q39 0 90.5 23.5t108.5 84.5q85 81 265 367q51 82 90 147q-115 -15 -199 -23q19 -17 29 -55q2 -3 2 -5q0 -4 -3 -6q-3 -5 -9 -6h-3q-5 0 -9 2q-5 4 -7 10q-5 19 -14 30q-8 12 -18 17
q-9 5 -17 6q-4 1 -7 1q-4 0 -7 -1h-10q-29 -3 -34 -3t-7 3q-1 2 -1 4v4v6q0 5 2 11q1 7 8 14q22 10 38 10t43 -6q12 -3 26 -6q16 -3 37 -3q10 0 21 1q33 2 67 5q4 1 7 2q4 0 8 1q33 3 70 6q123 203 152 255l26 62zM931 1138q-33 -56 -87 -143q14 1 29 3zM53 596q5 5 9 5h3
q3 0 5 -2q1 -1 1 -3t-1 -5q-2 -6 -6 -9h-1q-1 0 -34 -32q-1 -9 -1 -18q0 -44 24 -85q29 -50 107 -78h1q70 87 86 215q2 17 2 33q0 86 -39 114q-19 15 -41 15q-23 0 -45 -12q-66 -34 -90 -155l11 11q4 4 6 5t3 1zM-5 514q-52 -61 -69 -129q-6 -27 -6 -50q0 -34 14 -58
q16 -26 50 -26q18 0 42 8l1 1q43 16 86 56q14 13 28 29q-83 24 -122 84q-23 36 -24 85z" />
    <glyph glyph-name="ott" unicode="ott" horiz-adv-x="1201" 
d="M745 998l31 4q21 2 52 7q130 236 173 331l30 80q1 1 1 4q1 5 4 10t9 8q2 1 5 1q4 0 10 -3q3 0 4 -7q1 -6 2 -14v-17q-1 -8 -2 -11l-29 -47l-135 -323q99 17 218 39l4 10l8 18l130 312l41 110q1 1 1 5q1 4 4 10q3 5 9 7q3 1 6 1q4 0 9 -2q3 0 4 -7q1 -6 2 -15v-16
q-1 -8 -2 -11l-29 -48l-135 -323l-16 -37l-3 -8q108 21 196.5 38.5t129.5 25.5q158 33 174 69v4q0 5 3 11q3 5 13 6q3 0 8 -2v-1q5 -2 8 -5q3 -4 3 -8q-19 -46 -190 -84q-45 -10 -141 -29.5t-211 -41.5l-484 -1151q-2 -6 -7 -9q-4 -3 -10 -3q-5 0 -6 3q-1 2 -1 4q0 3 1 5
l474 1145q-119 -23 -219 -40l-8 -19v-1l-494 -1175q-2 -6 -7 -9q-4 -4 -10 -4q-5 0 -6 4q-1 2 -1 4q0 3 1 5l485 1171l8 19l-22 -4q-45 -81 -100 -171q-137 -225 -240 -330q-103 -109 -179 -144q-44 -19 -89 -19q-33 0 -67 10q-17 -20 -35 -37q-50 -46 -101 -65l-1 -2
q-29 -11 -54 -11q-19 0 -36 7q-28 9 -43 41q-11 28 -11 57q0 44 25 89q41 74 92 125q28 159 123 209q45 18 77 18q42 0 61 -33q24 -43 24 -107q0 -23 -3 -49q-21 -129 -98 -218q28 -8 56 -8q46 0 90 22q36 16 72 44.5t85 81.5q102 104 239 327q50 84 93 160q-29 -5 -50 -8
l-31 -4q-150 -19 -253 -29q20 -17 30 -55q1 -3 1 -5q0 -4 -2 -6q-3 -5 -9 -6h-3q-5 0 -9 2q-6 4 -8 10q-5 19 -13 30q-9 12 -18 17t-17 6q-4 1 -8 1q-3 0 -6 -1h-11q-29 -3 -33 -3q-6 0 -8 3q-2 2 -2 4t1 4v6q0 5 2 11q2 7 8 14q22 10 38 10t43 -6q12 -3 26 -6q17 -3 37 -3
q10 0 21 1q33 2 67 5l8 2q3 0 7 1q56 5 119 12zM925 1152q-34 -64 -76 -140l19 4zM55 596q5 5 9 5h3q3 0 5 -2q1 -1 1 -3t-1 -5q-2 -6 -6 -9h-1q-1 0 -34 -32q-1 -9 -1 -18q0 -44 24 -85q29 -50 107 -78h1q70 87 86 215q1 17 1 33q0 86 -38 114q-19 15 -41 15q-23 0 -45 -12
q-66 -34 -90 -155l11 11q5 4 6 5q2 1 3 1zM-3 514q-52 -61 -69 -129q-6 -27 -6 -50q0 -34 14 -58q16 -26 49 -26q19 0 43 8l1 1q43 16 86 56q14 13 28 29q-82 24 -122 84q-23 36 -24 85z" />
    <glyph glyph-name="st" unicode="st" horiz-adv-x="895" 
d="M227 587q-4 -5 -10 -9q-4 -2 -7 -2h-2q-4 1 -4 6v2q0 4 2 8q1 0 11 16q10 15 22 38t20 47q5 18 5 32q0 6 -1 11q-4 18 -26 24q-7 2 -16 2q-21 0 -54 -10q-145 -43 -152 -106q-1 -10 -1 -19q0 -26 12 -46q17 -27 48 -55q45 -40 93 -115q82 34 184 74t206 96l64 35l68 165
q-55 77 -134 131v-1q1 -3 1 -5q0 -4 -2 -6q-3 -5 -9 -6h-3q-5 0 -9 2q-5 4 -7 10q-5 19 -14 30q-4 6 -8 10q-10 6 -18 11q-5 1 -9 2t-7 1q-4 0 -7 -1h-10q-29 -3 -34 -3t-7 3q-2 2 -2 4t1 4v6q0 5 2 11q1 7 8 14q22 10 38 10t42 -6q13 -2 27 -6q16 -3 36 -3q10 0 21 1
q33 2 68 6q3 0 7 1q4 0 7 1q56 5 119 12l129 311l42 111q1 1 1 4q1 5 4 10t9 8q2 1 4 1q5 0 10 -3q4 0 5 -7q1 -6 1 -14l1 -9l-1 -8q0 -8 -1 -11l-29 -47l-143 -342q189 22 347 55t175 69v4q0 5 3 11q3 5 12 6q4 0 9 -2q4 -3 7 -6q3 -4 3 -8q-19 -46 -190 -84
q-170 -38 -374 -63l-99 -234q27 -46 27 -72q0 -4 -2 -19.5t-32 -31.5q-7 -5 -20.5 -12t-22.5 -11q-3 -2 -6 -3t-7 -3l-333 -790q-2 -6 -6 -9q-5 -4 -10 -4t-7 4v3q0 3 1 6l320 773q-7 -4 -15 -8q-22 -12 -55 -28q-104 -54 -195 -92t-173 -75q1 -13 1 -26q0 -127 -90 -183
q-98 -62 -227 -70q-14 -1 -26 -1q-37 0 -51 11q-12 8 -12 22q0 10 5 21q11 24 43 52q55 51 143 101t166 75l4 2q-12 33 -44 62q-99 92 -99 165q0 6 1 13q11 86 183 138q48 13 77 13q17 0 28 -4q28 -13 28 -41v-2q-2 -30 -20 -66q-18 -35 -36 -62q-18 -25 -22 -27zM656 633
l22 11q36 14 47 34q3 6 3 14q0 21 -22 61zM550 929q83 -54 144 -136l84 202q-149 -19 -252 -29q14 -13 24 -37zM139 369q-1 6 -2 11q-4 -1 -10 -4q-6 -2 -10 -3q-74 -23 -154 -71q-80 -47 -132 -95q-24 -22 -33 -38q-2 -5 -2 -9q0 -8 8 -13q11 -9 46 -9q9 0 20 1
q143 14 218 94q27 28 40 60q11 28 11 57v19z" />
    <glyph glyph-name="ub" unicode="ub" horiz-adv-x="1294" 
d="M1231 1484q0 1 1 2q1 0 1 1v1q3 3 7 5q5 3 9 3q3 0 11 -4q5 -2 10 -5q2 -1 3 -2q5 -3 5 -7v-1q-2 -2 -6 -9t-10 -15q-3 -5 -6 -9t-5 -8q-5 -7 -7 -11q-3 -3 -19 -34q-11 -20 -25 -44q-7 -13 -14 -27q-2 -3 -3 -5q-23 -42 -42 -75q-20 -35 -22 -39q-118 -247 -297 -632
q-38 -82 -79 -170l1 1v0q0 -1 -1 -3q-1 -4 -4 -12t-7 -17l-2 -4q-3 -8 -6 -15q-2 -6 -4 -10q0 -2 -1 -3v-3l1 1q68 108 148 199q80 90 155 113q21 5 37 5q27 0 41 -16q15 -18 15 -49v-8q-3 -35 -24 -79q-38 -78 -127 -150q-90 -73 -225 -97q-4 -1 -12 -1q-7 0 -15 2
q-8 3 -10 9q5 11 13 18q8 8 17 11q7 3 10 4l1 1q5 0 11 -2q5 -1 10 -4q7 -3 12 -5q5 -1 10 -1q110 32 181 92q70 59 101 123q19 39 21 69v8q0 25 -12 39q-10 13 -31 13q-12 0 -29 -5q-67 -21 -140 -105t-137 -185q-65 -101 -106 -177q-40 -75 -41 -79q-3 -5 -8 -9
q-5 -3 -10 -3t-6 3q-1 2 -1 4t1 5h1q4 8 21 45q20 44 60 130q73 157 177 378q8 18 16 35q94 203 186 400l71 150q-78 -125 -180 -283.5t-198 -300.5q-76 -113 -131 -178.5t-111 -101.5q-52 -37 -113 -39h-4q-58 0 -73 56q-3 16 -3 33q0 26 6 56q15 61 32 114l13 39
q4 15 4 16q-1 0 -5 -7q-6 -12 -30 -44q-132 -166 -260 -256q-59 -42 -103 -57q-23 -8 -41 -8t-31 9q-5 3 -9 8q-5 10 -5 25q0 27 18 70q29 66 75 141q47 75 84 128q37 54 40 56q4 6 9 8q4 2 7 2h2q1 -1 3 -2l6 -4q7 -5 13 -11q4 -4 4 -9l-1 -3q-2 -5 -18 -7q-29 -10 -83 -88
t-93 -163q-26 -59 -26 -94q0 -15 5 -25q2 -3 5 -6q8 -4 19 -4q16 0 38 8q17 6 31 14t34 23q4 3 9 6q127 79 249 246q17 21 29 39q32 52 56 52h2q11 -4 11 -16v-4q-3 -15 -12 -36q-4 -12 -9 -24q-8 -28 -19 -71q-5 -18 -8 -35q-4 -21 -9 -38q-6 -26 -6 -46q0 -48 37 -58
q12 -3 25 -3q45 0 106 39q77 45 220 259q124 184 251 385t196 313l34 69q-7 -1 -14 -1q-14 0 -30 4q-6 1 -9 6q-2 5 -2 10v3q2 6 7 9q4 2 9 2h3q21 -16 36 -16q5 0 9 2l4 8q14 30 24 50z" />
    <glyph glyph-name="unt" unicode="unt" horiz-adv-x="1916" 
d="M2007 1442q1 1 1 5q1 4 4 10q3 5 8 7q3 1 6 1q4 0 9 -2q3 0 4 -7t2 -15v-16q-1 -8 -2 -11l-28 -48l-144 -342q189 23 348 56q158 33 174 68v4q0 6 3 11q3 6 12 7q5 0 9 -3q5 -2 8 -6q3 -3 3 -7q-20 -46 -190 -84q-170 -39 -375 -64l-494 -1176q-2 -6 -7 -9q-4 -3 -9 -3
q-6 0 -7 3q-1 2 -1 4q0 3 1 5l486 1172l-21 -3q-42 -69 -91 -143q-24 -36 -47 -70q-118 -182 -205 -290q-114 -133 -194 -179q-26 -15 -65 -23q-12 -2 -22 -2q-26 0 -46 13q-21 14 -28 42q-3 22 -3 47t3 52q3 24 3 45q0 26 -4 47q-4 20 -19 30q-9 6 -23 6q-11 0 -24 -3
q-75 -23 -153 -102q-79 -79 -141 -156q-70 -89 -103 -101h-4q-10 0 -13 12v6q0 27 27 85q30 65 76 144q17 30 33 58l4 4v1q83 142 95 182q-10 -7 -65 -62q-65 -65 -145.5 -142t-125.5 -108q-38 -32 -87 -52q-36 -14 -72 -14q-13 0 -27 2q-39 9 -46 47q-2 15 -2 31q0 26 6 57
q14 62 31 115q9 23 13 38q5 16 5 17q-1 0 -5 -8q-6 -12 -31 -44q-132 -166 -260 -255q-58 -42 -103 -57q-23 -8 -41 -8t-31 9q-4 3 -8 8q-5 10 -5 24q0 27 18 70q28 66 75 141q46 75 83 129t40 56q4 5 9 7q4 2 7 2h2q1 0 4 -2q2 -1 6 -4q7 -4 12 -10q4 -4 4 -9l-1 -3
q-2 -6 -17 -8q-30 -10 -84 -88q-54 -77 -92 -163q-27 -59 -27 -94q0 -15 5 -25q2 -3 5 -6q9 -4 20 -4q16 0 37 8q18 6 31 14q14 9 35 24q3 3 9 6q127 78 248 245q17 21 29 40q33 52 57 52h1q11 -5 11 -16v-4q-3 -15 -12 -36q-4 -13 -9 -25q-8 -27 -19 -70q-10 -43 -16 -73
q-7 -22 -7 -41q0 -21 9 -38q6 -13 17 -21q15 -6 36 -6q13 0 41 4.5t86 49.5q105 86 198 177.5t131 131.5q14 15 22 18q5 2 9 2q9 0 14 -8q4 -7 4 -14q0 -5 -2 -10q-37 -93 -107 -209q-30 -52 -52 -94q-11 -20 -21 -39q-45 -78 -47 -109v-2q9 4 42 45q10 13 23 28
q64 81 149 164q84 84 169 109q18 3 32 3q54 0 65 -44q4 -22 4 -48q0 -22 -3 -48v-4q-1 -8 -1 -16q-2 -21 -2 -40q0 -18 2 -35q4 -24 16 -34q17 -10 37 -10q32 0 84 32.5t106.5 87.5t68.5 77q82 102 190 269q26 38 54 81q46 68 84 132q-122 -16 -211 -25q20 -17 30 -55
q1 -3 1 -5q0 -4 -2 -6q-3 -5 -9 -6h-2q-6 0 -10 3q-6 3 -8 10q-5 19 -13 30q-9 11 -18 16t-17 6q-9 1 -14 1l-6 -1h-5q-29 -3 -33 -3q-5 0 -8 3q-2 2 -2 5q0 1 1 3v7q0 5 2 11t8 14q22 9 38 9t43 -6q12 -2 26 -5q17 -3 37 -3q10 0 21 1q33 2 67 5q4 0 7 1l8 1q39 4 81 8
q108 184 160 299l7 17zM1880 1126q-28 -51 -62 -108l18 2z" />
    <glyph glyph-name="ur" unicode="ur" horiz-adv-x="1380" 
d="M856 681q10 26 10 39l-1 4q0 4 -1 4h-2q-3 0 -8 -2q-28 -13 -77 -71l-16 -19q-61 -76 -134 -156t-145 -134q-60 -39 -100 -39h-2q-11 -1 -22 -1q-14 0 -28 2q-39 9 -45 47q-3 16 -3 34q0 25 6 54q15 62 32 115q8 23 13 38q4 16 4 17q-1 0 -5 -8q-6 -12 -30 -44
q-132 -166 -260 -255q-59 -42 -103 -57q-23 -8 -41 -8t-31 9q-5 3 -9 8q-5 10 -5 24q0 27 18 70q29 66 75 141q47 75 84 129t40 56q4 5 9 7q4 2 7 2h2q1 0 3 -2q3 -1 6 -4q7 -4 13 -10q4 -4 4 -9l-1 -3q-2 -6 -18 -8q-29 -10 -83 -88q-54 -77 -93 -163q-26 -59 -26 -93
q0 -15 5 -26q2 -3 5 -6q8 -4 19 -4q16 0 38 8q17 6 31 14q14 9 34 24q4 3 9 6q127 78 249 245q17 21 29 40q32 52 56 52h2q11 -5 11 -16v-4q-3 -15 -12 -36q-4 -13 -9 -25q-8 -27 -19 -70t-17 -73q-6 -22 -6 -41q0 -21 8 -38q6 -12 15 -19q7 -1 14 -3q13 -5 33 -5h11l6 1v-1
q28 4 73 34q121 88 213 214q38 47 76 90q49 63 79 77q7 4 15.5 4.5t13.5 -1.5q18 -8 18 -31v-15.5t-11 -44.5l-160 -341q69 110 171 234t195 160q40 13 66 13q15 0 25 -4q29 -12 36 -41q3 -14 3 -30q0 -15 -3 -32q-6 -33 -15 -57q-9 -25 -13 -28q-2 -5 -7 -9t-10 -5
q-4 0 -7 3q-2 1 -2 3t1 4q0 1 7 22q6 20 9 48q1 11 1 21q0 17 -3 33q-6 26 -27 37q-9 6 -25 6t-40 -7q-58 -21 -126 -93q-68 -71 -130 -157q-62 -87 -103 -153q-42 -66 -47 -76q-3 -5 -8 -8q-4 -3 -8 -4q-5 0 -7 3q-1 2 -1 4t1 4z" />
    <glyph glyph-name="ut" unicode="ut" horiz-adv-x="1050" 
d="M1150 1399q1 1 1 4q1 5 5 10q3 5 8 8q2 1 5 1q5 0 10 -3q3 0 4 -6q1 -7 2 -15v-17q-1 -7 -2 -10l-28 -48l-144 -342q189 23 348 55q158 34 174 69v4q0 5 3 11q3 5 12 7q4 0 9 -3q5 -2 8 -6t3 -8q-20 -46 -190 -84q-171 -38 -375 -63l-494 -1176q-2 -6 -7 -9q-4 -3 -10 -3
q-5 0 -6 3q-1 2 -1 4q0 3 1 5l486 1172q-21 -3 -41 -6q-108 -179 -217 -342q-76 -113 -131 -178.5t-111 -101.5q-51 -37 -113 -39h-4q-58 0 -73 56q-2 15 -2 32q0 26 6 57q14 61 31 114q9 24 13 39q5 15 5 16q-1 0 -6 -7q-6 -12 -30 -44q-132 -166 -260 -256
q-58 -42 -103 -57q-23 -8 -41 -8t-31 9q-4 3 -8 8q-5 10 -5 25q0 27 18 70q28 66 75 141q46 75 83 128q37 54 40 56q4 6 9 8q4 2 7 2h2q1 -1 3 -2q3 -2 7 -4q7 -5 12 -11q4 -4 4 -9l-1 -3q-2 -5 -17 -7q-30 -10 -84 -88t-92 -163q-27 -60 -27 -94q0 -15 5 -25q2 -3 5 -6
q9 -4 20 -4q16 0 37 8q18 6 31 14q14 8 35 23q3 3 9 6q127 79 248 246q17 21 29 39q33 52 57 52h1q11 -4 11 -16v-4q-3 -15 -12 -36q-4 -12 -9 -24q-8 -28 -19 -71q-4 -18 -8 -35q-4 -21 -9 -38q-6 -26 -6 -45q0 -49 37 -59q12 -3 25 -3q45 0 106 39q77 45 220 259
q106 157 210 331q-112 -14 -194 -22q20 -17 30 -55q1 -3 1 -5q0 -4 -2 -6q-3 -5 -9 -6h-3q-5 0 -10 3t-7 9q-5 20 -13 31q-9 11 -18 16t-17 6q-4 1 -8 1q-3 0 -6 -1h-11q-29 -3 -33 -3q-6 0 -8 3q-2 2 -2 4t1 4v6q0 6 2 11q2 7 8 15q22 9 38 9t43 -6q12 -2 26 -5
q16 -3 35 -3q11 0 23 1q33 2 67 5q4 0 8 1q3 0 7 1q31 3 64 6q115 194 184 318zM1062 1175q-53 -92 -119 -202q18 2 37 4z" />
    <glyph glyph-name="utt" unicode="utt" horiz-adv-x="1338" 
d="M55 661q4 6 9 8q4 2 7 2h2q1 -1 3 -2q3 -2 7 -4q7 -5 12 -11q4 -4 4 -9l-1 -3q-2 -5 -17 -7q-30 -10 -84 -88t-92 -163q-27 -60 -27 -94q0 -15 5 -25q2 -3 5 -6q8 -4 20 -4q16 0 37 8q17 6 31 14t34 23q4 3 9 6q127 79 249 246q17 21 29 39q33 52 56 52h2q11 -4 11 -16
v-4q-3 -15 -12 -36q-4 -12 -9 -24q-8 -28 -19 -71q-4 -18 -8 -35q-4 -21 -9 -38q-6 -26 -6 -45q0 -49 37 -59q12 -3 24 -3q46 0 107 39q77 45 220 259q111 163 226 344l-11 -1l-31 -4q-150 -20 -253 -30q20 -17 30 -55q1 -3 1 -5q0 -4 -2 -6q-3 -5 -9 -6h-3q-5 0 -9 3
q-6 3 -8 9q-5 20 -13 31q-9 11 -18 16t-17 6q-4 1 -8 1q-3 0 -6 -1h-11q-29 -3 -33 -3q-5 0 -8 3q-2 2 -2 4t1 4v6q0 6 2 11q2 7 8 15q22 9 38 9t43 -6q12 -2 26 -5q16 -3 34 -3q12 0 24 1q33 2 67 5q4 0 8 1q3 0 7 1q56 5 119 12l31 4q7 1 15 2q136 216 210 335l30 81
q1 1 1 4q1 5 5 10q3 5 8 8q2 1 5 1q4 0 10 -3q3 0 4 -6q1 -7 2 -15v-17q-1 -7 -2 -10l-28 -48l-136 -323q99 17 219 40l4 9l7 18l130 312l41 111q1 1 1 4q1 5 5 10q3 5 8 7q3 1 6 1q4 0 9 -2q3 0 4 -7q1 -6 2 -15v-16q-1 -8 -2 -11l-29 -48l-135 -322l-16 -38l-3 -7
q108 20 197 37.5t129 25.5q158 33 174 69v4q0 5 3 11q3 5 13 6q4 0 8 -2q5 -3 8 -6q3 -4 3 -8q-19 -46 -190 -84q-45 -10 -141 -29.5t-211 -41.5l-484 -1151q-2 -5 -7 -9q-4 -3 -10 -3q-5 0 -6 4q-1 2 -1 4t1 4l474 1145q-119 -23 -218 -40l-9 -19l-494 -1176q-2 -6 -7 -9
q-4 -3 -10 -3q-5 0 -6 3q-1 2 -1 4q0 3 1 5l486 1172l7 18q-35 -6 -62 -10q-120 -187 -234 -356q-76 -113 -131 -178.5t-111 -101.5q-51 -37 -113 -39h-4q-58 0 -73 56q-3 15 -3 32q0 26 7 57q14 61 31 114l13 39q5 15 5 16q-1 0 -6 -7q-6 -12 -30 -44q-132 -166 -260 -256
q-58 -42 -103 -57q-23 -8 -41 -8q-19 0 -31 9q-4 3 -9 8q-5 10 -5 24q0 28 19 71q28 66 75 141q46 75 83 128q37 54 40 56zM948 976q25 3 58 9l100 240q-67 -106 -158 -249z" />
    <glyph glyph-name="wh" unicode="wh" horiz-adv-x="1905" 
d="M127 732q0 -13 -2 -19q-3 -6 -7 -9q-4 -2 -10 -3q-5 -1 -11 -5q-7 -4 -12 -12q-20 -27 -47 -74q-41 -66 -81 -147q-42 -82 -61 -149q-9 -30 -9 -52q0 -26 13 -40q8 -7 18 -7q9 0 19 7q22 14 49 43q38 44 77 98q50 68 101 119q42 41 73 41q7 0 13 -2q16 -9 24 -30
q8 -20 12 -46q2 -13 5 -25q5 -24 13 -46t19 -34q8 -9 19 -9q5 0 9 1q17 6 55 42q48 46 84 87q-2 4 -4 7q-14 24 -16 47v7q0 38 20 81l2 1q18 39 45 66q53 52 80 52q10 0 16 -7q10 -10 10 -30q0 -28 -22 -77q-30 -59 -102 -141q57 -43 112 -43q22 0 70 15.5t109 76.5t96 109
q102 127 232 315q188 277 271 420q16 31 22 42q3 6 8 9l4 7l9 -4q4 0 8 -1q7 0 12 -3q5 -2 5 -7l-1 -2q-1 -5 -12 -14q-11 -10 -34 -24l-4 -6q-14 -27 -64 -131q-57 -116 -137 -281q-90 -185 -183 -374q-92 -190 -158 -323q63 88 140 174q77 85 147 119q26 13 48 13
q38 0 63 -38q22 -40 46 -99q13 -35 27 -64q13 -29 25 -42q25 -32 70 -32h7q50 3 145 63q94 61 311 255q0 1 1 1q5 5 10 8q3 2 5 2q1 0 2 -2q1 -1 1 -3t-1 -5q-2 -4 -6 -8q-308 -274 -424 -317q-48 -18 -83 -18q-50 0 -75 36q-33 43 -55 107q-18 50 -44 97q-19 26 -46 26
t-63 -26q-71 -51 -149 -147q-79 -96 -136 -179q-57 -84 -64 -96q-3 -5 -7 -8q-5 -3 -9 -3q-5 0 -7 3v3q0 3 1 6q6 11 101 201q89 179 207 415q7 13 14 27q126 253 227 453l10 19q-74 -117 -171 -258q-131 -189 -233 -316q-103 -127 -175 -175q-56 -39 -116 -39q-41 0 -84 18
q-25 11 -41 27q-37 -40 -83 -84q-53 -49 -84 -57q-10 -3 -18 -3q-18 0 -29 13q-22 30 -31 82q-7 29 -16 55q-10 25 -27 35q-3 1 -6 1q-20 0 -50 -34q-36 -41 -78 -98q-39 -55 -79 -101q-36 -41 -67 -58q-15 -8 -28 -8q-16 0 -29 11q-16 17 -16 48q0 23 8 53q19 71 62 157
q42 85 84 155q29 48 48 76q1 7 11 19q9 12 22 23q12 11 21 14h2q6 0 7 -13zM507 482q64 74 90 126q12 25 14 42l1 7q0 11 -6 16q-3 3 -6 5q-5 2 -10 2h-3q-17 -2 -36 -21q-35 -36 -53 -83q-6 -19 -6 -37q0 -28 15 -55v-2z" />
    <glyph glyph-name=".notdef" horiz-adv-x="1024" 
d="M100 0v1434h824v-1434h-824zM150 50h724v1334h-724v-1334zM325 1148q31 28 58 43q53 30 112 30q92 0 148 -47.5t56 -127.5q0 -49 -23 -98.5t-87 -129.5q-63 -80 -99 -132t-36 -99q0 -38 24 -133h-32q-35 97 -35 148q0 76 81.5 218t81.5 217q0 57 -33 90t-91 33
q-38 0 -69 -17q-26 -15 -56 -40v45zM389 334l57 58q11 10 20 10q10 0 22 -11l56 -60q9 -11 9 -20q0 -11 -10 -22l-56 -62q-14 -14 -21 -14q-11 0 -20 10l-61 71q-7 9 -7 18q0 10 11 22z" />
    <glyph glyph-name=".null" horiz-adv-x="0" 
 />
    <glyph glyph-name=".null" horiz-adv-x="0" 
 />
    <glyph glyph-name="nonmarkingreturn" horiz-adv-x="508" 
 />
    <glyph glyph-name="space" unicode=" " horiz-adv-x="508" 
 />
    <glyph glyph-name="space" unicode="&#xa0;" horiz-adv-x="508" 
 />
    <glyph glyph-name="exclam" unicode="!" horiz-adv-x="767" 
d="M648 1452v0q-5 -10 -31 -61.5t-116 -239t-185.5 -417t-111.5 -319.5q-1 -8 6.5 -9t20.5 6q12 7 21 17.5t10 19.5q7 93 90.5 316.5t172 396t127.5 230.5t49 78v1q9 21 -14 15q-12 -5 -22.5 -14.5t-16.5 -19.5zM180 195v0q20 -9 26 -29t0.5 -38t-18.5 -21q-22 -2 -46.5 13
t-24.5 42q4 27 18 40t23 5q5 -5 10.5 -7.5t8.5 -3.5z" />
    <glyph glyph-name="quotedbl" unicode="&#x22;" horiz-adv-x="672" 
d="M316 1020v0q-25 0 -31.5 -5.5t-4.5 -15.5q-3 -4 -3 -6.5t5 -3.5q1 -4 -0.5 -13.5t-13.5 -21.5t-42 -24q-8 -4 -15 -10t-9 -11q-1 -6 4 -7.5t13 1.5q43 17 66 34t31 32t8.5 26.5t-1.5 16.5v1q1 7 -7 7zM413 1020v0q-25 0 -31.5 -5.5t-4.5 -15.5q-3 -4 -3 -6.5t5 -3.5
q1 -4 -0.5 -13.5t-13.5 -21.5t-42 -24q-9 -4 -15.5 -10t-8.5 -11q-1 -6 3.5 -7.5t13.5 1.5q43 17 65.5 34t31 32t9 26.5t-1.5 16.5v1q1 7 -7 7z" />
    <glyph glyph-name="numbersign" unicode="#" horiz-adv-x="1336" 
d="M600 901v0l-83 -213q-129 -9 -207 -27q-9 -3 -21 -9.5t-22 -13.5q-19 -16 -2 -12q88 20 239 28l-40 -103q-132 -8 -213 -28q-8 -2 -20 -8.5t-22 -13.5q-19 -16 -3 -13q91 22 245 29l-74 -191q-5 -20 18 -12q11 5 21 15t14 20l66 171q73 3 142 4l-111 -287q-6 -20 17 -11
q11 5 21 14.5t14 19.5l102 265q76 1 126 1t57 -1v0q6 1 17.5 6t22.5 12q12 8 16 13.5t-1 5.5v0h-70t-154 -1l39 101q79 1 130 1h58h1q5 0 16.5 5t23.5 13q11 7 15.5 12.5t-0.5 5.5h-1h-71.5t-157.5 -1l53 137q6 20 -17 12q-11 -5 -21 -15t-14 -19l-45 -116q-70 -2 -142 -6
l90 233q6 20 -17 12q-12 -6 -21.5 -15.5t-13.5 -19.5zM549 657v0q73 3 142 4l-40 -102q-70 -1 -142 -5z" />
    <glyph glyph-name="dollar" unicode="$" 
d="M909 989v0q1 1 14.5 31t26.5 77t13 100.5t-25 102t-87 80.5q-35 17 -71 21l65 163q7 20 -18 12q-12 -5 -22.5 -15.5t-15.5 -20.5l-55 -138q-77 -6 -145 -48q-62 -38 -102 -94q-37 -51 -43 -107v0q-13 -90 81 -171v0l1 -1v0l29 -23l-289 -718q-16 2 -30 6q-84 21 -131 75
q-45 52 -34 134q15 96 50 154.5t74.5 88t67.5 40t29 9.5q11 3 22.5 11.5t18.5 19.5q13 24 -8 21q-2 1 -42.5 -13t-96.5 -53t-105 -114.5t-69 -197.5q-12 -91 37 -148q50 -58 138 -79q27 -7 56 -11l-119 -296q-6 -21 18 -13q12 6 23 16t15 20l109 270q44 -1 90 6
q110 15 212 72.5t172 158.5q93 200 45.5 313t-201.5 247l150 367q21 -5 42 -15q58 -30 81.5 -74.5t23.5 -93t-11.5 -91.5t-23.5 -70t-13 -28q-10 -22 13 -17q11 4 22.5 13.5t17.5 20.5zM713 1350v0l-141 -344l-4 2v0l-1 1q-76 98 -64 178v0v1q5 42 30 77q21 30 54 50
q57 35 126 35zM311 235v0l279 694q142 -107 192.5 -223.5t-67.5 -296.5q-111 -145 -299 -170q-54 -8 -105 -4z" />
    <glyph glyph-name="percent" unicode="%" horiz-adv-x="1610" 
d="M1179 1470v0q0 -9 -125.5 -233t-287 -507.5t-284.5 -498.5t-130 -227q-11 -23 11 -19q11 4 22 13t17 19l1 1q15 26 140 245t285.5 502t284.5 506.5t124 235.5q0 8 -8 8t-21 -8q-12 -8 -20.5 -18.5t-8.5 -18.5zM708 170v0q35 -18 45.5 -53.5t1.5 -67.5t-33 -38
q-39 -4 -83.5 23.5t-44.5 75.5q7 49 32 72.5t42 8.5q10 -9 19 -14t15 -6zM889 1402v0q34 -18 44.5 -54t1.5 -68t-33 -37q-39 -5 -83 23t-44 76q6 48 31 71.5t42 9.5q10 -10 19 -14.5t15.5 -5.5z" />
    <glyph glyph-name="ampersand" unicode="&#x26;" horiz-adv-x="1683" 
d="M1503 1623v0l-194 -434q-13 95 -96.5 155t-229.5 61q-33 -3 -62 -9q-217 -52 -319 -200q-102 -151 -91 -277q1 -12 3 -23v0q19 -70 100.5 -86t165.5 -6q-82 -48 -182.5 -117.5t-193.5 -154t-155 -178t-62 -187.5q0 -95 34 -154q41 -69 115 -88t169 9q149 45 307 196
q166 165 251 237l-428 -1031q-4 -12 -1 -19t12 -5q10 3 19.5 13.5t14.5 23.5l446 1128q4 11 2.5 18t-8.5 7q-9 0 -19 -8.5t-17 -21.5l-1.5 -2.5t-5.5 -8.5t-12.5 -17t-23 -27t-35 -39t-50 -53.5t-68 -69.5t-88.5 -88q-139 -133 -272 -173q-87 -26 -154 -8q-68 17 -105 80
q-31 53 -31 140q0 86 68 173.5t166.5 167t197 142t165.5 98.5t70 37v0q9 5 17 14t12 20q5 12 2.5 19t-11.5 6q-2 -1 -35.5 -7.5t-84 -11.5t-103 -2t-97 14t-54.5 51v0v1q-2 9 -2 19q4 116 70 229q89 116 259 169q50 8 80 11q108 -4 172.5 -33t93 -73.5t35 -83t6.5 -45.5
q-1 -14 11 -13q9 1 19 10.5t16 22.5l234 487q6 13 4 21t-11 7q-9 -2 -19 -11t-16 -22z" />
    <glyph glyph-name="quotesingle" unicode="'" horiz-adv-x="346" 
d="M199 1020v0q-25 0 -31.5 -5.5t-4.5 -15.5q-3 -4 -3 -6.5t5 -3.5q1 -4 -0.5 -13.5t-13.5 -21.5t-42 -24q-8 -4 -15 -10t-9 -11q-1 -6 4 -7.5t13 1.5q43 17 66 34t31 32t8.5 26.5t-1.5 16.5v1q1 7 -7 7z" />
    <glyph glyph-name="parenleft" unicode="(" horiz-adv-x="758" 
d="M794 1600v0q-5 0 -103.5 -106.5t-230.5 -323.5t-239 -547.5t-130 -778.5q0 -8 8 -8t20 7q13 8 21.5 18.5t8.5 18.5q22 438 123.5 759t226.5 529t218 309.5t98 101.5q12 11 16.5 20.5t0.5 14.5q-5 4 -15.5 0t-22.5 -14z" />
    <glyph glyph-name="parenright" unicode=")" horiz-adv-x="758" 
d="M-16 -137v0q5 0 103.5 107t230.5 323.5t239 547t130 778.5q0 8 -8 8.5t-20 -7.5q-13 -8 -21.5 -18.5t-8.5 -18.5q-22 -438 -123.5 -758.5t-226.5 -529t-218 -310t-98 -101.5q-12 -11 -16.5 -20.5t-0.5 -14.5q5 -4 15.5 0t22.5 14z" />
    <glyph glyph-name="asterisk" unicode="*" horiz-adv-x="949" 
d="M350 1511v0l122 -136l-137 8q-9 0 -20.5 -7t-20.5 -18t-9.5 -19t7.5 -9l201 -11l-252 -180q-12 -9 -19 -19.5t-6 -17.5q2 -6 11 -5t22 10l259 186l-35 -186q-2 -9 5 -10t19 5q13 7 22 17.5t11 19.5l27 140l139 -155q4 -4 14.5 -0.5t22.5 12.5q12 11 16.5 20.5t1.5 14.5
l-125 140l155 -9q8 0 20 7t21 18t9.5 19t-7.5 8l-213 13l150 107q12 9 19.5 19.5t5.5 17.5q-1 6 -10.5 5t-21.5 -10l-178 -127l38 195q1 9 -6 10.5t-19 -5.5t-21.5 -17t-11.5 -19l-24 -127l-127 142q-5 5 -15.5 1.5t-21.5 -13.5q-12 -10 -17 -20t-1 -15z" />
    <glyph glyph-name="plus" unicode="+" 
d="M502 769q-59 1 -113.5 1.5t-84.5 -2.5q-63 4 -76.5 -12t58.5 -22q89 -2 204 -1h9l-122 -342q-5 -19 20 -10q12 6 22 16t14 19l107 317q85 1 156 3q92 3 114 5q9 1 20.5 8.5t20.5 18.5q8 11 8 18.5t-9 7.5l-2 -1q-10 -3 -71.5 -12.5t-160.5 -12.5q-26 -1 -64 0l29 85
l88 225q5 19 -20 10q-12 -6 -22 -16t-14 -20l-101 -283h-10z" />
    <glyph glyph-name="comma" unicode="," horiz-adv-x="628" 
d="M304 358v0q-37 0 -46 -8t-6 -23q-5 -5 -5 -8.5t7 -5.5q2 -6 0 -20t-19.5 -31t-61.5 -35q-13 -5 -23 -14t-12 -17q-2 -9 5 -11t20 3q63 25 96 50t45 46.5t12.5 38t-1.5 24.5v1q1 10 -11 10z" />
    <glyph glyph-name="hyphen" unicode="-" horiz-adv-x="670" 
d="M137 741v0h354q8 0 20 7.5t21 19.5q8 11 8 18.5t-8 7.5h-354q-9 0 -20.5 -7.5t-20.5 -18.5q-9 -12 -9 -19.5t9 -7.5z" />
    <glyph glyph-name="hyphen" unicode="&#xad;" horiz-adv-x="670" 
d="M137 741v0h354q8 0 20 7.5t21 19.5q8 11 8 18.5t-8 7.5h-354q-9 0 -20.5 -7.5t-20.5 -18.5q-9 -12 -9 -19.5t9 -7.5z" />
    <glyph glyph-name="period" unicode="." horiz-adv-x="613" 
d="M239 312v0q3 -17 -7 -29.5t-23 -17t-21 2.5q-11 12 -12.5 34t15.5 34q18 10 32 7t14 -12q-1 -6 -0.5 -10t1.5 -6.5z" />
    <glyph glyph-name="slash" unicode="/" horiz-adv-x="569" 
d="M481 1441v0l-476 -1376q-2 -7 3 -8t15 4t18 12.5t11 15.5l476 1375q2 7 -3 8.5t-15 -3.5t-18.5 -13t-10.5 -15z" />
    <glyph glyph-name="zero" unicode="0" horiz-adv-x="1127" 
d="M1017 1278v0q1 0 9 18.5t15.5 48.5t4.5 65t-25 69.5t-71 61.5q-8 5 -18 8v0v0q-131 38 -360 -128q-221 -160 -402 -480q-64 -117 -110 -254q-96 -314 8 -506q50 -94 133 -141q84 -47 192 -34q211 20 440 307q163 222 227 408t67 323.5t-17 213.5t-23 77q-2 5 -10 4
t-18 -7q-9 -6 -14 -13.5t-3 -12.5q3 -1 22.5 -75t17 -208t-64.5 -314.5t-221 -396.5q-201 -252 -379 -269q-97 -12 -176 32q-80 45 -128 136q-101 187 -8 492q45 133 107 247q172 304 377 452q195 142 306 111v0q8 -3 15 -7q45 -25 65.5 -56t24 -62.5t-3 -58.5t-13.5 -43
t-8 -17q-7 -16 11 -14q9 2 17.5 8.5t13.5 14.5z" />
    <glyph glyph-name="one" unicode="1" horiz-adv-x="789" 
d="M63 932v0q10 0 75.5 33.5t166.5 107.5q112 82 253 223q204 212 242 275q3 -17 -16 -57q-17 -36 -120.5 -248.5t-235.5 -483.5t-235 -483t-121 -248l-1 -3q-6 -16 13 -13q9 3 17.5 9.5t12.5 14.5q1 1 23 46q67 138 222 456.5t297.5 611.5t170.5 352q10 20 14.5 35.5
t5 26.5t-1.5 18.5t-5.5 12t-7 6.5t-6 3l-2.5 1v0q-6 1 -15 -3q-10 -4 -17.5 -11t-8.5 -14l-1.5 -3.5t-7 -12.5t-16 -23.5t-28.5 -37t-45.5 -53.5t-66 -72.5t-89.5 -93.5q-135 -135 -241 -213q-86 -64 -137.5 -93t-57.5 -29q-8 0 -17.5 -5t-15.5 -13t-5 -13.5t8 -5.5z" />
    <glyph glyph-name="two" unicode="2" horiz-adv-x="1082" 
d="M158 822v0l3 -13t9.5 -32.5t17 -38.5t24.5 -32l7 -6q11 -13 19.5 -19t10.5 -7q5 -3 13.5 -0.5t17.5 8.5q9 8 12 15t-1 11l-30 26q-25 25 -36 86.5t23 169.5q70 166 287 343q114 92 225 155.5t186 75.5q51 6 93 -16q47 -25 67 -86t-4 -155q-38 -186 -326 -488
q-377 -384 -546.5 -574.5t-167.5 -190.5q-6 -8 -5.5 -13.5t7.5 -5.5q9 -1 20 6v0q1 2 46 23.5t118 34t158 -10.5q136 -42 240 -57q121 -18 173 51q10 17 -6 17q-9 -1 -18 -7t-15 -13q-18 -22 -101 -11q-101 14 -236 57q-93 25 -175 10t-135 -40q106 134 672 716
q302 318 343 514q25 100 4 165q-21 66 -73 93q-48 26 -109 18q-86 -14 -209 -83t-246 -170q-236 -190 -312 -373q-25 -75 -26 -128q-9 -5 -14.5 -12t-4.5 -13z" />
    <glyph glyph-name="three" unicode="3" 
d="M276 872v0q0 1 7 57t45.5 145t127.5 193q131 143 272 213q158 79 256 59q20 -5 35 -20q30 -28 38 -84q8 -57 -8 -128q-29 -134 -145 -264q-41 -42 -72.5 -73.5t-55.5 -54.5t-41.5 -38t-29 -24t-18 -13.5t-9.5 -5.5l-3 -1q-10 -3 -18 -10t-11 -15q-4 -11 7 -11
q7 0 34.5 -9.5t56.5 -37t41 -82.5v0q7 -48 -31 -145t-111 -208q-70 -106 -161.5 -188.5t-193.5 -104.5v0l-1 -1h-1q-87 -15 -138 12q-53 28 -73 84t-11 125q18 130 116 235q8 7 9 13.5t-5 8.5q-7 1 -16 -3t-17 -12q-113 -120 -133 -263q-10 -74 11 -133q22 -60 79 -90
q58 -30 156 -14l2 1h1v0v0q123 27 229.5 120.5t185.5 214.5q77 116 117 219.5t32 154.5v0v0q-15 67 -52.5 97t-68.5 37q59 39 224 209q130 144 161 288q17 76 8 136q-8 59 -41 91q-18 18 -43 24q-104 26 -278 -60q-165 -83 -318 -245q-96 -112 -137 -207.5t-48.5 -155
l-7.5 -59.5q0 -6 6.5 -7t16.5 4t16.5 12.5t6.5 13.5z" />
    <glyph glyph-name="four" unicode="4" 
d="M611 568q-104 -220 -172.5 -367t-71.5 -154q-6 -16 13 -12q10 3 18.5 9.5t11.5 14.5l3 4q27 56 163 342q80 168 163 349q23 -9 38 -18q25 -15 25 -17q5 -3 13.5 -0.5t17.5 9.5t12 14t-1 11q-2 3 -31 25q-20 14 -51 28q46 101 93 206q52 109 91 189q71 145 103.5 215.5
t34.5 95.5q0 7 -2.5 17t-6.5 19t-8 13.5t-6 0.5q-33 -54 -101 -225q-53 -130 -137 -325q-47 -97 -93 -193h-2q-56 20 -136 18q-104 -9 -231 -49q-26 -7 -52 -15q-76 -21 -137.5 -51t-91.5 -56q-9 -7 -13.5 -8t-6 2t-0.5 7l550 897q8 17 -9 16q-9 -2 -18 -8t-14 -14
l-552 -902q-3 -4 -3 -8q-1 -1 -1.5 -7t0.5 -13t5.5 -12.5t14 -5t26.5 10t43 31.5q49 36 191 75q155 43 282 51q76 2 127 -12q1 0 2 -1q-47 -99 -93 -197z" />
    <glyph glyph-name="five" unicode="5" horiz-adv-x="1172" 
d="M1199 1442v0q1 0 4.5 12t4.5 30t-5 37.5t-24.5 35t-54.5 23.5q-47 8 -150 0.5t-219 -22t-200.5 -27t-94.5 -14.5h-1q-8 -1 -17 -7.5t-14 -13.5l-2 -4l-267 -589q-5 -14 11 -12v0v0q9 3 103 13.5t219.5 1.5t230.5 -64q40 -24 67 -59q60 -83 54 -202t-71 -234
q-51 -91 -136 -156q-115 -84 -246 -97q-98 -10 -175 21q-79 32 -113 106q-24 53 -15 129q1 7 -5 8.5t-16 -3.5q-9 -4 -16.5 -11.5t-8.5 -13.5q-10 -81 16 -138q36 -79 119 -112q83 -34 189 -23q150 15 289 116q101 78 160 182q141 256 73.5 394t-258 178.5t-420.5 2.5
l250 554q59 9 189 26.5t258 29.5t182 3q31 -6 47 -19.5t21.5 -29.5t4.5 -30.5t-3.5 -24.5t-3.5 -10q-5 -15 15 -11q9 3 17.5 9.5t11.5 14.5z" />
    <glyph glyph-name="six" unicode="6" horiz-adv-x="981" 
d="M971 1580v0q-3 3 -81.5 0.5t-201 -46t-257.5 -163.5t-250 -352q-60 -125 -98 -232q0 -1 -1 -2q-94 -276 -65 -443q20 -116 81 -190.5t151 -115.5q62 -29 134 -22q128 13 252 110q122 94 193 239q65 132 54 284q-18 169 -121 260q-57 53 -132 77t-160 16
q-164 -13 -322 -148q32 84 77 178q105 212 227 321.5t232.5 149.5t181 42.5t73.5 -0.5q7 -1 16.5 4t16.5 13t7 13.5t-7 6.5zM126 796v0q152 155 317 167q79 7 149 -16q71 -23 126 -73q100 -89 117 -252q11 -146 -50 -270q-64 -130 -168 -211q-101 -79 -208 -90
q-65 -6 -121 20q-87 40 -146.5 112t-77.5 185q-29 161 62 428z" />
    <glyph glyph-name="seven" unicode="7" horiz-adv-x="981" 
d="M284 1579v0l-70 -31q-9 -5 -16.5 -12.5t-8.5 -13.5q0 -6 4 -8q7 -10 135.5 -42t377.5 -4q328 47 413 67q-101 -81 -306.5 -284.5t-390.5 -473.5q-212 -329 -306.5 -527t-92.5 -204q-3 -7 1.5 -10t13.5 0q10 3 18 10t11 14q-1 6 92 201.5t302 520.5q146 214 311.5 388
t285 278t125.5 107v0q8 7 12 14q6 16 -12 13l-1 -1t-106 -21.5t-346 -54.5q-192 -23 -310 -5t-162 38l22 10q10 5 17 12t8 14t-5 8t-16 -3z" />
    <glyph glyph-name="eight" unicode="8" horiz-adv-x="1093" 
d="M1037 1278v0q139 70 226.5 108.5t90.5 38.5q10 5 17.5 12t9.5 14q1 7 -4.5 9t-14.5 -2q-4 -1 -90.5 -39t-225.5 -108q16 57 10 146t-89 142q-129 61 -307 -2q-171 -61 -267 -215q-63 -115 -8 -196.5t178 -163.5q-146 -103 -267 -222t-192 -250q-111 -218 -91 -347
q12 -83 66 -128q55 -44 141 -49q166 -8 390 129q148 94 223 201q90 128 92 253q2 123 -62 224q-46 73 -118 125q-48 34 -91 64l-24 17q189 126 363 216q5 -4 16 -1q9 4 17 10.5t11 13.5zM999 1287v0q-187 -96 -391 -233q-120 79 -175 156t1 181q78 124 216 173
q159 55 277 -1q55 -32 72 -85t13 -106.5t-13 -84.5zM613 987v0q46 -31 91 -64q69 -50 114 -121q62 -98 60 -216q-1 -116 -83 -233q-65 -92 -194 -174q-201 -123 -350 -115q-79 4 -129 45q-51 41 -62 120q-20 122 86 330q67 124 183 237t255 211z" />
    <glyph glyph-name="nine" unicode="9" horiz-adv-x="1139" 
d="M1040 890v0q-8 -7 -19 -15q124 278 108 442q-10 118 -66 182q-57 64 -139 80q-117 20 -236 -44q-184 -107 -252 -251q-51 -106 -50 -209q2 -101 44 -179q40 -71 106 -105q125 -57 249 -35q92 16 166 51q-33 -64 -74 -135q-134 -227 -252 -364t-216 -199
q-101 -64 -176 -65h-1q-77 -1 -121 44q-33 33 -45 82q-1 6 -8.5 5.5t-17.5 -5.5q-10 -6 -15.5 -13.5t-4.5 -13.5q12 -52 48 -88q49 -49 136 -48h1q91 1 215 79q107 68 232.5 212.5t265.5 381.5q48 81 83 154q38 22 61 41q9 8 11.5 15t-1.5 10q-5 3 -14 0t-18 -10zM808 793v0
q-115 -20 -233 33q-62 32 -100 101q-41 74 -42 172q-2 97 46 195q58 124 213 214q96 51 197 34q77 -14 130 -75q54 -62 64 -175q16 -164 -114 -447q-67 -36 -161 -52z" />
    <glyph glyph-name="colon" unicode=":" horiz-adv-x="557" 
d="M337 642v0q14 -7 18.5 -21.5t1 -27.5t-13.5 -15q-16 -2 -33.5 9t-17.5 31q2 19 12 28.5t17 3.5q4 -4 8 -5.5t6 -2zM275 377v0q14 -7 18 -21.5t0.5 -27t-13.5 -14.5q-15 -2 -33 9t-18 30q3 20 13 29.5t17 3.5q4 -4 7.5 -6t6 -2.5z" />
    <glyph glyph-name="semicolon" unicode=";" horiz-adv-x="557" 
d="M248 638v0q14 -7 18 -21t0.5 -26.5t-12.5 -14.5q-16 -2 -33.5 9t-17.5 30q3 19 13 28t16 4q4 -4 7.5 -6t6 -2.5zM239 401v0q-27 0 -34 -5.5t-5 -17.5q-3 -3 -3 -6t5 -4q1 -5 -0.5 -15t-14 -22.5t-45.5 -25.5q-9 -4 -16.5 -10.5t-9.5 -12.5q-1 -6 4 -8t15 2
q46 18 70.5 36.5t33.5 34.5t9 28t-2 18v1q2 7 -7 7z" />
    <glyph glyph-name="semicolon" unicode="&#x37e;" horiz-adv-x="557" 
d="M248 638v0q14 -7 18 -21t0.5 -26.5t-12.5 -14.5q-16 -2 -33.5 9t-17.5 30q3 19 13 28t16 4q4 -4 7.5 -6t6 -2.5zM239 401v0q-27 0 -34 -5.5t-5 -17.5q-3 -3 -3 -6t5 -4q1 -5 -0.5 -15t-14 -22.5t-45.5 -25.5q-9 -4 -16.5 -10.5t-9.5 -12.5q-1 -6 4 -8t15 2
q46 18 70.5 36.5t33.5 34.5t9 28t-2 18v1q2 7 -7 7z" />
    <glyph glyph-name="less" unicode="&#x3c;" 
d="M818 802v0l-491 -309q-7 -4 -16 -9q-15 -6 -28.5 -17t-15 -32.5t19.5 -60.5q20 -34 68 -108t92 -140.5t53 -78.5v-1q4 -5 14.5 -2t21.5 12q12 10 3.5 22.5t-11.5 18.5l-1 1q-9 13 -50.5 72t-84.5 128.5t-63 104.5q-3 5 -5 21.5t8.5 24.5t14.5 11l472 306q12 8 20 18.5
t9 18.5q-1 8 -9.5 7.5t-20.5 -8.5z" />
    <glyph glyph-name="equal" unicode="=" 
d="M258 810v0h439q9 0 21 7.5t21 18.5q8 11 8 18.5t-8 7.5h-440q-8 0 -20 -7.5t-21 -18.5t-9 -18.5t9 -7.5zM156 583v0h439q9 0 20.5 7.5t20.5 18.5t9 18.5t-9 7.5h-439q-9 0 -20.5 -7.5t-20.5 -18.5t-9 -18.5t9 -7.5z" />
    <glyph glyph-name="greater" unicode="&#x3e;" 
d="M388 759v0q2 -1 29 -18t75 -54t86 -76t39 -70q-4 -30 -74.5 -108t-154.5 -157.5t-148 -136t-68 -59.5q-11 -10 -16 -20t-1 -15q4 -4 14.5 -0.5t22.5 13.5q4 3 73.5 65t161 150t161.5 168.5t74 119.5q-1 35 -39.5 77t-89.5 81t-90 64t-41 26q-6 3 -17 -1.5t-23 -15.5
q-10 -11 5.5 -20t20.5 -13z" />
    <glyph glyph-name="question" unicode="?" horiz-adv-x="748" 
d="M235 1284v0q1 2 28.5 37t73 70.5t117.5 63.5t135 33q38 -6 72 -25q29 -20 37 -49t1 -64q-21 -85 -92 -169q-22 -33 -73 -94q-97 -111 -223.5 -297t-207.5 -438q-3 -17 19 -7q10 5 18.5 14t11.5 17q79 243 200.5 422.5t215.5 286.5q54 65 80 103q60 76 82 179q8 40 -1 73
q-9 34 -42 55q-23 16 -62 24q-71 11 -144.5 -21t-136 -80t-100.5 -87t-40 -41q-8 -10 -9.5 -17t5.5 -9q6 -1 16 4.5t19 15.5zM103 243v0q17 -9 22 -26t0.5 -32.5t-15.5 -18.5q-19 -2 -40.5 11.5t-21.5 36.5q3 23 15 34.5t20 4.5q5 -5 9.5 -7t7.5 -2.5z" />
    <glyph glyph-name="at" unicode="@" horiz-adv-x="1180" 
d="M732 575v0q0 61 -26 93q-19 24 -48 29q-31 5 -72 -15l-2 -1q-82 -40 -165 -179q-45 -83 -31 -129q6 -24 24 -37q19 -14 45 -15q63 -3 139 63q48 43 65 46q4 1 7 -1t3 -8v0q1 -14 -14 -41q-23 -40 -18 -65q2 -12 11 -18h1q9 -6 25 -3q41 5 109 73q64 68 95 191
q17 72 7 143q-10 70 -58 120q-38 38 -104 54q-51 11 -105 2q-148 -29 -273 -164q-120 -128 -161 -297q-21 -90 -7 -181q17 -94 62 -151q54 -68 136 -81q84 -13 184 32q133 60 260 217q8 10 8 16t-7 6q-8 0 -17.5 -6t-17.5 -16q-106 -130 -213 -178q-85 -39 -159 -27
q-77 12 -128 76q-43 55 -59 146q-14 87 6 173q38 153 141 263q97 105 216 128q48 9 94 -2q63 -14 98 -50q46 -47 55 -114t-7 -135q-26 -106 -71 -155q-38 -38 -55 -40q-6 -1 -11 2v0q-5 4 -6 11q-3 15 11 42q22 39 21 62v0v0q0 12 -8 17q-9 6 -26 2q-36 -8 -109 -73
q-43 -37 -84 -35q-21 1 -36 12t-21 31q-11 38 26 106q62 106 112 130l2 1q23 11 44 8q24 -4 39 -24q23 -29 23 -85q0 -7 7.5 -7t17.5 7q10 6 17.5 15t7.5 16zM694 339v0l-11 -28q9 9 12 17t-1 11z" />
    <glyph glyph-name="A" unicode="A" horiz-adv-x="1343" 
d="M-310 -241q-2 -2 -4 -2q-1 0 -3 1q-4 2 -7 6q-2 3 -4 4q-2 2 -2 4v2q1 4 5 8l914 957l34 36l28 28l-452 -15q-10 0 -16.5 -4t-10 -8.5t-4.5 -5.5q-2 -5 -7 -6q-2 -1 -4 -1q-3 0 -5 1l-56 16q-7 3 -8 11q0 13 15 16.5t33 3.5q4 0 8 1l526 12l685 716q5 11 16 20
q12 9 23 14q12 5 18 5q4 -1 4 -3t-3 -6q-5 -8 -27 -26q-5 -11 -11 -27q-2 -5 -4 -11q-3 -8 -6 -17q-7 -13 -13 -30q-28 -72 -77 -173q-4 -9 -9 -18l-20 -39q-93 -179 -191 -401l279 4q16 0 22.5 -1.5t7.5 -4.5q2 -1 2 -3l-1 -2v-4.5t-1 -1.5h-3h-3l-311 -5l-3 -6l-17 -40
q-86 -203 -130 -405q-22 -105 -22 -201q0 -91 20 -174q6 -22 7 -24q0 -3 -2 -8q-3 -4 -8 -9q-6 -2 -10 -2t-5 2q-4 13 -7 25q-12 43 -45 102q-32 60 -82 60q-6 0 -6 3v2q0 3 3 7t8 7q5 4 9 4q29 0 52 -21q23 -20 42 -48q-2 29 -2 58q0 130 36 273q44 176 115 350l15 34l4 11
l-312 -6l-26 -28l-34 -38l-108 -118l-673 -675l-65 -110q-28 -28 -53 -44q-26 -16 -50 -27q-2 -2 -4 -3zM725 824l302 4q102 232 198 415q10 22 20 42q26 50 37 75q11 24 20 47q4 7 7 17q1 1 3 5q1 3 4 8l3 6l8 18q6 13 12 22q4 10 4 12q-20 -17 -48 -46q-27 -28 -45 -52z
" />
    <glyph glyph-name="B" unicode="B" horiz-adv-x="993" 
d="M338 1242q0 -4 -4 -8.5t-10 -6.5q-4 -2 -7 -2h-2q-3 1 -3 5l1 12q-38 -45 -116.5 -173.5t-180.5 -352.5q-131 -300 -188 -461.5t-57 -166.5q-1 -5 -5.5 -9t-9.5 -5q-3 -1 -5 -1t-4 1q-1 1 -1 3v3q0 5 57 166q57 164 189 465q11 39 59.5 145t110.5 220.5t102.5 166.5
t58.5 52q11 0 17 -16zM435 722l4 2q187 114 365 272q195 172 198 330q-5 60 -28 104q-36 67 -107 95q-56 22 -129 22q-21 0 -43 -2q-185 -17 -429 -143q-197 -106 -328.5 -227t-197 -208t-65.5 -92q-3 -5 -8 -8t-10 -3h-2q-3 0 -4 2v2q0 3 1 6q1 4 69 94.5t203.5 215.5
t339.5 235q252 130 444 147h9q221 0 292 -96q41 -55 41 -125q0 -52 -23 -112q-55 -139 -210 -261q-156 -139 -326 -241h13q169 0 218 -98q28 -58 28 -129q0 -54 -16 -115q-39 -143 -129 -260q-147 -196 -414 -274q-76 -21 -163 -21q-20 0 -41 1q-161 9 -246 60.5t-118.5 121
t-33.5 105.5v41q0 61 12 103q12 45 18 47q1 4 5.5 8t10.5 6h3q3 0 5 -1q1 -1 1 -3v-3q-2 -2 -10.5 -43.5t-8.5 -98.5v-13q2 -66 34 -133t112.5 -117t231.5 -58q21 -1 41 -1q82 0 155 20q234 75 357 260q63 90 96.5 181t37.5 162q1 11 1 22q0 28 -6 51q-23 74 -68.5 107.5
t-85.5 40.5t-64 7q-9 0 -16 -1q-176 -101 -241 -128q-4 -1 -7 -1h-2q-3 1 -3 4v1q0 5 4 9t10 6q60 25 223 125z" />
    <glyph glyph-name="C" unicode="C" horiz-adv-x="1453" 
d="M569 912h-3q-2 0 -4 1t-2 3q0 1 1 3q1 5 6 8.5t10 5.5q6 0 113 31t247.5 93t249.5 154t109 215q0 70 -44 110q-56 51 -161 51h-4q-109 -1 -248 -58q-184 -75 -367 -252.5t-328 -462.5q-124 -263 -124 -459q0 -91 26 -167q42 -110 134.5 -158t181.5 -48q23 0 47 3
q157 18 356.5 152.5t443.5 415.5q4 5 9 7t8 2h2q4 -1 4 -5t-4 -8q-253 -290 -468.5 -433t-381.5 -163q-32 -4 -62 -4q-103 0 -178 46q-96 59 -137 178q-27 78 -27 171q0 199 126 467q151 293 349.5 476t390.5 261q56 24 139 44.5t166 20.5t140 -37t57 -131
q0 -106 -78.5 -191t-193 -149t-228.5 -107t-191.5 -64.5t-81.5 -21.5z" />
    <glyph glyph-name="D" unicode="D" horiz-adv-x="1267" 
d="M-169 899q-1 -4 -5.5 -8.5t-9.5 -6.5q-2 -1 -4 -1t-4 1t-2 4v2v0q0 5 21.5 67.5t81 159.5t169.5 199.5t285 183.5q86 38 179.5 63t165.5 26q260 -35 367 -202q104 -161 104 -392v-17q-3 -163 -71 -331t-165 -316q-222 -320 -468 -361q-31 -5 -60 -5q-49 0 -103 19.5
t-82 101.5q-7 35 -7 67q0 96 73.5 187.5t184.5 155.5q6 3 10 3t4 -4q1 -1 1 -2q0 -2 -3 -6t-9 -8q-182 -118 -215 -251q-9 -36 -9 -68q0 -24 5 -47q14 -52 56 -85q46 -37 121 -37q20 0 43 3q223 41 429 347q199 312 213 653q-1 161 -56 284q-57 128 -163 199
q-107 72 -253 73h-4q-132 0 -291 -69q-166 -77 -270.5 -175t-161 -190.5t-77.5 -153.5q-20 -57 -20 -63v0zM525 1290q0 -7 -4.5 -11t-10.5 -4q-7 0 -11 4.5t-4 10.5v4q-9 -18 -24 -40q-20 -30 -41 -72q-108 -211 -218 -503q-92 -247 -92 -423q0 -32 3 -62v-2q0 -5 -3 -9.5
t-10 -5.5q-6 0 -11 3.5t-6 9.5v28q0 170 99.5 455t203.5 506l18 45q16 42 36.5 83t50.5 63q5 2 9 2q2 0 5.5 -0.5t6.5 -6.5q2 -2 2 -4q1 -3 1.5 -14t0 -24.5t-0.5 -23v-9.5z" />
    <glyph glyph-name="E" unicode="E" horiz-adv-x="1190" 
d="M824 1457q3 5 8 8.5t10 3.5h2q3 0 7 -1q7 -1 11 -3t4 -5v-2l-16 -40q149 50 229 55.5t95 5.5q123 0 199 -68q2 -1 2 -3v-2q-1 -4 -5 -9t-7.5 -6.5t-5.5 -1.5t-4 1q-86 38 -193 38q-27 0 -55 -2q-141 -12 -277 -52q-12 -24 -30 -52q-114 -168 -291 -603q12 3 24 7
q54 23 148.5 53t173.5 47t122 17q17 0 31 -2q27 -4 27 -21q0 -14 -17 -36q-2 -1 -4 -3q-4 -3 -8 -6.5t-7 -4.5t-4 -1h-1q-28 23 -85 23q-39 0 -92 -11q-129 -26 -265 -69q-13 -4 -27 -8q-13 -3 -24 -6q-14 -37 -29 -75q1 -4 1 -7q0 -7 -3 -13q-4 -10 -9 -16.5t-6 -7.5
q-91 -244 -184 -552q100 16 214 34q163 27 237 31t88 4q106 0 131 -47q3 -1 2.5 -5t-4.5 -8q-4 -5 -8.5 -7t-6.5 -2h-2q-62 18 -167 18q-54 0 -120 -5q-194 -14 -372 -40l-6 -20q-1 -4 -5.5 -8.5t-9.5 -6.5h-3q-3 0 -5 1q-1 1 -1 3v3l7 25q-88 -13 -144 -22t-61 -10h-3
q-2 0 -4 2q-1 1 -1 3t1 4q3 5 7.5 8.5t9.5 4.5q5 3 60 12.5t143 24.5q96 318 193 573v3q0 11 -11 21q-12 12 -51 18q-10 2 -13 5q-2 3 -2 6q0 17 55 38q26 11 66 23q187 462 287 645q-119 -39 -195.5 -72t-79.5 -35q-4 -2 -7 -2h-2q-3 1 -3 5q1 5 4.5 9t8.5 7q6 5 89 44.5
t207 85.5q30 56 32 59zM456 643l20 50q-4 -1 -6 -2q-26 -4 -46 -12q-11 -4 -17 -9t-6 -8v-1q1 -1 6 -2q36 -5 49 -16z" />
    <glyph glyph-name="F" unicode="F" horiz-adv-x="830" 
d="M634 1533l-19 -55q141 4 254 4h44q256 -3 604 -20q73 -4 155 -7q7 0 11.5 -4.5t4.5 -11.5l-673 11q-175 -4 -416 -15l-209 -583h365q6 0 11 -4.5t5 -10.5q0 -5 -4.5 -5h-8.5h-7q-5 1 -8 1l-323 -2q-14 -3 -25 -9q-5 -2 -17 -4l-337 -938q-2 -6 -6 -8.5t-8 -2.5q-2 0 -5 1
t-3 5v3q1 6 4 14t5 14q2 5 3 7l315 902h-14h-15q-25 0 -41 5t-16 15v2q4 15 13 17t16 2q10 0 23 -2q16 -2 36 -2h10q58 208 58 327v8q-2 120 -38 171t-77 61l-45 -2q-29 0 -38.5 9t-9.5 17q0 4 2 8q5 11 26 11q186 10 340 15l33 95q1 3 1 6v3v2q1 2 5 3.5t12 1.5
q13 -2 15 -8.5t2 -10.5q0 -6 -2 -13q-4 -12 -7 -19zM431 1060l130 373q-99 -5 -208 -11q62 -34 85 -163q5 -30 5 -67q0 -57 -12 -132z" />
    <glyph glyph-name="G" unicode="G" horiz-adv-x="1479" 
d="M795 870v0h-3v0q-8 0 -17 -2.5t-15 -5.5t-4.5 -6t15.5 -6q2 -1 7 -1q10 -2 28 -3q29 -3 81 -2q139 -4 332.5 64t292.5 286q53 130 3 213q-48 64 -144 90q-49 11 -121.5 7t-137.5 -16q-203 -33 -440 -200t-450 -495q-261 -441 -179 -690q34 -113 122 -170q89 -61 221 -55
q161 11 365.5 139.5t428.5 386.5l-163 -428q-151 -61 -215 -97q-21 -11 -23 -12q-6 -3 -9 -7.5t-2 -7.5q2 -3 6 -3t10 3v0q3 4 64 35.5t160 65.5l-41 -108q-2 -5 0.5 -7t7.5 0q6 1 10.5 5t6.5 8l48 111q109 35 233 37.5t240 -56.5q3 -2 8 -0.5t10 6.5q5 4 6 8t-2 6
q-89 85 -222 79t-262 -54l205 479q0 2 -3 5t-7.5 5.5t-6.5 2.5q-3 0 -11.5 -5t-16.5 -11.5t-11 -9.5q-87 -109 -255 -257.5t-359 -232t-346 3.5q-142 97 -160.5 246.5t35.5 305.5t130 274q206 318 434 479.5t422 192.5q123 22 214 -1q90 -23 134 -83q55 -74 12 -192
q-89 -202 -259.5 -265t-300.5 -60q-50 0 -79 2q-13 1 -23 0q0 3 -4 3z" />
    <glyph glyph-name="H" unicode="H" horiz-adv-x="1391" 
d="M1326 1566v0v0q1 0 2.5 3.5t3 9t1 11t-5.5 11.5v0q-11 8 -24.5 -7t-26 -40.5t-21 -47t-10.5 -27.5v0q-18 -41 -35 -89q-16 -45 -41 -109q-62 -153 -134 -344q-375 -94 -615 -166q58 219 98 387q14 49 24 72t17 34q4 7 7 13.5t6 15.5q1 -9 1 -16v-11t-1 -6.5t-1.5 -4
t-1 -2l-0.5 -0.5v0q-1 -4 2.5 -5t8.5 1q6 3 9.5 7.5t4.5 8.5q0 1 1.5 19t2.5 43t0.5 48.5t-5.5 34.5q-2 5 -11 1q-6 -2 -9.5 -6.5t-4.5 -8.5q0 -2 1 -4q-26 -61 -76 -242q-32 -114 -68 -251q-18 -68 -37 -138q-86 -25 -101 -30l-4 -2q-5 -3 -6 -7.5t-1 -8.5v-1l35 -221
q-60 -209 -124.5 -364.5t-128.5 -201.5q-3 -2 -9.5 -10.5t-11 -17.5t-4.5 -12q1 -3 5 -3.5t9 3.5q96 61 191.5 311t173.5 545q156 55 418 121q34 8 69 17q61 15 125 30q-133 -348 -211.5 -672t2.5 -454q2 -1 12 -1.5t20.5 1t14.5 4.5q5 4 7 8.5t0 6.5q-80 127 -11 447.5
t194 665.5q225 56 438 80q75 4 143 -3q40 -4 78 -5q4 0 9 3.5t8 7.5q4 5 3 8.5t-5 3.5q-34 46 -224 20.5t-440 -86.5q69 190 131 343q55 137 92 220q13 30 20 48q1 -1 4 -1q5 0 9.5 3.5t7.5 8.5zM379 730v0q-18 -68 -37 -135l-41 109q20 6 59 19q9 3 19 7z" />
    <glyph glyph-name="I" unicode="I" horiz-adv-x="1051" 
d="M960 1566v0q0 -2 -12 -31q-201 -31 -357.5 -62t-176.5 -35l-1 -1q-6 -1 -11 -5t-8 -9q-2 -5 0.5 -7.5t7.5 -1.5q4 1 81 16t198 35.5t255 39.5q-63 -147 -201.5 -464.5t-273.5 -625.5t-188 -429q-91 -13 -178 -20q-101 -8 -177.5 -0.5t-99.5 26.5q-3 2 -8.5 1t-10.5 -6
q-5 -4 -8 -8.5t-6 -13.5q-9 -55 136 -50t338 38l-2 -4q-2 -5 0.5 -7.5t7.5 -1.5q6 2 11 6t8 9l1 1q0 1 2 2q160 28 279 53.5t133 30.5q6 1 11 5t8 9q2 5 0 7.5t-8 1.5h-1q-19 -5 -131 -27t-262 -45q9 13 16 29q62 142 189.5 440.5t254 599t186.5 447.5q247 36 381 28
q45 -3 77 -8.5t53 -12.5t33.5 -14.5t18 -15.5t6 -15t-1 -12.5t-3.5 -9l-2 -3.5q-4 -5 -3.5 -8.5t5.5 -3.5q5 -1 10.5 2t9.5 8q6 3 16 15.5t13 30.5t-12 36t-60 30.5t-130 15.5q-139 9 -399 -33q15 37 15 40q0 4 -4 5t-10 -1q-6 -3 -10 -7.5t-5 -9.5z" />
    <glyph glyph-name="J" unicode="J" horiz-adv-x="788" 
d="M-44 1326v0q210 58 349 110q162 62 411 122q3 0 9 2q19 4 62 13.5t97 20.5q-23 -76 -112 -328.5t-224 -582.5t-297 -638t-332.5 -496t-329.5 -157q-183 53 -159.5 200t158.5 323.5t286.5 319t225.5 187.5q20 12 29.5 23.5t12 20t2 14t-1.5 6.5v0q2 3 -0.5 7t-7 8t-7.5 6
q-1 1 -1 2q-3 2 -7.5 0.5t-9.5 -5.5q-7 -5 -114.5 -108.5t-247.5 -260.5t-245.5 -322.5t-108 -294.5t165.5 -177q177 -33 364 178t363 549.5t317.5 688t226 592.5t89.5 263v5t-1 8.5t-3.5 7.5t-6.5 2q-2 3 -6.5 2t-9.5 -5l-946 -265q-5 -1 -9.5 -5t-7.5 -9q-1 -3 4.5 -9.5
t12 -12t10.5 -5.5z" />
    <glyph glyph-name="K" unicode="K" horiz-adv-x="1206" 
d="M90 28v0l249 677q17 11 70 48q71 50 155 105q12 -5 23.5 -70.5t5.5 -232.5q-1 -7 -1 -15q0 -102 48.5 -236.5t123.5 -252.5q75 -116 157 -193t156 -83h6q2 0 5.5 4.5t7.5 10t6 9.5q2 3 3 4q3 5 2 8.5t-5 3.5h-5q-72 4 -159 72t-162 182q-74 116 -121.5 247t-47.5 231v15
q3 64 6 115q14 199 -6 219q200 117 408 277t315 338q3 3 4.5 7.5t1.5 8.5t-2 4q-4 3 -9.5 3.5t-11 -1t-8.5 -4.5q-5 -9 -9 -23q-3 -15 -10 -24q-146 -168 -359 -332t-387 -276q-1 -1 -3 -2q-128 -85 -179 -115l234 674l74 121q-7 13 -16.5 22.5t-22.5 6t-32 -30.5l-20 -54
l-164 -491l-268 -730l-90 -260q-1 -3 3 -3.5t9 0.5t9 2q5 1 9.5 5t6.5 9z" />
    <glyph glyph-name="L" unicode="L" horiz-adv-x="1036" 
d="M213 1266v0q3 -4 89.5 -36.5t222.5 -46t288 39.5q-79 -137 -160 -311q-148 -321 -266.5 -509t-200.5 -276q-65 -11 -101.5 -33t-52.5 -46.5t-19 -43t-2 -21.5q1 -2 7 -3.5t12.5 -1t10.5 1.5q1 -1 39.5 26t109.5 103q82 13 250 -13.5t449 -116.5q199 -64 352 -94.5
t265.5 -35.5t190 7.5t126.5 34.5t75.5 45.5t36.5 39.5t10 17q1 4 -1 6.5t-6 1.5q-6 -1 -10.5 -5t-6.5 -9q-1 -8 -61.5 -41t-184 -55.5t-314 0.5t-451.5 127q-268 85 -438.5 105t-263.5 7q86 94 212 280t272 499q15 32 29 64q65 149 130 266q142 56 265 224q129 170 150 234
q4 21 -12.5 27t-34.5 2q-29 -10 -84 -63q-119 -106 -307 -416q-228 -81 -400 -33q-51 13 -95 35.5t-73 42t-35 23.5v1q-4 1 -9 -1t-9 -6q-3 -4 -2 -13.5t3.5 -18.5t4.5 -11zM866 1264v0q174 291 282 389q43 41 62 45q15 4 10 -22q-10 -53 -123 -211q-106 -146 -231 -201z
M66 14v0v1q-2 12 2.5 29t26 33.5t71.5 27.5q-41 -44 -64.5 -64t-35.5 -27z" />
    <glyph glyph-name="M" unicode="M" horiz-adv-x="1620" 
d="M744 1578v0h-1q-3 -4 -53 -72q-24 -14 -64 -15q-5 -1 -10.5 -3.5t-8.5 -7.5q-3 -4 -1.5 -7t6.5 -3q34 1 59 9q-12 -16 -26 -35q-167 -213 -403 -641q-167 -333 -227 -489.5t-58 -160.5v0q-1 -5 1.5 -6.5t8.5 -0.5q5 1 9.5 4t6.5 7v0q3 6 76 135t186.5 314.5t236.5 361
t226 275.5q95 90 142 102v0q25 7 37 -10q14 -19 11 -66q-8 -137 -153 -472q-60 -139 -44 -142q17 -5 57 43.5t100 131.5q122 174 284.5 370.5t294.5 253.5q80 26 95 -25q24 -97 -82 -348.5t-259 -562.5q-77 -159 -148 -311q-142 -311 -193.5 -510.5t-55 -296t0.5 -96.5
q0 -3 4.5 -3.5t10.5 1.5q5 3 8.5 7t3.5 7q-3 0 0 95.5t54.5 293.5t191.5 506q73 155 148 311q70 143 140 281q118 229 194.5 404.5t56.5 249.5q-14 32 -74.5 45t-118.5 -14q-123 -63 -261 -232.5t-257 -340.5q-32 -45 -61 -84l-21 -28t-15.5 -20t-11.5 -14t-8 -9t-5 -4.5
t-3 -2t-2 0l-1 0.5v0q-1 1 -1.5 0.5t-1.5 -0.5h-2t-1 1.5t1 6t4 12.5t8 20.5t13 30.5q21 49 41 93q126 271 139 385q-5 67 -41.5 75.5t-85.5 -16.5t-91.5 -59.5t-59.5 -53.5q-157 -158 -342.5 -446t-303.5 -496q66 154 239 497q266 490 422 690q25 17 38.5 35.5t19 33.5
t5.5 18q1 6 -5 6q-4 0 -8 -1v0v0v0v0v0h-1v0v-1v0h-1v0v0v0v0v0h-1v0v0v0v-1v0h-1v0v0v0v0v0h-1v0v-1v0v0v0h-1v0v0v0v0v0v-1v0h-1v0v0l-1 -1v0v0v0v0h-1v-1v0v0v0h-1v0v-1v0v0v0q-1 0 -1 -1v0v0v0v0v0z" />
    <glyph glyph-name="N" unicode="N" horiz-adv-x="1217" 
d="M561 1404v0q-77 -90 -158 -209t-142 -233q-117 -234 -214 -527q-1 -2 -1.5 -6t1 -7.5t5.5 -5.5q6 -4 12.5 -3t9.5 5q1 1 5 10q5 13 13.5 30t15.5 26q71 92 261 314.5t413 438.5t393 290q110 40 125 -10q19 -69 -62 -238t-199 -378q-96 -172 -179 -334
q-116 -240 -188.5 -481.5t-105.5 -408.5t-33 -168q-1 -4 2.5 -5.5t9.5 0.5q5 2 9.5 6t5.5 8q0 1 39 166t116.5 404.5t193.5 478.5q63 123 137 254q22 40 44 79q46 83 93 163q98 164 159 296t30 203q-14 29 -75 28t-132 -28q-156 -64 -370.5 -274t-408 -438t-287.5 -348
q-4 -5 -7 -10q84 239 187 433q105 198 277 439q4 5 13 10t20 10q12 5 21.5 10t13.5 10q1 3 -2.5 11.5t-9 15.5t-8.5 8q-4 -1 -13.5 -8t-18 -15t-11.5 -12z" />
    <glyph glyph-name="O" unicode="O" horiz-adv-x="1386" 
d="M1211 1315v0q39 -135 -17 -356t-193 -451q-107 -179 -253 -316t-333 -202q-149 -44 -245 10q-69 53 -97.5 200.5t-12.5 253.5q22 221 117.5 445.5t272.5 399.5q256 237 471 261q123 16 215 -30t137 -145q60 -133 11 -343q-1 -4 2 -5.5t8 -0.5q5 2 9.5 6.5t5.5 8.5
q66 258 -19 413.5t-364 124.5q-224 -29 -489 -281q-184 -182 -294 -423.5t-135 -468.5q-17 -166 19 -289t132 -171q90 -46 238 1q397 142 625 519q166 233 219.5 473.5t-5.5 382.5q-1 3 -5 3t-10 -4q-5 -3 -7.5 -7.5t-2.5 -8.5z" />
    <glyph glyph-name="P" unicode="P" horiz-adv-x="1066" 
d="M676 1441v0l10 134q0 23 -14.5 22t-32 -17t-24.5 -38l-192 -510q-146 -197 -246 -423q-33 24 -60 59q-3 3 -8 2t-10 -5q-6 -4 -8 -8.5t0 -7.5q32 -42 73 -69q-112 -210 -163 -389t-46 -217q-2 -9 9 -7q5 1 10 5t8 9l250 566q47 -17 99 -21q319 9 557.5 180t352.5 380.5
t60.5 336.5t-317.5 48q-175 -62 -420 -283q-47 -42 -90 -92l166 350l8 -17q0 -4 3.5 -5t9.5 1q6 3 10 7.5t5 8.5zM447 1035v0q62 80 132 144q236 213 400 271q172 59 236.5 2.5t47.5 -210.5q-8 -108 -110.5 -242t-234.5 -237q-137 -102 -290 -162q-149 -62 -279 -52
q-56 4 -106 23zM21 123v0q49 177 162 446q14 -8 29 -14zM223 581v0q-14 7 -28 16q80 183 191 352z" />
    <glyph glyph-name="Q" unicode="Q" horiz-adv-x="1298" 
d="M200 71v0q-1 0 1 0q13 2 91.5 5.5t192.5 -9t233 -58.5q119 -38 201 -36.5t125 17t46 18.5v1q5 2 9 6.5t5 8.5q0 4 -3 5.5t-8 -0.5q0 -10 -50 -25t-140 -10.5t-211 55.5q-53 19 -95.5 30t-92.5 16q54 15 114 45q186 96 316 233t191 269q94 224 77 397t-56 226q-1 3 -5.5 3
t-9.5 -4t-8 -8.5t-2 -7.5q26 -62 31 -245t-88 -404q-56 -123 -163.5 -237t-281.5 -203q-195 -93 -324 -35q-177 87 -196.5 318.5t64.5 480.5t218 391q110 114 275.5 189t325.5 19q114 -50 178 -151q65 -105 65 -218q1 -4 4.5 -4.5t8.5 1.5q5 3 9 7.5t4 8.5q0 251 -146 355.5
t-392 41.5q-160 -46 -347 -241q-172 -181 -250 -392.5t-69 -403.5q7 -153 65 -265t163 -158q3 -2 7 -3q-68 -6 -70 -7q-5 -1 -10 -4.5t-8 -8.5q-2 -4 -0.5 -7t6.5 -2z" />
    <glyph glyph-name="R" unicode="R" horiz-adv-x="1069" 
d="M383 1057v0l-226 -412q-23 1 -38 2h-2v0q-14 1 -24 2q-2 2 -2.5 2t0.5 -2q-18 0 -23.5 -4t3.5 -17q2 -4 19 -9q16 -5 45 -15l-393 -717q-3 -5 -1.5 -8.5t6.5 -3.5q4 0 9.5 3t8.5 8l402 705q109 -38 260 -161t261 -373q6 -14 12.5 -16.5t17.5 2.5q6 3 8 12t-1 15
q-4 5 -12.5 21.5t-14.5 36.5t-1.5 36t27.5 19q4 5 4.5 11t-3.5 11q-5 4 -11 4.5t-11 -3.5q-24 -26 -25 -59q-121 225 -255 333t-226 140q29 -1 56.5 -1.5t85.5 -0.5q204 0 390 71.5t323 183.5q136 111 201 238q65 123 55.5 235.5t-130.5 194.5q-182 87 -409.5 67
t-441.5 -90.5t-354.5 -136.5t-146.5 -71q-5 -3 -8.5 -7.5t-2.5 -8.5t5 -4.5t10 2.5q6 5 146.5 69.5t351.5 132.5t428 82.5t376 -80.5q103 -69 128 -159q30 -109 -31 -228q-61 -118 -189 -223q-132 -108 -311.5 -176.5t-376.5 -68.5q-97 0 -155 2l403 706l13 23
q2 2 -0.5 11.5t-8 20t-14.5 17t-22 2.5t-30 -25q-13 -34 -25 -70q-26 -92 -70 -168t-137 -92q-6 -1 -10 -1q-11 -2 -19 -2q-25 0 -29 -8.5t13.5 -14.5t56.5 3q6 2 17 4t22 4.5t18.5 3.5t7.5 0z" />
    <glyph glyph-name="S" unicode="S" horiz-adv-x="1159" 
d="M887 896v0q5 2 79 67t162 167t135 216t-2 215q-43 76 -122 101q-94 31 -182.5 7.5t-169.5 -69.5q-247 -128 -382 -486q-62 -194 -10.5 -354.5t135.5 -295.5q79 -128 114.5 -246.5t-44.5 -238.5q-108 -141 -246 -138q-74 1 -138 41q-65 40 -107 116q-107 175 19 500
q2 5 0 7.5t-6 1.5q-5 -2 -10 -5.5t-7 -8.5q-138 -337 -37 -519q103 -169 271 -162t281 156q86 130 56.5 262.5t-109.5 264.5l-22 38q-78 124 -125 265.5t9 316.5q137 346 378 470q83 41 161 49q73 11 133 -12q73 -27 113 -102q47 -96 5 -201t-121.5 -198t-147 -151.5
t-72.5 -60.5q-5 -4 -7 -8.5t0 -7.5t6.5 -2t9.5 5z" />
    <glyph glyph-name="T" unicode="T" horiz-adv-x="850" 
d="M794 1280v0l5 49q197 36 357 28q184 -9 274 -74q26 -20 38 -36.5t14.5 -29t-1.5 -22t-10 -15.5t-11.5 -9l-5.5 -3q-6 -2 -9.5 -6t-4.5 -8q0 -4 4 -5t10 2q9 -10 30.5 0.5t38 35t10.5 58t-52 70.5q-103 63 -303 68q-169 9 -379 -29q-4 10 -14 12t-19.5 -2.5t-12.5 -14.5
q0 -1 -1 -4q-7 -2 -17 -4q-12 -2 -21 -4q-156 -34 -314 -77t-268 -76t-122 -37h-1q-4 -1 -9.5 -5.5t-10.5 -9t-6 -7.5q-1 -4 2 -6t8 0h1q11 4 125 37.5t275.5 77.5t317.5 78q15 3 31 6q-11 -25 -30 -69q-74 -181 -225 -492q-106 -212 -199 -391.5t-132 -247.5
q-76 -133 -115.5 -217t-39.5 -87q-1 -4 1 -6t8 -1q5 1 9.5 5t6.5 8q2 2 47.5 81.5t121.5 209.5q41 74 133 270q83 178 183 380q73 143 130 252q69 131 110 218l13 21q0 -2 1 -1t2 3q3 3 5.5 6.5t5.5 5.5q6 2 10 6t5 8z" />
    <glyph glyph-name="U" unicode="U" horiz-adv-x="974" 
d="M193 1367v0q2 2 36 21t81 42t87.5 36t54.5 2q5 -8 -26.5 -74t-85.5 -171q-5 -11 -11 -21q-91 -176 -190.5 -391t-146.5 -401.5t17 -276.5q92 -97 228 -27t261.5 198.5t187.5 209.5q-73 -184 -113 -327q-1 -6 2 -11.5t9 -7.5t11.5 0.5t7.5 8.5q3 15 7 44q3 16 5.5 30.5
t4.5 22.5q83 259 216 541t226 455q24 45 49.5 80.5t32.5 44.5l1 1q11 26 10.5 39t-6.5 17t-12 5q-3 1 -5 2q-8 -1 -14.5 -4.5t-9.5 -9.5t-67.5 -137.5t-156.5 -331.5t-178 -410q-4 -3 -8 -7q-2 -3 -49 -62.5t-122 -140t-161.5 -147.5t-167.5 -85t-139 48q-63 86 -27 247.5
t122.5 351.5t175.5 360q4 9 9 18q47 89 86 150q43 68 61.5 114t-1.5 83q-20 20 -65.5 7.5t-97 -40t-90.5 -52t-45 -29.5h-1q-5 -3 -7.5 -7t-1.5 -8q2 -3 6 -3t10 3z" />
    <glyph glyph-name="V" unicode="V" horiz-adv-x="742" 
d="M124 1284v0q0 1 4.5 10.5t13.5 23t22.5 24.5t31 13.5t39.5 -9.5q24 -22 -18 -197.5t-109 -415.5q-24 -87 -49 -175q-76 -261 -119.5 -461.5t8.5 -228.5q56 -10 155 97t190.5 234.5t124.5 179.5q140 212 264.5 418t164.5 306q3 9 6 17q31 108 3.5 213t-68 176.5
t-48.5 79.5v1q-1 2 -5.5 3.5t-9.5 1.5t-9 -3q-3 -2 -3.5 -6.5t1 -8t2.5 -5.5t22.5 -46t45 -116t32 -155.5t-15.5 -163.5l-5 -15q-38 -96 -149 -282.5t-248 -395.5q-134 -205 -243 -346.5t-158 -133.5v0h-1v0q-49 34 1.5 278.5t135.5 545.5q34 123 68 235q48 160 74.5 270
t5.5 140q-25 23 -50.5 19.5t-49 -23t-42 -44t-29 -42.5t-10.5 -19q-2 -5 0.5 -7t7.5 -1t9.5 5t6.5 9z" />
    <glyph glyph-name="W" unicode="W" horiz-adv-x="1585" 
d="M514 1489v0q4 -14 0 -29q-3 -15 -7 -29q-8 -23 -16 -47t-18 -47q-27 -69 -56 -135t-60 -133q-36 -81 -72 -160q-36 -78 -72 -161q-33 -77 -66 -155q-32 -78 -60 -160q-22 -57 -39 -118q-18 -61 -22 -125q0 -19 1 -39t9 -37q4 -8 9 -15t13 -13q17 -18 39 -24q16 -5 33 -2
q18 4 34 12q24 12 44 28q21 16 41 31q55 48 103 103t94 112q51 67 101 134t97 136q42 57 82 114l82 114q14 18 26 37q11 19 27 34q6 8 18 20q4 4 12 8q0 -2 -3 1l-7 7q-6 4 -10 8v-4q2 -4 2 -10q-2 -10 -3 -19t-3 -19q-4 -29 -11 -59q-7 -29 -17 -59q-19 -80 -40 -159
t-38 -162q-10 -39 -16 -76q-6 -36 -10 -75q-4 -26 -5 -52q-1 -25 5 -51q6 -22 23 -35q16 -14 38 -18t42 -1q19 3 39 11q57 19 104 59q48 39 89 81q57 57 108 121q52 64 101 131q51 75 99 149q48 75 94 156q39 71 77 145q37 74 69 149q11 29 22 61q11 31 21 63q16 51 22 98
q0 16 -1 33q-1 16 -7 32q-2 4 -6 6t-8 6q-2 0 -6 3t-4 1q8 -16 9 -34q1 -17 -1 -33q-6 -47 -22 -99q-21 -69 -49 -135q-28 -67 -61 -130q-39 -79 -83 -155q-43 -76 -88 -151q-48 -75 -98 -145q-50 -69 -107 -138q-46 -56 -96 -108t-107 -95q-36 -28 -81 -51q-45 -22 -93 -12
q-7 4 -15 4l-2 2l2 -2q2 -2 4 -3t4 -3l2 -2v2l-2 2q-6 9 -8 17t-4 18q-4 30 -1 59q3 30 7 57q12 83 31 162q20 79 40 159q9 38 19 74q10 37 20 76l12 52q6 27 10 54q4 16 2 28q0 6 -2 8q-4 4 -7 6t-7 6q-4 2 -6 4t-4 2q-8 2 -16 -9t-12 -15q-33 -39 -64 -83q-30 -43 -60 -84
l-90 -130q-46 -65 -93 -128q-47 -65 -97 -129q-51 -64 -106 -126q-21 -25 -45 -50q-24 -24 -49 -46q-40 -39 -85 -65q-16 -10 -33 -16q-18 -6 -38 -2q-4 2 -7 2t-7 2l-2 2q-2 0 -2 2l4 -4t1 -1t1 -1q2 -2 2 0q-2 2 -1 0t-1 0q0 2 -1 2t-1 2q-2 0 -2 2l-2 2q-2 6 -5 14
q-8 20 -9 40q-1 21 3 41q2 27 7 56l12 56q22 73 48 145q25 72 55 142q33 83 69 163q35 80 73 160q16 38 33 75q17 38 34 75q13 31 27 62q20 44 39 88q22 51 44 103q21 52 37 108q4 13 7 27t1 28q-2 6 -12 10q-2 0 -6 4q-2 2 -6 4z" />
    <glyph glyph-name="X" unicode="X" horiz-adv-x="989" 
d="M-56 -410v0q0 7 -2 18q-12 35 -6 135.5t86 277t293 439.5q105 127 208 237q25 -300 66.5 -567.5t102.5 -358.5q2 -3 6.5 -2t9.5 5t7 8.5t0 7.5q-53 91 -93.5 347.5t-65.5 552.5q-1 20 -3 39q244 253 436 410t273 211l-5 -8q-4 -5 -4 -8.5t4 -4.5q4 0 9 2.5t9 7.5l33 44v0
q1 1 2 5t1 8v5q-1 3 -6 6t-13.5 3t-19.5 -7q-9 -2 -214.5 -169.5t-506.5 -480.5q-15 207 -24 367q-6 103 -11 163.5t-9 60.5q0 4 -3.5 4.5t-9.5 -2.5q-5 -3 -8.5 -7.5t-3.5 -7.5q0 -9 9.5 -184t29.5 -427q-110 -118 -223 -256q-218 -268 -304.5 -447t-97 -280t0.5 -137
q3 -18 9.5 -26.5t25.5 1.5q5 3 8.5 7t3.5 8z" />
    <glyph glyph-name="Y" unicode="Y" horiz-adv-x="1233" 
d="M344 1280v0q0 1 8.5 13.5t22.5 28t30 25.5t31 6q12 -3 13.5 -14.5t-7.5 -39.5q-14 -41 -50 -131q-55 -133 -166 -433q-95 -277 -51 -397q20 -62 63 -87q44 -26 102 -17q119 19 242 154q184 226 329 475q18 29 32 52q42 68 62 97t28 27q4 -9 -37 -104q-13 -31 -30 -71
q-10 -24 -20 -49q-64 -159 -162 -375q-177 -383 -344 -715t-227 -384q-42 -23 -74 7t-53.5 83.5t-33.5 100t-13 55.5v1q-1 0 -1 1q0 3 -2 7.5t-7 7.5t-14.5 1.5t-23.5 -11.5q-16 -8 -19 -18.5t0.5 -20t6.5 -14.5q1 -2 2 -3q0 -2 11 -31t32 -69.5t50 -75.5t65 -48.5t78 11.5
q68 58 250.5 406t363.5 737q119 258 194 437q74 179 66 204v0v0l-1 1l-2 2v0v0q-27 8 -77.5 -63t-120.5 -187q-144 -247 -324 -468q-104 -115 -201 -124q-96 -10 -132 72t-28 196.5t45 203.5q74 197 123 299q24 54 42 99q17 42 35 85q26 59 36 87q20 69 -16 78
q-23 6 -48.5 -9t-47.5 -38.5t-36.5 -42t-14.5 -20.5q-3 -5 -2 -8t5 -3t9 3.5t9 7.5z" />
    <glyph glyph-name="Z" unicode="Z" horiz-adv-x="1036" 
d="M364 1463v0q-19 -44 1 -79t74 -35q29 0 228 18t418 38q268 25 374 34q-90 -65 -309.5 -241t-458 -397.5t-383.5 -421.5q-116 -158 -174.5 -258.5t-75 -155.5t-6.5 -75t30 -17q1 -3 4 -3t7 2v-1q4 5 122.5 50t315 83.5t433 23t475.5 -133.5q4 -2 9 0t9 7q4 4 5 8t-2 6
q-219 157 -488 160t-497 -59.5t-325 -103.5q-9 -3 -17 -6v3q-2 12 6.5 56t52 139t146.5 259q141 210 419.5 459t520 435t272.5 206q5 3 8 9q3 4 1.5 7t-5.5 3q-1 0 -7 -1q-50 -7 -256.5 -32t-433.5 -45q-131 -10 -230.5 -11t-139.5 0h-14q-19 0 -31.5 8.5t-20.5 21t-12 25.5
t-5 21.5l-1 8.5q-1 4 -4.5 4t-9.5 -3q-8 1 -14 -2t-8.5 -7t-2.5 -7z" />
    <glyph glyph-name="bracketleft" unicode="[" horiz-adv-x="758" 
d="M813 1407v0l-9 4t-25 7t-36.5 0t-44 -17t-48.5 -44t-49 -81q-31 -68 -102.5 -248.5t-151.5 -389t-138 -361.5t-64 -167q-2 -5 -6 -18t-4.5 -28.5t7 -26.5t28.5 -11q42 0 69.5 9.5t29.5 11.5v0q9 3 17 10.5t12 15.5q5 16 -13 10v0q-2 -2 -25 -10t-58 -8q-13 0 -18 6.5
t-5.5 15t1.5 17.5t4 15t2 7v0l1 2q3 8 61 159.5t138.5 361.5t152 391.5t103.5 250.5q14 31 29.5 49t30.5 26.5t27.5 10.5t22.5 0t15.5 -5t6.5 -3q4 -2 12.5 1.5t16.5 11.5t11 15t-1 10z" />
    <glyph glyph-name="backslash" unicode="\" horiz-adv-x="569" 
d="M62 1420v0l422 -1316q2 -7 -3 -8t-14 3q-9 5 -17 12.5t-10 14.5l-422 1316q-2 7 3 8t14 -3q9 -5 17 -12.5t10 -14.5z" />
    <glyph glyph-name="bracketright" unicode="]" horiz-adv-x="758" 
d="M45 37v0l9 -4t24.5 -7t36.5 0t44.5 17t48.5 44t49 81q31 68 102 248.5t151.5 389t138.5 361.5t63 167q2 5 6 18t5 28.5t-6.5 26.5t-29.5 11q-41 0 -68.5 -9.5t-29.5 -11.5v0q-9 -3 -17 -10.5t-12 -15.5q-5 -16 13 -10v0q1 2 24.5 10t58.5 8q13 0 18 -6.5t5.5 -15
t-1.5 -17.5t-4 -15t-3 -7v0v-2q-3 -8 -61 -159.5t-138.5 -361t-152.5 -391.5t-103 -251q-15 -31 -30 -49t-30 -26.5t-28 -10t-22.5 0t-15.5 4.5l-6 3q-4 2 -12.5 -1.5t-16.5 -11.5q-9 -8 -11.5 -15t1.5 -10z" />
    <glyph glyph-name="asciicircum" unicode="^" 
d="M319 650v0l145 155l17 -234q1 -5 7.5 -4.5t15.5 6.5q9 7 14.5 14.5t4.5 12.5l-38 240q-1 4 -4 5q-6 1 -14 -3.5t-16 -12.5l-157 -173q-7 -8 -8.5 -14.5t3.5 -7.5q6 -1 14 3.5t16 12.5z" />
    <glyph glyph-name="underscore" unicode="_" horiz-adv-x="1243" 
d="M102 310v0l733 -17q40 -1 53.5 5t27.5 22q11 13 -10 13h-752q-11 0 -26 -3t-26 -8q-22 -12 0 -12z" />
    <glyph glyph-name="grave" unicode="`" horiz-adv-x="1024" 
d="M495 1327v0l100 -231q7 -21 -17 -13q-12 5 -22.5 14.5t-15.5 19.5l-99 232q-7 20 17 13q12 -5 22.5 -15t14.5 -20z" />
    <glyph glyph-name="a" unicode="a" horiz-adv-x="658" 
d="M253 531q-4 -2 -7 -2h-2q-4 1 -5 5q-10 58 -46 78q-23 12 -51 12q-14 0 -29 -3q-46 -9 -96 -38q-33 -23 -79 -70t-74.5 -97t-28.5 -93q0 -13 3 -26q6 -16 21 -17h5q14 0 33 8q68 31 167 133q61 61 88 61q8 0 13 -5q9 -10 11 -29t2 -43q0 -35 6 -66.5t31 -45.5
q10 -5 24 -5q31 0 76 24q64 34 132.5 88.5t142 123t75.5 71.5q5 5 8 5.5t4 0.5q4 0 6 -2q2 -1 2 -3t-1 -4q-1 -5 -5 -9q-3 -3 -80.5 -74.5t-152 -128.5t-133.5 -86.5t-93 -29.5q-17 0 -30 6q-33 20 -41 57.5t-8 74.5q0 18 -1 31.5t-6 18.5q-1 1 -3 1q-4 0 -13 -6
q-13 -10 -39 -37q-109 -112 -190 -151q-26 -12 -45 -12q-4 0 -8 1q-22 2 -31 25q-5 12 -5 31q0 17 4 39q15 76 74 145.5t134 113.5q56 33 109 43q13 2 25 2q35 0 68 -14q45 -20 55.5 -38.5t10.5 -26.5q0 -20 -27 -37z" />
    <glyph glyph-name="b" unicode="b" horiz-adv-x="494" 
d="M402 1428q0 1 1 2l1 1v1q3 3 7 5.5t8 2.5t11 -3.5t12.5 -7t5.5 -7.5v-1q-2 -2 -6 -8.5t-10 -14.5l-11 -16.5t-7 -11.5q-2 -3 -18.5 -33l-38.5 -70q-24 -44 -43.5 -78.5t-21.5 -38.5q-117 -243 -292 -621q-38 -81 -78 -168v1h1q0 -1 -1 -3q-1 -3 -4 -11t-7 -17
q-4 -10 -7.5 -18.5t-4.5 -11t-1 -3.5v-1l1 1q67 106 145.5 195t152.5 112q20 5 35 5q28 0 42 -16q15 -18 15 -49v-7q-3 -35 -24 -78q-37 -77 -125 -148t-221 -95q-4 -1 -11 -1q-8 0 -15.5 2.5t-9.5 8.5q4 10 12 17.5t16.5 11t11.5 4.5q5 0 10.5 -1.5t10.5 -4.5q6 -2 10 -3.5
t8 -1.5h3q108 31 177.5 89.5t99.5 121.5q19 38 21 68v7q0 25 -12 39q-10 12 -31 12q-12 0 -28 -4q-66 -21 -137.5 -103.5t-135 -182t-103.5 -173.5t-41 -78q-3 -5 -7.5 -8.5t-9.5 -3.5t-6 2.5t-1 4.5t1 5h1q8 18 79.5 172t173.5 372l16 34q93 200 183 393q99 209 160 337
q-7 -2 -16 -2q-12 0 -27 4q-6 2 -8.5 6.5t-2.5 9.5v3q2 6 6.5 8.5t9.5 2.5h3q21 -16 35 -16q5 0 9 2q17 35 28 57z" />
    <glyph glyph-name="c" unicode="c" horiz-adv-x="557" 
d="M161 547q-2 -5 -7 -8.5t-10 -3.5t-6 2.5t-1 4.5t1 4q1 1 4 8t6 18.5t3 18v7.5q0 9 -5 17t-14 9.5t-13 1.5q-12 0 -30 -6q-51 -16 -108 -80t-82 -120.5t-25 -88.5q0 -25 11 -45q26 -34 76 -34q51 0 127 35q149 69 299 175.5t203 150.5q6 4 10.5 4.5t6.5 -2.5q1 -2 1 -5v-3
q-2 -5 -7 -9t-90 -69t-206.5 -145.5t-218.5 -124t-152 -43.5q-24 0 -43 7q-29 14 -42 37q-11 22 -11 49q0 28 12 61q19 61 64 121q41 56 89 97t90 55q30 9 50 9q9 0 16 -2q22 -5 26.5 -17t4.5 -22q0 -8 -2 -16q-4 -19 -12.5 -32.5t-14.5 -15.5z" />
    <glyph glyph-name="d" unicode="d" horiz-adv-x="564" 
d="M255 501q-1 -8 -5 -14.5t-9 -8.5q-9 -3 -15 -3q-12 0 -15 11q-3 14 -3 34v23q0 13 -1 25q-1 19 -11 31q-22 25 -55 32q-9 2 -18 2q-24 0 -51 -11q-76 -30 -150 -178q-21 -45 -24.5 -82t-3.5 -50q0 -42 14 -72q14 -31 48 -31q11 0 25 4q101 20 279 278q49 141 106 282
q101 252 193.5 442.5t139.5 235.5q13 13 25 13q6 0 10 -2q16 -8 16 -36q0 -13 -3 -29q-9 -51 -42 -133q-120 -305 -422 -774q-61 -172 -103 -321t-42 -233q0 -21 10 -35.5t20 -24.5q4 -3 6 -6q2 -2 3.5 -6.5t1.5 -8.5v-4q-2 -6 -8 -10q-2 -2 -5 -2q-2 0 -5 1q-7 3 -13 7
t-8 6q-20 24 -20 80q0 155 117 491q-160 -211 -260 -234q-21 -6 -38 -6q-21 0 -37 8q-29 15 -42 49q-9 25 -9 56q0 63 39 147q88 164 182 200h1q33 13 62 13q11 0 22 -2q37 -8 62 -36q36 -38 36 -107v-11zM320 585q259 412 362 676q31 80 40 128q0 3 1.5 12t1.5 17
q0 9 -2 11.5t-4 2.5q-3 0 -8 -4q-43 -41 -131 -222.5t-187 -429.5q-38 -96 -73 -191z" />
    <glyph glyph-name="e" unicode="e" horiz-adv-x="579" 
d="M-69 521q-4 1 -4 5v2q0 3 2 7q3 5 7.5 7.5t8.5 2.5h2q1 0 19 -2q54 66 107 97q10 7 26.5 14.5t33.5 8t30 -12.5q9 -11 9 -24q0 -15 -13 -32q-23 -32 -71.5 -54.5t-104.5 -22.5h-5q-36 -48 -57 -107q-11 -35 -11 -62q0 -48 33 -74q35 -28 90 -28q25 0 54 6q154 17 495 344
q1 0 2 1q4 4 7.5 6t5.5 2q1 0 2 -1t1 -3t-1 -5q-2 -5 -7 -9q-359 -339 -529 -362q-33 -6 -60 -6q-36 0 -61 11q-44 20 -57 63q-7 21 -7 45q0 32 12 68q21 62 58 113q-15 2 -17 2zM-6 541q8 -1 16 -1q33 0 67 10q43 12 56 56q1 7 1 13q0 9 -4 13q-3 5 -11 5q-3 0 -7 -1
q-14 -3 -34 -15q-41 -25 -84 -80z" />
    <glyph glyph-name="f" unicode="f" horiz-adv-x="545" 
d="M489 1451q3 5 7.5 9t9.5 4q4 0 9.5 -3t9.5 -7q2 -4 2 -6v-2q-3 -8 -19 -31q-38 -52 -104 -175q-137 -266 -332 -654q12 -3 28 -9q15 -7 31 -11q93 -34 207 -46q13 -1 25 -1q102 0 196 87q5 4 10 5h3q3 0 5 -1q2 -2 2 -4t-1 -5t-5 -8q-100 -88 -215 -88q-11 0 -80.5 5
t-173.5 33q-3 0 -6 1q-24 5 -43 9l-13 -27l4 -4q28 -25 51 -65q20 -34 20 -95q0 -11 -2 -55t-53 -178q-132 -314 -289 -462q-44 -42 -78 -59q-21 -10 -36 -10q-14 0 -24 8t-14 24v4q0 59 113.5 308t276.5 572q-15 15 -24 33q-4 9 -4 17q0 3 1.5 10t13.5 13q7 3 21 4h10
q10 0 20 -1q188 373 324 634l8 16q95 182 108 211zM28 497q-155 -316 -264.5 -559t-117.5 -293q4 -12 10 -18q6 -5 14 -5q10 0 23 7q28 14 67 50q150 142 278 447q48 127 53 199q1 12 1 23q0 56 -19 91t-45 58zM33 558q-12 2 -20 2q5 -8 12 -17z" />
    <glyph glyph-name="g" unicode="g" horiz-adv-x="668" 
d="M259 531q0 -5 -4 -9.5t-10 -6.5q-2 -1 -4 -1t-4 1q-3 2 -3 5v12q0 9 -3.5 24t-14 30.5t-31 28t-54.5 18.5h-8q-45 0 -99 -43t-95 -105q-39 -59 -47 -115q-1 -10 -1 -19q0 -64 49 -67h9q53 0 112 45q33 27 65 55q41 37 76.5 64t60.5 27q11 0 14 -12v-6q0 -37 -41 -140
q-6 -17 -14 -35q19 15 39 28q75 52 133 91.5t101 69t73 49.5t49.5 32.5t42 28t26.5 17.5l4 3q6 2 10 1.5t5 -4.5v-2q0 -3 -2.5 -7.5t-8.5 -7.5q-3 0 -24 -12.5t-45.5 -27.5t-69.5 -45t-115 -80t-172 -123q-30 -21 -60 -44q-38 -86 -89 -185q-110 -216 -234 -386
q-113 -154 -189 -154q-8 0 -15 2q-14 5 -24 15q-18 19 -18 50q0 28 14 65q29 75 102 172q172 225 434 429q13 30 23 57q39 97 39 129v8q-16 0 -46.5 -24t-67.5 -56q-32 -29 -66 -57q-57 -46 -107 -64q-16 -6 -31 -6q-30 0 -53 26q-20 27 -20 63q0 12 2 24q11 65 57 132
q45 68 105 116q35 28 78 42q35 12 61 12q7 0 13 -1q37 -6 57.5 -20t29.5 -31.5t10 -34.5v-10q0 -10 -1.5 -19.5t-1.5 -11.5h-1zM87 65q42 83 76 157q-32 -25 -123.5 -113.5t-191 -200t-156.5 -208.5q-36 -59 -36 -98q0 -25 14 -41q7 -7 19 -12q5 -1 10 -1q65 0 174 156
t214 361z" />
    <glyph glyph-name="h" unicode="h" horiz-adv-x="870" 
d="M407 1391q3 5 7.5 8t8.5 3h3q4 0 10 -0.5t11 -3t5 -6.5l-1 -2q-1 -5 -11.5 -14.5t-34.5 -23.5q-11 -21 -66.5 -134.5t-134.5 -276.5q-88 -182 -179 -368t-156 -317q62 87 137.5 170.5t123 107t69.5 23.5q36 0 61 -37q22 -40 45 -98q14 -34 27 -62.5t25 -41.5
q24 -31 68 -31h8q49 2 142 61.5t306 250.5q0 1 1 1q5 5 8.5 7.5t5.5 2.5q1 0 2 -2q2 -2 2 -4l-1 -3q-2 -5 -6 -9q-303 -269 -383.5 -299t-114.5 -30q-50 0 -75 35q-32 42 -54 105q-17 50 -43 96q-18 25 -45 25t-62 -25q-70 -51 -147 -145t-133 -176t-63 -94q-3 -5 -7.5 -8
t-8.5 -3q-5 0 -6 2.5t-1 3.5q0 3 1 6q6 11 99 197.5t217.5 435t223.5 445t116 228.5z" />
    <glyph glyph-name="i" unicode="i" horiz-adv-x="437" 
d="M151 842q4 7 12.5 12t13.5 5q3 0 5 -1q8 -4 13 -12t5 -13q0 -4 -2 -7l-43 -57q-4 -7 -9 -8.5t-7 -1.5q-5 0 -10 3q-7 3 -8.5 8.5t-1.5 8.5q0 4 2 8zM61 691q4 5 8.5 7.5t7.5 2.5h2q4 -1 9.5 -6.5t7 -11t1.5 -6.5q0 -8 -8 -17q0 -1 -1 -1q-6 -8 -39.5 -58.5t-71 -118
t-50 -109t-12.5 -60.5q0 -26 15 -41q11 -7 27 -7q32 0 86 29q81 44 173.5 113.5t158 127.5t68.5 64q4 4 7 4.5t5 0.5q3 0 5 -2q1 -2 1 -4v-3q-2 -5 -6 -10q-4 -3 -74 -62t-167 -132t-168 -110.5t-106 -37.5q-19 0 -31 8q-19 18 -19 53q0 20 6 45q18 69 56.5 147.5t72.5 135
t36 59.5z" />
    <glyph glyph-name="j" unicode="j" horiz-adv-x="412" 
d="M1 661q-3 10 -3 17q0 9 5 13t13 4q5 0 11 -2q15 -4 22.5 -12t7.5 -14q0 -4 -3 -9v-1q-2 -7 -14 -40q-22 -55 -67 -160q-39 -90 -90 -210q206 155 375 258t175 104q6 3 10 2.5t5 -4.5q0 -5 -3 -12.5t-8 -11.5q-2 1 -4 1q-27 0 -184 -98q-170 -104 -380 -273
q-106 -254 -218 -483t-183 -290q-31 -22 -54 -22q-9 0 -16 3q-24 9 -33 44q-6 21 -6 51q0 16 2 35q10 102 82.5 241t219.5 274q33 30 66 61q61 58 121 107q27 65 52 123q86 203 118 283q1 3 1 6q0 4 -2 6q-4 5 -9 6.5t-8 2.5h-1zM69 826q4 7 12 12.5t14 5.5q3 0 6 -1
q7 -5 12 -13.5t5 -13.5q0 -3 -1 -5l-44 -57q-4 -7 -9 -8.5t-8 -1.5q-5 0 -9 2q-7 4 -8.5 8.5t-1.5 7.5q0 4 3 9zM-540 -543q63 54 168 269.5t208 460.5q-81 -63 -161 -135q-96 -82 -191.5 -233t-95.5 -300q0 -20 2 -39q8 -29 26 -36q4 -2 9 -2q15 0 35 15z" />
    <glyph glyph-name="k" unicode="k" horiz-adv-x="684" 
d="M332 1384q1 2 3 10q3 8 6.5 18t7.5 17.5t6 7.5q1 1 4 1q2 0 5 -1q5 -1 10.5 -4.5t6.5 -8.5t1 -6q0 -8 -5 -22l-45 -51l-217 -543l-255 -594l465 602q2 3 10 11.5t15.5 13t12.5 4.5q4 0 9 -3q3 -1 7.5 -7.5t6.5 -13t2 -11.5q0 -4 -1 -8q-3 -8 -15 -12l-51 -24l-217 -281
q-9 -27 -12.5 -56.5t-3.5 -41.5q0 -34 13 -64q16 -40 78 -40h3q57 0 129 35q73 37 142 87t151.5 119t83.5 75q5 4 8 4.5t4 0.5q4 0 6 -2q1 -2 1 -5v-3q-2 -4 -7 -9q-2 -2 -86.5 -71.5t-156.5 -121.5t-150.5 -93t-139.5 -41q-59 0 -84 28t-29 57t-4 47q0 15 2 28l-253 -326
q-6 -8 -14 -9q-5 0 -6.5 2t-1.5 4t2 5z" />
    <glyph glyph-name="l" unicode="l" horiz-adv-x="518" 
d="M301 1236.5q88 159.5 115.5 187.5t54.5 28h4q16 -11 16 -39q0 -20 -9 -50q-3 -4 -6 -7q-6 -5 -9 -5q-5 0 -5 10q0 13 8 44q-4 15 -13 15q-22 0 -74 -87q-64 -103 -185.5 -354t-189 -436.5t-67.5 -261.5q0 -58 28 -82q27 -14 58 -14q42 0 91 25q84 42 165.5 115
t161.5 165.5t83 96.5q1 1 1.5 4t0.5 7t1 7.5t4 3.5h1q3 0 10 -7q3 -2 3 -6t-4 -9q-3 -5 -115 -133v-1q-60 -65 -149 -143q-90 -78 -163 -113t-119 -35q-35 0 -66 15q-31 23 -31 83q0 58 29 149q65 207 165 416q117 252 205 411.5z" />
    <glyph glyph-name="m" unicode="m" horiz-adv-x="1077" 
d="M22 710q2 4 9 7t12.5 3.5t6.5 0.5q8 0 16 -3q3 0 5 -5t2 -11t-1 -10q-1 -2 -21.5 -48.5t-50 -114t-57 -135t-40.5 -105.5t-13 -48q0 -5 3 -5q2 0 4.5 1.5t7 6.5t11.5 15.5t18.5 28t28.5 44.5q73 118 150.5 225t131.5 125q4 1 9 1q13 0 25 -6q16 -8 19 -21v-14
q0 -39 -21 -104q-8 -25 -17 -51q-18 -47 -22.5 -69.5t-4.5 -30.5q0 -24 19 -35q8 -4 16 -4q24 0 52 29q37 39 73 91q29 41 55 70q20 21 36.5 26t24.5 5q12 0 21 -7q13 -16 15 -56q0 -7 1 -13t1 -12q3 -28 8.5 -57t21.5 -51q19 -34 69 -34q27 0 62 9q103 26 376 248q5 4 10 4
q4 0 6 -3q1 -2 1 -4t-1 -5q-2 -5 -7 -8q-288 -232 -364 -249t-104 -17q-61 0 -84 39q-18 27 -25.5 61t-9.5 66q-2 22 -5 38.5t-10 22.5q-3 2 -7 2q-8 0 -21 -15q-25 -26 -55 -66q-4 -5 -8 -11q-41 -59 -76.5 -93.5t-64.5 -34.5q-14 0 -27 6q-29 18 -29 60q0 11 2 23
q9 59 30 124q12 36 17.5 61t5.5 39v11q-2 12 -15 12l-5 -1q-81 -33 -218 -260q-21 -32 -48 -71q-26 -38 -48 -72.5t-30 -53.5q-10 -23 -17.5 -33.5t-13.5 -13.5t-11 -3h-1q-9 0 -9 15q0 14 9 43q17 57 51 142.5t70 168t59 132.5q3 9 3 18v5q-2 12 -6 21.5t-6 12.5v1z" />
    <glyph glyph-name="n" unicode="n" horiz-adv-x="833" 
d="M28 641q0 2 -1 6q-2 9 -2.5 16.5t-0.5 9.5q0 12 9 23q5 3 12 6t13.5 2.5t8 -5t1.5 -7.5q0 -8 -5 -23q0 -6 -17 -37t-45 -77q-59 -99 -113.5 -202.5t-54.5 -140.5v-5q9 4 41 44q10 13 23 28q63 79 146 161t166 107q18 3 32 3q53 0 64 -43q4 -22 4 -48q0 -22 -3 -47v-4
q-1 -8 -1 -15q-2 -21 -2 -39q0 -19 2 -35q4 -23 13.5 -31t23.5 -8q10 0 24 3q100 25 202.5 87t165.5 115q77 72 89.5 88.5t14.5 20.5h1q4 4 7.5 4.5t4.5 0.5q3 0 5 -2q2 -1 2 -3t-1 -4q-1 -5 -6 -9q-1 -2 -69.5 -63.5t-134 -109t-141 -89.5t-147.5 -60q-17 -4 -31 -4
q-20 0 -33 8q-20 13 -26 41q-3 23 -3 49q0 23 2 48q3 24 3 46q0 25 -4 45t-15.5 27.5t-25.5 7.5q-10 0 -23 -3q-74 -22 -151 -100t-138 -153q-69 -88 -102 -100h-4q-10 0 -13 12v5q0 26 27 85q30 64 74.5 141.5t83.5 143.5q18 31 30 50q18 31 18 33z" />
    <glyph glyph-name="o" unicode="o" horiz-adv-x="702" 
d="M34 577q5 4 8 4h4q3 0 5 -2q1 -1 1 -3t-1 -5q-2 -5 -6 -9h-1q-2 0 -33 -31q-1 -9 -1 -18q0 -42 24 -83q28 -49 105 -77h1q68 86 84 212q1 17 1 33q0 84 -37 111q-19 15 -41 15t-44 -12q-65 -33 -88 -152q7 7 11 10.5t5.5 5t2.5 1.5zM-23 496q-51 -60 -62.5 -107
t-11.5 -69q0 -34 15 -58q15 -25 47 -25q19 0 43 8l1 1q42 16 84 55q14 13 28 29q-81 23 -120 82q-23 36 -24 84zM-125 259q-11 28 -11 57q0 42 24 86q41 73 91 123q28 157 121 206q44 18 75 18q42 0 61 -33q24 -42 24 -106q0 -22 -3 -47q-21 -127 -97 -215q40 -9 86 -9
q34 0 71 5q219 47 387 239q5 5 8.5 8t5.5 3q1 0 2 -1q3 -2 3 -5v-2q-1 -5 -5 -9q-226 -224 -410 -253q-45 -8 -85 -8q-43 0 -82 9q-17 -20 -35 -37q-49 -45 -99 -64l-1 -1q-29 -11 -55 -11q-18 0 -34 6q-27 10 -42 41z" />
    <glyph glyph-name="p" unicode="p" horiz-adv-x="447" 
d="M58 720q1 1 2 4q3 8 9 19t16 12q3 0 6 -5.5t4 -10.5t1 -6q0 -6 -3 -12l-54 -90l-147 -368q75 147 118 212.5t96 119.5q106 103 159 103q24 0 37 -22q14 -23 14 -58q0 -73 -59 -198q-96 -165 -205 -195q-37 -10 -58 -10q-6 0 -10 1q-23 3 -26.5 12.5t-3.5 15.5q0 7 2 13
q5 14 12.5 21.5t12.5 7.5q2 0 4 -1h2q4 0 5 -2q2 -2 2 -4t-1 -4q-2 -7 -2 -12q0 -7 4 -12q7 -8 22 -9h4q15 0 35 6q93 26 178 172q45 94 45 159q0 15 -2 28q-5 26 -18 39q-10 10 -26 10q-4 0 -8 -1q-38 -3 -104 -71q-64 -70 -152.5 -224.5t-176 -328.5t-147.5 -301.5
t-67 -143.5l-1 -1q-2 -5 -7 -8.5t-10 -4.5q-4 0 -5.5 3t-1.5 5t1 4l489 1101z" />
    <glyph glyph-name="q" unicode="q" horiz-adv-x="592" 
d="M299 606q-3 -3 -8.5 -4.5t-9.5 -1.5q-5 0 -7 1q-2 2 -2 5v2q1 5 5 10q11 11 11 23q0 6 -3 12q-6 16 -26 27q-19 11 -49 12q-7 1 -14 1q-87 0 -192 -137q-20 -30 -28.5 -66t-8.5 -58q0 -20 5 -38q11 -37 59 -37q82 1 185 112q2 2 10.5 13.5t21.5 26t26.5 23.5t23.5 9h4
q13 -2 20 -22q2 -5 2.5 -9t0.5 -6q0 -4 -1 -8q-36 -99 -134.5 -317t-191 -417t-111.5 -240l-2 -3q-2 -5 -7 -9t-10 -4t-6 2.5t-1 4.5q0 3 1 5l1 1q4 9 25 56q38 82 104.5 229.5t136 304t114 264.5t44.5 124v2q-2 2 -6 2q-2 0 -4 -1q-7 -3 -14 -9t-14 -13t-11 -12l-4 -5
l-1 -1q-119 -128 -217 -132h-4q-32 0 -54 13q-23 14 -30 44q-4 12 -4 26q0 57 60 150q120 156 222 156q9 0 17 -1q18 0 39 -4t33 -10q26 -13 27 -23.5t1 -14.5q0 -15 -7 -29q-9 -18 -16 -28q-1 0 -1 -1z" />
    <glyph glyph-name="r" unicode="r" horiz-adv-x="592" 
d="M31 668q2 6 7 13t10 8h3q5 1 12 1q8 0 12.5 -4t4.5 -11q0 -3 -1 -7l-37 -68l-140 -307q68 108 168.5 230t191.5 158q38 12 64 12q14 0 25 -4q29 -11 34 -32t5 -37q0 -15 -3 -31q-6 -33 -15 -57t-13 -27q-2 -5 -6.5 -9t-9.5 -5q-5 0 -7 2t-2 4t1 4q0 1 6 21t8.5 40t2.5 32
q0 15 -3 29q-6 25 -21 33.5t-29 8.5q-17 0 -41 -7q-57 -21 -124 -91t-127.5 -155t-101.5 -150t-46 -75q-3 -5 -7.5 -8t-8.5 -4q-5 0 -6.5 2.5t-1.5 4.5t1 4z" />
    <glyph glyph-name="s" unicode="s" horiz-adv-x="641" 
d="M229 546q-4 -5 -8.5 -7.5t-7.5 -2.5h-2q-4 1 -4 3.5v3.5q0 4 2 8q1 0 10.5 15.5t21.5 38t18.5 43t6.5 34.5q0 6 -1 11q-4 18 -18 21.5t-22 3.5q-21 0 -55 -9q-142 -43 -149 -104q-2 -10 -2 -19q0 -26 13 -45q17 -27 47 -55q44 -39 91 -113q81 34 181.5 73.5t202.5 94
t105 55.5q4 1 7 1h2q4 -2 4 -7q-1 -2 -5.5 -5.5t-10.5 -6t-10 -3.5l-1 -1q-3 -1 -105 -53.5t-191.5 -90t-170.5 -73.5q1 -14 1 -26q0 -125 -88 -180q-97 -61 -224 -69q-13 -1 -23 -1q-38 0 -52 11q-12 8 -12 22q0 9 5 20q11 24 42 52q54 50 140.5 99t163.5 74l4 1
q-12 33 -43 62q-98 90 -98 163q0 6 1 12q11 84 180 135q47 13 76 13q16 0 27 -4q27 -11 27 -38v-4q-1 -30 -18.5 -65t-35.5 -60.5t-22 -27.5zM143 322q0 5 -0.5 10.5t-1.5 10.5q-4 -1 -10 -4q-6 -2 -10 -3q-72 -23 -151 -69.5t-130 -93.5q-24 -22 -32 -38q-2 -5 -2 -9
q0 -7 7 -12q11 -9 45 -9q9 0 20 1q141 14 215 92q26 28 39 59q11 28 11 56v9z" />
    <glyph glyph-name="t" unicode="t" horiz-adv-x="203" 
d="M306 1381q1 1 1 4q1 5 4 10t6.5 7t6.5 2q4 0 10 -3q3 0 4 -6.5t1.5 -12.5t0.5 -11l-1 -8q0 -7 -1 -10l-28 -47l-141 -336q186 22 341.5 54.5t171.5 67.5v4q0 5 3 10.5t12 6.5q4 0 8.5 -2.5t7.5 -6t3 -7.5q-19 -45 -186.5 -82.5t-368.5 -62.5l-486 -1156q-2 -6 -6.5 -9
t-9.5 -3t-6 2.5t-1 3.5q0 3 1 6l477 1152q-147 -19 -248 -29q19 -17 29 -54q1 -3 1 -5q0 -4 -2 -6q-3 -5 -9 -6h-3q-5 0 -9 2q-5 4 -7 10q-5 19 -13.5 30t-17.5 16t-17 6t-14 1l-5 -1h-5q-28 -3 -33 -3t-6.5 2.5t-1.5 4.5v4v6q0 5 1.5 11t8.5 14q21 9 37 9t42 -6
q12 -2 26 -5q16 -3 36 -3q10 0 21 1q32 2 66 5l14 2q55 5 117 12l127 306z" />
    <glyph glyph-name="u" unicode="u" horiz-adv-x="778" 
d="M45 649q4 5 8.5 7t6.5 2h3q2 -1 9 -5.5t11.5 -9.5t4.5 -10l-1 -3q-2 -5 -17 -7q-29 -10 -82 -86.5t-85 -147.5t-32 -105q0 -15 5 -25q2 -3 5 -6q8 -4 19 -4q16 0 37 8q17 6 30.5 14t33.5 23q4 3 9 6q125 77 244 241q17 21 29 39q32 51 55 51h2q11 -4 11 -15l-1 -5
q-2 -14 -11 -35q-4 -12 -9 -24q-8 -27 -18.5 -69t-16.5 -72q-6 -21 -6 -40q0 -21 8 -38q14 -28 50 -28h9q77 8 159 59t172 134.5t97 91.5l1 1q4 4 7 4.5t5 0.5q3 0 5 -2t2 -5l-1 -3q-2 -4 -7 -9q-2 -2 -78 -71.5t-145.5 -117.5t-134.5 -76.5t-111 -28.5q-13 0 -26 2
q-38 9 -42.5 35t-4.5 43q0 25 6 55q14 61 31 113q8 23 12.5 38t4.5 16q-1 0 -5 -7q-6 -12 -30 -44q-130 -163 -256 -251q-57 -41 -101 -56q-23 -8 -40 -8q-18 0 -31 9q-4 3 -8 8q-5 10 -5 24q0 27 18 69q28 65 73.5 138.5t82 126.5t39.5 55z" />
    <glyph glyph-name="v" unicode="v" horiz-adv-x="670" 
d="M68 630q-1 0 -3 -1q-5 -2 -11 -4.5t-7 -5.5q-3 -5 -5.5 -8t-4.5 -5q-3 -3 -7 -8.5t-10 -17.5q-30 -68 -57.5 -148t-36.5 -126t-9 -64q0 -20 6 -27q0 -1 1 -1h6q43 0 179 117q91 79 169 163v16q5 44 32 92t55 77q17 17 30 24l1 1q8 3 13 3q10 0 13 -10q1 -3 1 -7
q0 -14 -10 -42q-9 -26 -33 -59q-29 -42 -74 -92q3 -9 8 -18q17 -27 57 -40q22 -7 48 -7q22 0 47 5q87 16 210 155q5 4 8.5 5t5.5 1t4 -1q3 -2 3 -6l-1 -2q-1 -5 -6 -9q-134 -150 -231 -167q-28 -6 -53 -6q-29 0 -53 8q-44 14 -63 45q-4 6 -6 12q-77 -81 -163 -155
q-79 -68 -137.5 -105.5t-85.5 -37.5q-5 0 -9 1q-3 1 -5 2q-10 9 -10 34q0 19 5 45q13 63 43 143.5t62 147.5q7 14 13 27q13 30 23 50q13 23 26 31.5t20 8.5q3 0 5 -2q4 -3 6 -8t2 -8t-1 -5q-1 -6 -10 -11zM305 524q32 37 55 70q21 29 28 50q9 24 9 33q0 3 -1 4h1v1
q-6 -3 -16 -14q-25 -25 -48 -65.5t-28 -78.5z" />
    <glyph glyph-name="w" unicode="w" horiz-adv-x="993" 
d="M118 732q0 -13 -2.5 -19t-6.5 -8.5t-10 -3.5q-5 -1 -11 -4.5t-12 -11.5q-19 -27 -46 -73q-40 -65 -80 -145t-54 -128t-14 -70q0 -25 13 -39q7 -6 16 -6t20 7q22 13 48 42q37 43 76 96q49 67 94.5 112t75.5 45q7 0 14 -2q16 -9 23.5 -29t11.5 -45q2 -13 5 -25
q5 -24 13 -45.5t19 -33.5q7 -8 17 -8q5 0 10 1q17 5 54 41q47 45 83 85l-4 7q-14 24 -16 46v7q0 38 20 80l1 1q18 38 45 65q52 51 79 51q9 0 16 -7q9 -10 9 -28q0 -28 -22 -77q-29 -58 -100 -139q51 -50 123 -50q10 0 21 1q69 5 171 56q47 24 95 55q74 47 85 61q6 3 10 3
t5 -4v-3q0 -3 -1 -6q-3 -5 -8 -8q-258 -171 -376 -171h-6q-57 0 -94 19q-25 11 -41 27q-36 -40 -81 -83q-52 -48 -71.5 -53.5t-27.5 -5.5q-19 0 -30 13q-22 29 -31 80q-6 29 -15.5 54t-26.5 35q-3 1 -6 1q-19 0 -49 -34q-35 -40 -76 -96q-39 -54 -78 -99q-35 -40 -58 -52.5
t-36 -12.5q-15 0 -28 11q-16 16 -16 47q0 22 8 51q19 71 60.5 155t83.5 153q28 47 47 74q1 7 10.5 19t21.5 23t17 12t6 1q6 0 7 -12zM492 486q62 73 88 124q12 24 14 41v7q0 11 -5 16q-3 3 -6 5q-5 2 -10 2h-3q-17 -2 -35 -21q-35 -35 -47 -68t-12 -51q0 -27 15 -53z" />
    <glyph glyph-name="x" unicode="x" horiz-adv-x="731" 
d="M339 770q4 5 8 6t6 1t3 -1q3 -3 2.5 -7.5t-5.5 -9.5l-47 -38l-264 -275q16 -85 45 -150.5t74 -82.5q13 -3 26 -3q70 0 173 68q123 81 224 169q43 37 100.5 92.5t61.5 60.5q5 4 8 5t4 1q4 0 6 -2q1 -2 1 -4v-3q-1 -5 -6 -10q-3 -3 -99.5 -89t-191.5 -158t-176.5 -113.5
t-132.5 -41.5q-17 0 -31 4q-46 18 -73.5 81t-41.5 145l-337 -351q-4 -4 -7.5 -5t-4.5 -1q-3 0 -6 1q-9 4 -9 11v2q0 8 4.5 16t8.5 11l346 344q-10 72 -14 138t-4 98v43v12q0 3 0.5 9.5t2.5 12t5 7.5q4 2 13 2q10 0 18.5 -4.5t9.5 -15.5q1 -4 1 -8q0 -7 -3 -11q-3 -5 -9 -8
q-5 -3 -9 -7.5t-4 -15.5q1 -86 22 -224z" />
    <glyph glyph-name="y" unicode="y" horiz-adv-x="770" 
d="M47 655q4 5 8 7.5t8 2.5h2q3 -1 10 -5.5t9 -9.5t2 -8q0 -5 -3 -11q-7 -8 -41.5 -54t-71.5 -108t-46.5 -97t-9.5 -49q0 -31 24 -48q11 -5 23 -5q37 0 84 44q63 58 125 134l22 26q38 45 70 78t54 34q8 0 15 -7t7 -17v-4q0 -7 -6 -23q-7 -19 -17 -44q-16 -38 -28 -74
q-11 -36 -23 -69t-31 -83q-2 -6 -5 -13q-20 -54 -44 -112q204 174 401.5 313t204.5 141q5 3 9.5 2.5t5.5 -4.5v-2q0 -3 -2 -7q-3 -4 -8 -8h-1l-28 -14t-59 -34q-259 -181 -538 -425q-117 -286 -243.5 -533t-200.5 -263q-53 0 -67 31.5t-14 63.5q0 11 2 24q7 47 23 83
q68 186 313 439q83 87 167 161q30 74 55 141q45 117 70 198q22 72 22 95v4q0 1 0.5 1t0.5 1q-13 -1 -42.5 -32.5t-67.5 -76.5q-68 -84 -130 -139t-105 -55q-18 0 -34 8q-30 19 -30 59l1 8q3 47 26.5 103.5t54 109t53.5 87t24 35.5zM-273 -680q80 39 189 260.5t217 488.5
q-68 -62 -136 -132q-235 -247 -293 -413q-11 -27 -20.5 -65t-9.5 -65q0 -15 2 -29q7 -39 51 -45z" />
    <glyph glyph-name="z" unicode="z" horiz-adv-x="846" 
d="M-4 415q-2 -3 -8 -5.5t-13 -4.5t-10 -2q-7 0 -11 9q-4 12 -4 37t10 58q13 50 61 102t133 75q28 6 51 6q30 0 51 -10q18 -8 18 -32t-19 -64q-30 -69 -119 -143q39 11 85 11h8q50 0 73 -46q7 -13 7 -28q0 -13 -5 -28q-11 -32 -25 -57q-5 -10 -9 -17q571 320 602 328
q4 2 8 2h2q3 -1 4 -6q0 -4 -3.5 -8.5t-8.5 -7.5h-1q-4 -1 -21 -6.5t-37 -15.5q-270 -142 -560 -317q-50 -97 -130 -206q-72 -100 -147 -178t-131 -103q-18 -8 -34 -8h-3q-28 2 -43 14q-18 14 -18 40q0 5 1 10q3 32 31 76q70 119 329 288q67 42 129 79q32 65 35 102v5
q0 8 -2 13q-11 26 -33 36.5t-38 10.5h-20q-21 0 -41 -4q-24 -5 -39.5 -10t-16.5 -6q-3 -1 -5 -1q-4 0 -6 4l-1 3q0 3 2 6q3 5 8 8q114 80 150 158q8 20 8 36v6q-2 17 -19 25q-12 6 -33 6t-52 -7q-71 -18 -106 -56.5t-46 -79.5q-8 -29 -8 -52q0 -7 3.5 -13t8.5 -12
q4 -6 6 -10t2 -7v-3zM106 45q69 94 116 180q-51 -31 -106 -66q-241 -154 -298 -256q-13 -20 -23.5 -41.5t-12.5 -35.5l-1 -5q0 -21 15 -33q2 -2 4 -3q4 -4 9 -7t14 -4h3q10 0 22 5q50 23 119.5 97t138.5 169z" />
    <glyph glyph-name="braceleft" unicode="{" 
d="M948 1361q1 -2 1 -4q0 -3 -2 -8q-5 -9 -14 -17q-10 -9 -16.5 -11t-9.5 -2q-4 0 -6 2q0 1 -5 6t-13 10.5t-16 8.5t-14 3t-13 -2q-13 -2 -27 -15q-19 -18 -52.5 -86.5t-72.5 -155.5q-48 -108 -96 -197.5t-91 -118.5q-19 -10 -23 -19q-5 -9 -5 -18q1 -10 6 -18q6 -11 16 -16
q28 -11 28 -57v-2q0 -44 -52 -146q-50 -92 -108 -263q-37 -114 -39 -210v-6q0 -90 59 -126q8 -4 16 -7q5 -1 5 -6q0 -1 -1 -3q-2 -7 -10 -17q-9 -9 -17.5 -13.5t-13.5 -4.5q-2 0 -4 1q-10 3 -19 8q-64 38 -64 133v9q2 102 40 219q60 176 112 272q47 93 47 131q-1 37 -23 45
q-13 7 -20 20q-7 11 -7 26q0 16 10 35q17 36 72 68q17 13 54.5 90t81.5 174q42 93 81 169t72 108q29 25 51 33t38 8h7q18 -2 30.5 -9t19.5 -13.5t7 -7.5z" />
    <glyph glyph-name="bar" unicode="|" 
d="M583 1509l-196 -1430v-2q0 -9 5 -9q4 0 9 4q7 5 12 14t7 18l195 1430v2q0 9 -5 9q-3 0 -8 -4q-7 -5 -12.5 -14.5t-6.5 -17.5z" />
    <glyph glyph-name="braceright" unicode="}" 
d="M458 1354v0q0 -7 8 -9t21 -3q21 -1 46 -6q24 -6 39 -22.5t7 -50.5q-10 -35 -44 -102t-75 -145q-57 -104 -97.5 -189t-32.5 -110q10 -18 25.5 -24.5t31.5 -9.5q15 -3 26 -8t12 -19q0 -1 -2 -2l-1 -1q-30 -16 -72.5 -62.5t-84.5 -156.5q-20 -57 -38 -115q-38 -136 -95 -248
t-166 -140q-9 -2 -18.5 -9t-15.5 -17q-11 -19 7 -17q150 38 221.5 168t114.5 285q19 60 38 114q33 89 62 123.5t48 44.5l2 1q24 15 37.5 28.5t11.5 36.5q-2 20 -15.5 27t-31.5 11q-14 2 -27.5 8t-21.5 20q-5 18 34 97t92 178q43 80 77.5 149.5t45.5 107.5q11 44 -6.5 65
t-46.5 27q-27 6 -50 8q-8 0 -12 -2q-2 0 -3.5 -0.5t-1.5 0.5q0 7 -7 7t-17 -7q-11 -7 -18 -15.5t-7 -15.5z" />
    <glyph glyph-name="asciitilde" unicode="~" 
d="M323 597v0l3.5 7t10.5 15.5t17.5 14.5t25.5 5t33 -14q81 -58 175 -46q97 12 180 119q8 11 7.5 18t-9.5 7q-9 -1 -20.5 -9t-20.5 -19q-45 -57 -101 -65q-83 -10 -158 44q-38 25 -69 23t-55 -20t-40.5 -42t-25 -42t-8.5 -19q-6 -20 18 -12q12 5 22.5 15t14.5 20z" />
    <glyph glyph-name="exclamdown" unicode="&#xa1;" horiz-adv-x="672" 
 />
    <glyph glyph-name="cent" unicode="&#xa2;" horiz-adv-x="1139" 
 />
    <glyph glyph-name="ordfeminine" unicode="&#xaa;" horiz-adv-x="648" 
 />
    <glyph glyph-name="macron" unicode="&#xaf;" horiz-adv-x="670" 
 />
    <glyph glyph-name="plusminus" unicode="&#xb1;" 
 />
    <glyph glyph-name="uni00B2" unicode="&#xb2;" 
 />
    <glyph glyph-name="uni00B3" unicode="&#xb3;" 
 />
    <glyph glyph-name="acute" unicode="&#xb4;" horiz-adv-x="1024" 
d="M425 1167v0l187 168q18 14 18 -12q-1 -12 -7 -25.5t-14 -20.5l-187 -168q-18 -14 -18 12q1 12 7 25.5t14 20.5z" />
    <glyph glyph-name="mu" unicode="&#xb5;" horiz-adv-x="1180" 
 />
    <glyph glyph-name="uni00B9" unicode="&#xb9;" 
 />
    <glyph glyph-name="ordmasculine" unicode="&#xba;" horiz-adv-x="718" 
 />
    <glyph glyph-name="onequarter" unicode="&#xbc;" horiz-adv-x="1708" 
 />
    <glyph glyph-name="onehalf" unicode="&#xbd;" horiz-adv-x="1964" 
 />
    <glyph glyph-name="threequarters" unicode="&#xbe;" horiz-adv-x="1708" 
 />
    <glyph glyph-name="questiondown" unicode="&#xbf;" horiz-adv-x="748" 
 />
    <glyph glyph-name="Agrave" unicode="&#xc0;" horiz-adv-x="1522" 
d="M-109 -234v0q1 0 2 1t2 1q2 1 4 3q24 11 49 27t53 43l64 109l667 669l107 117l34 38l26 27l309 6l-4 -10l-15 -34q-70 -173 -114 -347q-43 -173 -34 -328q-18 28 -41 48t-52 20q-4 0 -9 -3q-4 -3 -8 -7q-4 -6 -3 -9q0 -3 6 -3q50 0 82 -60q32 -58 44 -101q3 -12 7 -25
q1 -2 5 -2t10 2q5 5 8 9q2 5 2 8v0q-1 2 -7 24q-42 167 2 372q44 200 129 401v0l17 39v0l2 6l309 6h3h3t1 1v4q1 3 -1 6q-1 2 -8 4q-6 1 -22 1l-276 -4q97 220 189 398q2 5 5 9q7 15 15 29q5 9 8 18q49 100 77 171q6 18 13 30q3 9 6 17q0 2 1 4q1 4 3 7q6 16 11 27
q21 18 26 26q5 7 -1 9q-6 0 -18 -6q-10 -4 -22 -13q-11 -9 -16 -20l-679 -710l-521 -12q-4 -1 -8 -1q-18 0 -33 -3t-15 -17q1 -7 8 -10v0l56 -16q4 -2 9 -1q4 2 7 7q1 1 4 5q3 5 10 9t16 4l448 15l-28 -28l-33 -36l-906 -948q-4 -4 -5 -8t2 -6q2 -1 4 -4q3 -4 7 -6t7 1v0z
M917 821v0l519 568q17 24 45 52q28 29 48 45q0 -2 -5 -12q-5 -9 -11 -22q-4 -8 -9 -17l-2 -6q-3 -5 -4 -8q-2 -4 -3 -5q-3 -10 -7 -17q-9 -23 -19 -47q-7 -13 -17 -33q-9 -18 -20 -41v0q-10 -20 -20 -41q-95 -182 -196 -412l-299 -4v0zM1482 1839v0q1 -2 28 -31.5t73 -66.5
t102 -61q11 -3 20.5 1t14.5 14q3 11 -1 20.5t-14 13.5q-59 4 -101.5 35.5t-63.5 64.5t-18 43q-7 9 -17.5 10t-19.5 -6q-8 -8 -9 -18t6 -19z" />
    <glyph glyph-name="Aacute" unicode="&#xc1;" horiz-adv-x="1540" 
d="M-78 -244v0q1 1 2 1q1 1 2 1q2 1 4 3q24 11 50 27q25 16 52 44l65 109l670 672l107 117l34 38l26 28l310 6l-4 -11l-14 -34q-71 -173 -115 -348q-44 -174 -34 -330q-19 28 -42 48q-23 21 -51 21q-4 0 -9 -4q-5 -3 -8 -7q-4 -5 -3 -9q0 -3 6 -3q49 0 81 -60
q33 -58 45 -101q3 -12 7 -25q1 -2 5 -2t10 2q5 5 8 9q2 5 2 8v0q-1 2 -7 24q-42 168 2 373q44 201 129 403v0l17 40v0l3 6l310 5h3h3t1 1v5q1 3 -1 5q-1 3 -8 4q-6 2 -22 2l-278 -4q98 220 190 399q3 5 5 9q7 15 15 29q5 9 9 18q49 101 77 172q6 18 13 30q3 9 6 17q0 2 1 4
q1 4 2 7q7 16 12 27q21 18 26 26t-1 9q-6 0 -18 -5q-10 -5 -22 -14q-11 -9 -16 -20l-682 -712l-523 -12q-4 -1 -8 -1q-18 0 -33 -4q-15 -3 -15 -16q1 -8 8 -11v0l56 -16q4 -2 9 0q4 1 7 6q1 1 4 5q4 5 10 9q7 4 16 4l450 15l-28 -28l-33 -36l-910 -952q-4 -4 -5 -8t2 -6
q2 -1 4 -4q3 -4 7 -6t7 1v0zM952 816v0l521 570q18 24 46 51q28 30 48 46q0 -2 -5 -12q-5 -9 -11 -22q-4 -8 -9 -17l-2 -6l-4 -8q-2 -4 -3 -5q-3 -10 -7 -17q-9 -23 -20 -47q-6 -13 -16 -33l-21 -42v0q-10 -19 -20 -41q-95 -183 -197 -413l-300 -4v0zM1820 1799v0
q-2 -1 -32.5 -19.5t-78 -38.5t-101.5 -26q-10 0 -17 5.5t-8 15.5t5 17t16 8q51 -11 94.5 5.5t69.5 39t25 31.5q9 6 18 4t15 -10q5 -8 3 -17t-9 -15z" />
    <glyph glyph-name="Acircumflex" unicode="&#xc2;" horiz-adv-x="1540" 
d="M-99 -236v0q1 0 2 1q1 0 2 1q2 1 4 3q23 11 49 27q25 15 53 43l64 109l665 667l107 116l33 38l26 27l308 6l-4 -10l-15 -34q-70 -172 -113 -346q-44 -173 -34 -327q-19 28 -42 48q-22 20 -51 20q-4 0 -9 -4q-5 -3 -8 -7q-4 -5 -3 -8q0 -3 6 -3q49 0 81 -60
q33 -58 45 -101q3 -11 7 -24q1 -2 5 -2t9 2l8 8q3 6 3 9v0q-1 2 -8 23q-41 167 2 371q44 199 129 400v0l17 39v0l3 6l307 5h3h3t1 2v4q1 3 0 6q-2 2 -9 4q-6 1 -22 1l-275 -4q96 219 188 397q3 4 5 9q7 15 15 29q5 9 9 18q48 100 76 170q6 18 13 30q3 9 6 17q1 2 1 4
q1 4 3 7q6 16 11 26q21 19 26 26q5 8 -1 9q-6 0 -17 -5q-11 -4 -23 -14q-11 -8 -16 -19l-677 -708l-520 -12q-4 -1 -8 -1q-17 0 -32 -3t-15 -17q1 -7 8 -10v0l55 -16q4 -2 9 -1q5 2 7 7q1 1 4 5q4 5 11 9q6 4 16 4l446 15l-27 -28l-34 -36l-903 -945q-4 -4 -5 -8t2 -6
q2 -1 4 -4q3 -4 7 -6t7 1v0zM923 816v0l518 566q18 24 46 52q28 29 47 45q0 -2 -5 -12q-5 -8 -11 -21q-4 -9 -9 -18l-2 -6q-2 -5 -3 -8q-2 -4 -3 -5q-4 -10 -7 -17q-9 -23 -20 -46q-7 -13 -16 -33q-9 -18 -21 -41v0q-10 -20 -19 -42q-95 -181 -196 -410l-299 -4v0z
M1545 1668v0q-2 5 13.5 21.5t38.5 34.5t43 29t27 5q13 -18 27 -47t10 -59q4 -12 10.5 -20t18.5 -4q12 5 17 16t1 24q0 1 -7.5 18.5t-19.5 41t-26.5 41.5t-29.5 19q-12 4 -37 -8t-52 -29.5t-46 -31.5t-20 -15q-10 -8 -11 -20t7 -23q8 -9 17.5 -5t18.5 12z" />
    <glyph glyph-name="Atilde" unicode="&#xc3;" horiz-adv-x="1540" 
d="M-102 -247v0q1 0 2 1q1 0 2 1q2 1 4 3q24 11 50 27q25 16 53 44l65 110l672 674l108 118l34 38l26 28l312 6l-4 -11l-15 -34q-71 -174 -115 -350q-44 -175 -34 -331q-19 29 -42 49t-52 20q-4 0 -9 -3q-5 -4 -8 -8q-4 -5 -3 -8q0 -4 6 -4q50 0 82 -60q33 -58 45 -102
q3 -11 7 -24q1 -2 5 -2t10 2l8 8q2 6 2 9v0q-1 2 -7 24q-42 168 2 374q44 202 130 405v0l17 40v0l3 6l311 5h2h3t1 1v5q2 3 0 5q-1 3 -8 4q-6 2 -23 2l-278 -4q98 221 190 401q3 4 5 9q8 15 16 29q5 9 8 18q49 101 78 173q5 17 12 30q4 9 7 17q0 2 1 4q1 4 2 7q7 16 12 27
q22 18 27 26q4 8 -1 9q-7 0 -19 -5q-10 -5 -22 -14q-11 -9 -16 -20l-685 -715l-525 -12q-4 -1 -8 -1q-18 0 -33 -4q-15 -3 -15 -16q1 -8 8 -11v0l56 -16q4 -2 9 -1q4 2 7 7q1 1 4 5q4 5 10 9q7 4 17 4l451 15l-28 -28l-34 -36l-913 -956q-4 -4 -5 -8t2 -6q2 -1 4 -4
q3 -4 7 -6t7 1v0zM932 817v0l524 572q17 24 46 52q28 29 48 46q0 -2 -5 -12q-6 -9 -11 -22q-4 -9 -10 -18l-2 -6q-2 -5 -3 -8q-2 -4 -3 -5q-4 -10 -7 -17q-10 -23 -20 -47q-7 -13 -17 -33q-9 -18 -20 -42v0q-11 -20 -20 -42q-96 -183 -198 -414l-302 -4v0zM1471 1731v0
q4 12 25 32t54.5 23.5t73.5 -33.5q38 -27 63.5 -35.5t50.5 0.5q51 22 76 58q6 8 4.5 18t-9.5 16t-17.5 5t-16.5 -9q-5 -6 -11 -16q-8 -14 -18.5 -27.5t-22.5 -17.5q-13 -4 -28 4.5t-34 23.5q-10 8 -22 17q-40 27 -75 31t-62.5 -5.5t-44.5 -22t-21 -17.5q-7 -8 -7 -23t7 -23
q8 -7 18 -7t17 8z" />
    <glyph glyph-name="Adieresis" unicode="&#xc4;" horiz-adv-x="1540" 
d="M-99 -235v0q1 1 2 1q1 1 2 1q2 1 4 3q24 11 51 27q25 16 53 44l65 111l676 677l108 119l34 38l26 28l313 6l-3 -11l-16 -34q-71 -175 -115 -351t-34 -333q-19 29 -42 49q-24 20 -53 20q-4 0 -9 -3q-4 -3 -8 -7q-4 -6 -3 -9q0 -3 6 -3q50 0 83 -61q33 -59 45 -102
q3 -12 7 -25q1 -2 5 -2t10 2q5 5 8 9q2 5 2 8v0q-1 2 -7 24q-42 169 2 376q44 203 131 407v0l17 40v0l2 6l313 5h3h3t1 2v4q1 3 -1 6q-1 2 -8 4q-6 1 -22 1l-280 -4q98 223 191 403q3 5 5 10q8 15 15 29q6 9 9 18q50 102 78 174q6 17 13 30q3 9 6 17q1 2 1 3q1 5 3 8
q6 16 11 27q22 18 27 26t-1 9q-6 0 -18 -5q-11 -5 -23 -14q-11 -9 -16 -20l-688 -719l-528 -12q-4 -1 -8 -1q-18 0 -33 -3q-15 -4 -15 -17q1 -8 8 -11v0l56 -16q4 -2 9 0q5 1 7 6q1 1 4 6q4 4 11 8q6 4 16 4l454 15l-28 -28l-34 -36l-918 -961q-4 -4 -5 -8t2 -6q2 -1 4 -4
q3 -4 7 -6t7 1v0zM940 834v0l526 576q18 24 47 52q28 29 48 46q0 -2 -5 -12q-5 -9 -11 -22q-4 -9 -9 -18q-2 -3 -3 -6q-2 -6 -3 -8q-2 -4 -3 -5q-4 -10 -7 -17l-20 -48q-7 -13 -17 -33q-9 -18 -20 -42v0q-11 -20 -21 -42q-96 -184 -198 -417l-304 -4v0zM1507 1749v0l2.5 2
t7.5 4t11 3t13.5 -1t16.5 -8q13 -12 8 -27.5t-21.5 -26t-37.5 -7.5q-11 3 -15 9.5t-2 15.5t6 17t7.5 13.5zM1696 1749v0l2.5 2t7 4t11 3t14 -1t16.5 -8q13 -12 8 -27.5t-21.5 -26t-37.5 -7.5q-12 3 -15.5 9.5t-1.5 15.5t6 17t7.5 13.5z" />
    <glyph glyph-name="Aring" unicode="&#xc5;" horiz-adv-x="1512" 
d="M-137 -246v0q1 1 2 1q1 1 3 1l3 3q25 11 51 27q25 16 53 45l66 111l680 681l109 120l34 38l26 28l315 6l-3 -11l-16 -34q-71 -176 -116 -353q-44 -177 -34 -335q-19 29 -43 49q-23 21 -52 21q-4 0 -9 -4q-5 -3 -8 -7q-4 -5 -3 -9q0 -3 6 -3q50 0 83 -61q33 -59 45 -103
q3 -12 7 -25q1 -2 5 -2t10 2q5 5 8 9q3 5 3 8v0q-1 2 -8 24q-42 171 2 379q45 204 132 409v0l17 40v0l3 6l314 6h3h3t1 1v4q1 4 0 6q-2 3 -9 4q-6 2 -22 2l-282 -4q99 224 193 405q2 5 5 10q7 15 15 29q5 9 9 18q50 102 78 175q6 17 13 30q3 10 6 17q1 2 1 4q2 4 3 7
q6 17 11 28q23 18 28 26q4 8 -1 9q-7 0 -19 -5q-11 -5 -23 -14q-11 -9 -16 -20l-692 -723l-531 -12q-4 -1 -8 -1q-18 0 -33 -4q-16 -3 -16 -17q1 -8 8 -11v0l57 -16q4 -2 9 0q5 1 7 6q1 1 4 6q4 4 11 8t16 4l457 16l-28 -29l-35 -36l-923 -967q-4 -4 -5 -8t2 -6q2 -1 4 -4
q3 -4 7 -6t7 1v0zM909 830v0l529 578q18 25 46 53q29 29 49 46q0 -2 -5 -12q-5 -9 -11 -22q-4 -9 -10 -18l-2 -6q-2 -6 -3 -8q-3 -4 -4 -5q-3 -11 -6 -18q-10 -23 -21 -47q-6 -13 -16 -34l-21 -42v0q-10 -20 -20 -42q-97 -185 -200 -419l-305 -4v0zM1606 1730v0
q-34 0 -58 -24v0q-24 -24 -24 -59q0 -34 24 -58v0q24 -24 58 -24q35 0 59 24v0q24 24 24 58q0 35 -24 59v0v0q-24 24 -59 24zM1637 1678v0v0q12 -13 12 -31q0 -17 -12 -30v0q-13 -13 -31 -13q-17 0 -30 13v0q-13 13 -13 30q0 18 13 31v0q13 12 30 12q18 0 31 -12z" />
    <glyph glyph-name="AE" unicode="&#xc6;" horiz-adv-x="2118" 
d="M-32 -238v0q1 0 2 1q1 0 2 1q2 1 4 3q25 11 51 27q25 16 53 45l66 110l678 681l109 119l34 38l26 28l315 6l-4 -11l-15 -34q-72 -175 -116 -353q-44 -176 -34 -334q-20 29 -43 49q-23 21 -52 21q-4 0 -9 -4q-5 -3 -8 -7q-4 -5 -3 -9q0 -3 6 -3q50 0 82 -61q9 -16 17 -30
q0 -16 3 -26l8 1q12 -26 18 -48q3 -12 7 -25q1 -2 5 -2t10 2q5 6 8 9q2 5 2 8v0q-1 2 -7 25q-4 17 -8 35q110 13 225 21q196 14 290 -13q3 -1 8 2q5 2 9 7q4 4 5 8q0 4 -3 5q-28 54 -161 46q-134 -7 -298 -34q-41 -6 -80 -12q-21 144 15 313q38 173 107 348q13 4 25 7
q137 44 267 71q131 26 179 -13q1 -1 4 0q4 2 8 5q4 4 8 7v0q2 2 4 3q38 51 -10 58q-48 8 -141 -12q-93 -21 -188 -51q-93 -29 -147 -52l14 34q22 55 37 84q95 214 185 388q2 5 5 10q7 15 15 29q5 9 9 18q24 50 43 92q131 38 267 49q142 12 251 -36q3 -2 8 0t9 7t5 9t-2 5
q-86 77 -232 67q-141 -9 -287 -57q9 20 16 38q6 18 13 31q3 9 6 17q1 2 1 3q1 5 3 8q6 16 11 27q22 18 27 27q5 7 -1 8q-6 0 -18 -5q-11 -4 -23 -14q-11 -9 -16 -20l-691 -722l-530 -12q-4 -1 -8 -1q-18 0 -33 -3q-15 -4 -15 -17q1 -8 7 -11v0l57 -16q4 -2 9 -1q5 2 7 7l5 5
q3 5 10 9t16 4l456 15l-28 -28l-34 -36l-922 -965q-4 -4 -5 -8t2 -6q2 -1 4 -4q3 -4 7 -6t7 1v0zM1012 835v0l528 578q18 24 46 52q29 30 49 47q0 -2 -5 -12q-6 -9 -11 -23q-5 -9 -10 -17q-1 -4 -2 -7q-2 -5 -4 -8q-2 -4 -3 -5q-3 -10 -7 -17q-9 -23 -20 -47q-6 -14 -16 -34
l-21 -42v0q-10 -20 -20 -42q-97 -185 -200 -419l-304 -4v0z" />
    <glyph glyph-name="Ccedilla" unicode="&#xc7;" horiz-adv-x="1399" 
d="M557 912v0q-6 -1 -8 1q-3 2 0 6q0 5 6 8q5 4 10 6q6 0 114 31q108 32 250 94q142 63 252 156t110 217q0 70 -44 111q-58 53 -167 51q-110 0 -251 -58q-186 -76 -370 -255q-185 -180 -332 -467q-184 -389 -99 -633q43 -111 147 -165t220 -40q159 18 360 154t448 420
q4 5 10 7q5 3 9 2t4 -5t-4 -8q-255 -293 -473 -437q-218 -145 -386 -165q-84 -10 -152 6q-6 -15 -2.5 -33.5t30.5 -32.5q67 -33 77 -87t-51 -99q-47 -27 -165 19q-5 3 -7.5 7.5t-0.5 9.5q2 6 7 8t10 0q100 -33 132 -5q14 9 20 24q6 16 4 33q-2 22 -12 40.5t-25 25.5
q-40 20 -45.5 48t2.5 49q-34 11 -64 29q-97 60 -138 180q-87 248 100 645q152 295 353 481q200 184 394 263q57 24 141 45q83 21 167 21q85 0 142 -38q58 -37 58 -132q0 -107 -80 -193q-79 -86 -195 -151q-115 -64 -231 -107q-115 -44 -193 -66q-78 -21 -82 -21v0z" />
    <glyph glyph-name="Egrave" unicode="&#xc8;" horiz-adv-x="1151" 
d="M803 1461v0q3 5 8 9q5 3 10 3q3 1 9 0q7 -2 11 -4q5 -3 4 -6v0v-1q-1 -1 -2 -3q-3 -9 -14 -37q148 50 292 60q144 9 229 -66q3 -2 2 -6q-1 -3 -5 -8q-4 -6 -9 -8t-8 0q-108 48 -248 36t-275 -52q-12 -23 -30 -51q-114 -167 -290 -601q12 3 24 7q54 23 148 53t186 50
t139 12q48 -7 10 -57q-2 -1 -4 -3v0q-4 -3 -8 -7q-4 -3 -7 -5q-4 -1 -5 0q-47 39 -176 13q-128 -27 -264 -70q-13 -4 -27 -8q-13 -3 -24 -6q-14 -37 -29 -74q2 -11 -2 -21q-4 -9 -9 -16q-2 -3 -4 -5q-1 -2 -2 -2q-90 -243 -183 -550q38 6 77 12q66 11 136 22q163 27 295 34
t159 -46q3 -1 3 -5q-1 -4 -5 -8q-3 -5 -8 -7q-6 -3 -9 -2q-93 27 -286 13t-370 -40l-6 -20q-1 -4 -5 -8q-5 -5 -10 -7q-5 -1 -7 1q-3 1 -2 6l7 25q-74 -11 -126 -19q-9 -1 -17 -3q-56 -9 -61 -10h-1q-4 -1 -6 2q-2 2 0 7q3 5 8 9q4 3 9 4q5 3 60 13q26 4 59 10q37 6 83 14
q96 317 192 571q3 12 -10 23q-12 13 -51 18q-10 3 -13 6q-11 18 53 43q25 11 65 23q187 460 286 643q-118 -39 -195 -72q-2 -1 -3 -2q-73 -31 -76 -33q-5 -3 -8 -2q-4 1 -4 5q1 5 5 9q3 4 8 7q6 5 89 44q83 40 206 86q9 16 15 28q16 28 17 30v0v0zM436 651v0l10 24
q5 13 10 25q-4 -1 -6 -2q-26 -3 -46 -12q-10 -4 -17 -9q-6 -6 -5 -8q1 -1 5 -2q37 -6 49 -16v0zM930 1843v0q1 -2 28.5 -31.5t73.5 -66.5t103 -61q11 -4 20.5 0.5t13.5 14.5q4 11 0 20.5t-15 13.5q-59 4 -101.5 35.5t-64 65t-17.5 43.5q-7 8 -17.5 9t-19.5 -5
q-9 -8 -10 -18.5t6 -19.5z" />
    <glyph glyph-name="Eacute" unicode="&#xc9;" horiz-adv-x="1151" 
d="M797 1436v0q3 5 8 8q4 4 9 4q3 1 10 -1q6 -2 10 -4q5 -2 4 -5v-0.5v-0.5q-1 -1 -2 -4q-3 -9 -14 -35q146 49 287 58q142 9 225 -65q3 -1 2 -5t-5 -9t-9 -7t-8 0q-105 47 -243 36q-138 -12 -270 -52q-12 -23 -30 -50q-111 -165 -284 -590q11 3 23 7q53 22 145 51
q93 30 183 50q90 19 137 12t10 -57q-2 -1 -4 -3v0l-8 -6t-8 -5q-3 -1 -4 0q-47 38 -173 12t-259 -68q-13 -4 -27 -8q-12 -3 -23 -6q-14 -36 -29 -73q2 -11 -2 -20q-3 -9 -8 -16q-3 -3 -4 -5l-2 -2q-89 -239 -180 -540q37 6 76 12q64 10 133 21q160 26 289 33q130 7 157 -44
q3 -1 3 -6q-1 -4 -5 -8t-8 -7q-5 -2 -8 -1q-92 26 -282 12q-189 -13 -363 -39l-6 -19q-1 -4 -5 -8q-5 -5 -10 -7q-5 -1 -7 1q-2 1 -1 6l6 24q-73 -10 -123 -18q-9 -2 -18 -3q-54 -9 -59 -10h-1q-4 -1 -6 2q-2 2 0 7q3 5 7 8q5 4 10 5q5 3 58 12q26 4 58 10q37 6 82 14
q94 311 189 560q2 12 -10 24t-51 18q-9 2 -12 5q-11 18 52 43q25 10 64 22q183 452 281 631q-116 -38 -191 -70l-4 -2q-71 -31 -74 -33q-5 -3 -9 -2q-3 1 -3 5q1 5 4 9q4 4 9 7q6 5 87 43q81 39 202 84q9 16 15 28q15 28 17 30v0v0zM437 640v0l10 24q4 12 9 24q-4 -1 -6 -2
q-25 -3 -45 -11q-10 -4 -17 -10q-6 -5 -5 -8q1 -1 6 -2q35 -5 48 -15v0zM1256 1774v0q-1 -2 -31 -20t-77 -37.5t-100 -25.5q-9 0 -16 5.5t-8 15.5q-1 9 5 16t15 9q50 -11 93 4.5t68.5 38t24.5 31.5q9 6 17.5 4t14.5 -10q5 -8 3.5 -17t-9.5 -14z" />
    <glyph glyph-name="Ecircumflex" unicode="&#xca;" horiz-adv-x="1151" 
d="M828 1444v0q3 5 8 8q4 4 9 4q3 1 10 -1q6 -2 10 -4q5 -2 4 -5v-0.5v-0.5q-1 -1 -2 -4q-3 -9 -14 -35q146 49 287 58q142 9 225 -65q3 -1 2 -5t-5 -9t-9 -7t-8 0q-105 47 -243 36q-138 -12 -270 -52q-12 -23 -30 -50q-111 -165 -284 -590q11 3 23 7q53 22 145 51
q93 30 183 50q90 19 137 12t10 -57q-2 -1 -4 -3v0l-8 -6t-8 -5q-3 -1 -4 0q-47 38 -173 12t-259 -68q-13 -4 -27 -8q-12 -3 -23 -6q-14 -36 -29 -73q2 -11 -2 -20q-3 -9 -8 -16q-3 -3 -4 -5l-2 -2q-89 -239 -180 -540q37 6 76 12q64 10 133 21q160 26 289 33q130 7 157 -44
q3 -2 3 -6q-1 -4 -5 -8t-8 -7q-5 -2 -8 -1q-92 26 -282 12q-189 -13 -363 -39l-6 -19q-1 -4 -5 -8q-5 -5 -10 -7q-5 -1 -7 1q-2 1 -1 6l6 24q-73 -10 -123 -18q-9 -2 -18 -3q-54 -9 -59 -10h-1q-4 -1 -6 2q-2 2 0 7q3 5 7 8q5 4 10 5q5 3 58 12q26 4 58 10q37 6 82 14
q94 311 189 560q2 12 -10 24t-51 18q-9 2 -12 5q-11 18 52 43q25 10 64 22q183 452 281 631q-116 -38 -191 -70l-4 -2q-71 -31 -74 -33q-5 -3 -9 -2q-3 1 -3 5q1 5 4 9q4 4 9 7q6 5 87 43q81 39 202 84q9 16 15 28q15 28 17 30v0v0zM468 648v0l10 24q4 12 9 24q-4 -1 -6 -2
q-25 -3 -45 -11q-10 -4 -17 -10q-6 -5 -5 -8q1 -1 6 -2q35 -5 48 -15v0zM980 1695v0q-2 5 13.5 21t38 34t42.5 28.5t27 5.5q12 -17 26 -46t10 -59q5 -12 11.5 -19.5t17.5 -4.5q12 5 17 16t1 23q0 1 -7.5 19t-19.5 41t-26.5 41t-28.5 18q-12 4 -36.5 -7.5t-51.5 -29t-46 -31
t-19 -14.5q-10 -9 -11.5 -21t6.5 -22q8 -9 17.5 -5t18.5 12z" />
    <glyph glyph-name="Edieresis" unicode="&#xcb;" horiz-adv-x="1151" 
d="M792 1452v0q3 4 8 8q4 3 9 3q3 1 10 0q6 -2 10 -4q5 -3 4 -6v0v0l-2 -4q-3 -9 -14 -36q146 49 287 59q142 9 225 -65q3 -1 2 -5t-5 -9t-9 -7t-8 0q-105 47 -243 35t-270 -51q-12 -23 -30 -51q-111 -164 -284 -590q11 3 23 7q53 23 145 52q93 30 183 49q90 20 137 12
q47 -7 10 -56q-2 -1 -4 -3v0l-8 -6q-4 -4 -8 -5q-3 -2 -4 -1q-47 38 -173 13q-126 -26 -259 -68q-13 -4 -27 -8q-12 -3 -23 -6q-14 -36 -29 -74q2 -10 -2 -20q-3 -9 -8 -15q-3 -3 -4 -5q-2 -2 -2 -3q-89 -238 -180 -540q37 6 76 13q64 10 133 21q160 26 289 33
q130 7 157 -45q3 -1 3 -5q-1 -4 -5 -8q-4 -5 -8 -7q-5 -3 -8 -2q-92 27 -282 13q-189 -13 -363 -39l-6 -20q-1 -3 -5 -8q-5 -4 -10 -6q-5 -1 -7 0q-2 2 -1 7l6 24q-73 -11 -123 -19l-18 -2q-54 -9 -59 -10h-1q-4 -1 -6 1q-2 3 0 8q3 5 7 8q5 3 10 4q5 3 58 13q26 4 58 9
q37 7 82 14q94 312 189 561q2 12 -10 23q-12 12 -51 18q-9 2 -12 5q-11 19 52 43q25 11 64 23q183 451 281 631q-116 -39 -191 -71q-2 -1 -4 -1q-71 -31 -74 -33q-5 -3 -9 -2q-3 1 -3 5q1 5 4 9q4 4 9 7q6 5 87 43q81 39 202 84q9 16 15 28q15 27 17 30v0v0zM432 655v0
l10 24q4 13 9 25q-4 -1 -6 -2q-25 -4 -45 -12q-10 -4 -17 -9q-6 -5 -5 -8q1 -1 6 -2q35 -5 48 -16v0zM842 1729v0l2.5 2t7 4t10.5 3t13.5 -1t15.5 -8q13 -12 8 -27t-21 -25.5t-36 -7.5q-12 3 -15.5 9.5t-2 15t5.5 16.5t8 13.5zM1026 1729v0l2.5 2t7 4t10.5 3t13.5 -1
t15.5 -8q13 -12 8 -27t-21 -25.5t-36 -7.5q-12 3 -15.5 9.5t-2 15t5.5 16.5t8 13.5z" />
    <glyph glyph-name="Igrave" unicode="&#xcc;" horiz-adv-x="1176" 
d="M845 1809v0q1 -2 28 -31t72 -65.5t101 -59.5q10 -4 19.5 0t14.5 14q3 11 -1 20.5t-14 13.5q-58 4 -99.5 35t-63 63.5t-17.5 42.5q-7 8 -17.5 9t-19.5 -5q-8 -8 -9 -18t6 -19zM964 1540v0q1 5 5 10q4 4 10 7q6 2 10 1q3 -1 3 -5q-1 -3 -14 -39q254 41 390 32
q83 -3 127 -15t59 -30q15 -17 12 -35t-13 -30t-16 -15q-3 -5 -9 -8t-10 -2q-5 0 -5 3q-1 4 3 9l2 3q2 4 3 9q2 6 1 13q-1 6 -6 14t-17 15q-13 8 -33 14q-20 7 -52 13q-31 5 -76 8q-131 8 -373 -27q-59 -144 -182 -438q-124 -294 -248 -586q-125 -292 -185 -431
q-7 -16 -16 -29q147 23 256 44q110 22 128 27h2q4 1 7 -2q2 -2 1 -7q-3 -5 -8 -9t-11 -5q-15 -5 -131 -29q-117 -25 -273 -53l-2 -2l-1 -1q-2 -5 -7 -8q-5 -4 -11 -6q-5 -1 -8 1q-2 3 0 8l1 3q-188 -32 -330 -37q-141 -5 -132 49q3 9 6 13q2 5 7 9q5 5 11 6q5 0 8 -1
q22 -19 97 -26q74 -8 174 0q84 7 174 20q38 87 120 273q29 67 64 146q112 255 226 517q21 47 42 95q2 5 4 11q132 302 193 444q-133 -19 -250 -39q-118 -20 -194 -35q-76 -14 -79 -15q-5 -1 -7 1q-3 3 -1 7q3 6 8 9q5 4 11 5v1q20 4 173 34q154 31 350 61q12 28 12 30v0z
" />
    <glyph glyph-name="Iacute" unicode="&#xcd;" horiz-adv-x="1010" 
d="M1229 1769v0q-1 -1 -31 -19t-77 -37.5t-100 -25.5q-9 -1 -16 5t-9 15q0 10 5.5 17t15.5 8q50 -11 92.5 5t68.5 38.5t25 31.5q8 5 17 3.5t15 -9.5q5 -8 3.5 -17t-9.5 -15zM932 1538v0q1 5 5 9q4 5 10 8q6 2 10 1q3 -1 3 -5q-1 -3 -14 -39q254 41 390 32q83 -3 127 -15
t59 -30t12 -36q-3 -17 -13 -29q-10 -13 -16 -16q-3 -4 -9 -7t-10 -2q-5 0 -5 3q-1 4 3 8l2 4q2 3 3 9q2 5 1 12t-6 15q-5 7 -17 15q-13 7 -33 14t-52 12q-31 6 -76 9q-131 7 -373 -28q-59 -144 -182 -438q-124 -294 -248 -586q-125 -292 -185 -430q-7 -16 -16 -29
q147 22 256 44q110 22 128 26h2q4 1 7 -1q2 -2 1 -7q-3 -5 -8 -9t-11 -5q-15 -5 -131 -30q-117 -25 -273 -52l-2 -2l-1 -1q-2 -5 -7 -9t-11 -6q-5 -1 -8 2q-2 2 0 7l1 4q-188 -32 -330 -37q-141 -5 -132 48q3 9 6 14q2 4 7 8q5 5 11 6q5 1 8 -1q22 -19 97 -26q74 -7 174 0
q84 8 174 20q38 87 120 274q29 66 64 146q112 255 226 517q21 47 42 95l4 10q132 303 193 444q-133 -18 -250 -39q-118 -19 -194 -34t-79 -16q-5 -1 -7 2q-3 2 -1 7q3 5 8 9t11 5v1q20 4 173 34q154 30 350 61q12 28 12 30v0z" />
    <glyph glyph-name="Icircumflex" unicode="&#xce;" horiz-adv-x="1056" 
d="M968 1684v0q-3 5 12.5 21t38.5 33.5t42.5 28.5t26.5 6q13 -18 27 -47t10 -58q4 -12 10.5 -20t18.5 -4q12 5 17 16t0 23q0 1 -7.5 18.5t-19.5 41t-26 41t-29 18.5q-12 4 -36.5 -7.5t-51 -29t-45.5 -31.5t-20 -15q-10 -8 -11.5 -20t6.5 -22q8 -9 17.5 -5.5t19.5 12.5z
M936 1539v0q1 5 5 9q4 5 10 8q6 2 10 1q3 -1 3 -5q-1 -3 -14 -39q254 41 390 32q83 -3 127 -15t59 -30t12 -35q-3 -18 -13 -30q-10 -13 -16 -16q-3 -4 -9 -7t-10 -2q-5 0 -5 3q-1 4 3 8l2 4q2 3 3 9q2 5 1 12t-6 15q-5 7 -17 15q-13 7 -33 14t-52 12q-31 6 -76 9
q-131 8 -373 -28q-59 -143 -182 -438q-124 -294 -248 -586q-125 -292 -185 -430q-7 -16 -16 -29q147 22 256 44q110 22 128 26h2q4 1 7 -1q2 -2 1 -7q-3 -5 -8 -9t-11 -5q-15 -5 -131 -30q-117 -25 -273 -52l-2 -2l-1 -1q-2 -5 -7 -9t-11 -6q-5 -1 -8 2q-2 2 0 7l1 4
q-188 -32 -330 -37q-141 -5 -132 49q3 9 6 13q2 4 7 8q5 5 11 6q5 1 8 -1q22 -18 97 -26q74 -7 174 1q84 7 174 19q38 87 120 274q29 67 64 146q112 255 226 517q21 48 42 95l4 10q132 303 193 444q-133 -18 -250 -38q-118 -20 -194 -35t-79 -16q-5 -1 -7 2q-3 2 -1 7
q3 5 8 9t11 5v1q20 4 173 34q154 31 350 61q12 28 12 30v0z" />
    <glyph glyph-name="Idieresis" unicode="&#xcf;" horiz-adv-x="981" 
d="M853 1711v0l2.5 2t6.5 4.5t10.5 3.5t14 -1t15.5 -9q13 -11 8 -26.5t-21 -25.5t-36 -7q-12 3 -15.5 9.5t-2 15t5.5 16.5t8 13zM1037 1711v0l2.5 2t7 4.5t10.5 3.5t13.5 -1t15.5 -9q13 -11 8 -26.5t-21 -25.5t-36 -7q-12 3 -15.5 9.5t-2 15t5.5 16.5t8 13zM918 1541v0
q1 5 5 9q4 5 10 8q6 2 10 1q3 -1 3 -5q-1 -3 -14 -40q254 42 390 33q83 -3 127 -15q44 -13 59 -30q15 -18 12 -36q-3 -17 -13 -29q-10 -13 -16 -16q-3 -4 -9 -7t-10 -2q-5 0 -5 3q-1 4 3 8l2 4q2 3 3 9q2 5 1 12t-6 15q-5 7 -17 15q-13 7 -33 14t-52 12q-31 6 -76 8
q-131 8 -373 -27q-59 -144 -182 -438q-124 -294 -248 -586q-125 -292 -185 -431q-7 -15 -16 -28q147 22 256 44q110 22 128 26h2q4 1 7 -1q2 -3 1 -7q-3 -5 -8 -9t-11 -5q-15 -5 -131 -30q-117 -25 -273 -52l-2 -2l-1 -1q-2 -5 -7 -9t-11 -6q-5 -1 -8 2q-2 2 0 7l1 4
q-188 -32 -330 -37q-141 -5 -132 48q3 9 6 14q2 4 7 8q5 5 11 6q5 1 8 -1q22 -19 97 -26q74 -7 174 0q84 7 174 20q38 87 120 274q29 66 64 146q112 255 226 517q21 47 42 95l4 10q132 303 193 444q-133 -18 -250 -39q-118 -20 -194 -34q-76 -15 -79 -16q-5 -1 -7 2
q-3 2 -1 7q3 5 8 9t11 5v1q20 4 173 34q154 30 350 60q12 29 12 31v0z" />
    <glyph glyph-name="Eth" unicode="&#xd0;" horiz-adv-x="1518" 
d="M-153 904v0q0 -4 -5 -9q-4 -4 -9 -6t-8 -1q-3 2 -2 7q-1 2 20 64q22 63 80 158t166 195t279 180q84 37 175 61q92 25 162 25q255 -34 360 -197q105 -164 101 -400q-3 -160 -69 -324q-67 -165 -162 -309q-217 -313 -457 -353q-84 -14 -148 9q-65 24 -92 104
q-29 133 54 236t191 165q6 3 10 3t4 -4q1 -3 -2 -7q-3 -5 -9 -9q-178 -115 -210 -245q-17 -61 -4 -112q14 -52 55 -84q57 -46 160 -33q218 40 420 340q194 305 208 638q-1 158 -54 278q-56 126 -160 195q-105 70 -247 71q-132 1 -289 -67q-162 -75 -265 -171
q-102 -96 -157 -187q-55 -90 -76 -149q-20 -59 -20 -62v0zM508 804v0h-5q-62 12 -100 16t-112 3h-18q81 201 161 357q20 41 40 71q14 21 23 39v-4q0 -6 4 -10q4 -5 11 -5q6 0 10 4t4 11v0v9q0 8 1 18v5q1 13 0 24t-2 13q0 2 -2 4v0v0q-2 6 -8 7t-12 -2q-29 -21 -49 -61
q-21 -40 -36 -82q-5 -12 -10 -23q-4 -11 -8 -21q-74 -157 -148 -354q-88 -2 -197.5 -9t-194.5 -19q-6 -1 -9 -5t-2 -10q1 -5 5 -8t9 -3q149 25 341 29q19 0 38 -1q-22 -61 -45 -126q-102 -291 -93 -461q1 -6 6 -9q5 -4 10 -4q7 1 11 6q3 5 2 11q-19 189 88 474q21 56 42 109
q124 -4 230 -27q5 -2 12.5 0t10.5 9q4 5 3 10.5t-4.5 9.5t-6.5 5z" />
    <glyph glyph-name="Ntilde" unicode="&#xd1;" horiz-adv-x="1554" 
d="M552 1403v0q3 4 12 12q8 8 17 14q9 7 13 8q3 -1 8 -8q6 -6 10 -15q4 -8 2 -11q-4 -5 -14 -10q-9 -5 -20 -10t-20 -10q-9 -4 -13 -9q-167 -236 -270 -430q-101 -190 -184 -423l8 10q92 117 281 340t399 428q209 206 363 268q68 27 128 28t73 -28q32 -69 -28 -198
t-157 -290q-46 -78 -91 -159q-21 -38 -42 -78q-73 -128 -135 -248q-113 -234 -189 -468q-76 -235 -114 -396t-38 -162q-1 -4 -5 -8t-10 -6t-9 0q-3 1 -2 5q0 1 32 164q33 164 104 400q70 236 184 471q81 159 176 327q115 204 194 370q79 165 61 232q-16 49 -124 10
q-166 -72 -384 -283q-218 -212 -403 -430q-186 -217 -255 -307q-8 -9 -16 -25q-8 -17 -14 -30q-3 -9 -4 -10q-2 -4 -9 -5t-12 3q-5 2 -6 6q-2 3 -1 7q0 4 1 6q95 287 210 515q59 112 138 228q80 117 155 205v0zM901 1837v0q4 11 24.5 31t53 23.5t72.5 -32.5q37 -27 62 -35
t49 0q51 22 74 57q6 8 5 17.5t-9 16.5q-8 6 -17.5 4.5t-15.5 -8.5q-5 -7 -11 -17q-8 -13 -18 -26t-23 -18q-12 -3 -27 5.5t-33 22.5q-10 8 -22 17q-39 27 -73 30.5t-61 -6t-43.5 -21.5t-20.5 -17q-7 -8 -7 -22.5t7 -22.5q8 -7 17.5 -6.5t16.5 7.5z" />
    <glyph glyph-name="Ograve" unicode="&#xd2;" horiz-adv-x="1367" 
d="M1193 1296v0q-1 4 2 8q3 5 7 7q5 4 10 4q4 0 5 -3q58 -138 5 -374q-52 -235 -215 -463q-222 -369 -611 -508q-144 -46 -234 -1q-92 47 -128 167q-35 121 -18 283q23 222 131 458q108 237 288 415q260 246 478 275q274 30 356 -122q83 -152 18 -405q-1 -4 -4 -8
q-4 -4 -9 -6q-6 -1 -9 0q-2 2 -1 6q48 205 -12 335q-44 97 -133 142t-210 29q-210 -23 -461 -255q-173 -171 -267 -391q-94 -219 -115 -436q-15 -103 13 -248q28 -144 94 -196q94 -52 241 -9q183 63 325 197t247 309q134 225 189 442q55 216 18 348v0zM784 1899v0
q1 -2 28 -31.5t72 -66t101 -59.5q10 -3 19.5 1t14.5 14q3 10 -1 19.5t-14 14.5q-58 4 -99.5 34.5t-63 63.5t-17.5 43q-7 8 -17.5 9t-18.5 -6q-9 -7 -10 -17.5t6 -18.5z" />
    <glyph glyph-name="Oacute" unicode="&#xd3;" horiz-adv-x="1614" 
d="M1196 1300v0q-1 4 2 8q3 5 7 7q5 4 10 4q4 0 5 -3q58 -138 5 -374q-52 -235 -215 -463q-222 -369 -611 -508q-144 -46 -234 -1q-92 47 -128 167q-35 121 -18 283q23 222 131 458q108 237 288 415q260 246 478 275q274 30 356 -122q83 -152 18 -405q-1 -4 -4 -8
q-4 -4 -9 -6q-6 -1 -9 0q-2 2 -1 6q48 205 -12 335q-44 97 -133 142t-210 29q-210 -23 -461 -255q-173 -171 -267 -391q-94 -219 -115 -436q-15 -103 13 -248q28 -144 94 -196q94 -52 241 -9q183 63 325 197t247 309q134 225 189 442q55 216 18 348v0zM1195 1865v0
q-2 -1 -32 -19t-77 -37.5t-99 -25.5q-10 -1 -17 5t-8 15q-1 10 5 17t16 8q50 -11 92.5 5t68 38.5t25.5 31.5q8 5 17 3.5t14 -9.5q6 -8 4 -17t-9 -15z" />
    <glyph glyph-name="Ocircumflex" unicode="&#xd4;" horiz-adv-x="1614" 
d="M1190 1288v0q-1 4 2 8q3 5 7 8q5 4 10 4q4 0 5 -3q58 -139 5 -374q-52 -236 -215 -464q-222 -369 -611 -508q-144 -46 -234 -1q-92 48 -128 168q-35 120 -18 283q23 222 131 458t288 414q260 247 478 275q274 30 356 -122q83 -152 18 -404q-1 -4 -4 -9q-4 -4 -9 -6
q-6 -1 -9 1q-2 1 -1 5q48 205 -12 336q-44 97 -133 141q-89 46 -210 30q-210 -24 -461 -255q-173 -172 -267 -392q-94 -219 -115 -435q-15 -104 13 -248q28 -145 94 -196q94 -53 241 -10q183 63 325 198q142 133 247 308q134 226 189 442t18 348v0zM1017 1730v0q-2 5 13 21
t38 34t43 29t27 5q12 -17 26 -46t10 -58q4 -13 11 -20.5t18 -4.5q12 5 17 16t1 23q0 2 -7.5 19.5t-19.5 40.5t-26.5 41t-28.5 19q-12 3 -36.5 -8.5t-51.5 -29t-46 -31t-20 -14.5q-9 -9 -10.5 -21t6.5 -22q8 -9 17 -5t19 12z" />
    <glyph glyph-name="Otilde" unicode="&#xd5;" horiz-adv-x="1570" 
d="M1199 1295v0q-1 4 2 8q3 5 7 7q5 4 10 4q4 0 5 -3q58 -138 5 -374q-52 -235 -215 -463q-222 -369 -611 -508q-144 -46 -234 -1q-92 47 -128 168q-35 120 -18 282q23 222 131 459q108 236 288 414q260 247 478 275q274 30 356 -122q83 -152 18 -405q-1 -3 -4 -8
q-4 -4 -9 -6q-6 -1 -9 0q-2 2 -1 6q48 205 -12 335q-44 97 -133 142t-210 29q-210 -23 -461 -255q-173 -171 -267 -391q-94 -219 -115 -436q-15 -103 13 -248q28 -144 94 -196q94 -52 241 -9q183 63 325 197t247 309q134 225 189 442q55 216 18 348v0zM864 1788v0
q4 12 24.5 31.5t53 23.5t71.5 -33q37 -27 62 -35t50 1q50 21 74 56q6 9 5 18.5t-9 15.5t-17.5 5t-16.5 -9q-4 -6 -10 -16q-8 -14 -18.5 -26.5t-22.5 -17.5q-12 -4 -27 4.5t-33 23.5q-10 8 -22 16q-39 27 -73 31t-61 -5.5t-44 -22t-21 -16.5q-7 -9 -6.5 -23t7.5 -22
q7 -7 16.5 -7t17.5 7z" />
    <glyph glyph-name="Odieresis" unicode="&#xd6;" horiz-adv-x="1524" 
d="M1189 1287v0q-1 4 2 8q3 5 7 7q5 4 10 4q4 0 5 -3q58 -138 5 -374q-52 -235 -215 -463q-222 -369 -611 -508q-144 -46 -234 -1q-92 47 -128 168q-35 120 -18 282q23 222 131 459q108 236 288 414q260 247 478 275q274 30 356 -122q83 -152 18 -404q-1 -4 -4 -9
q-4 -4 -9 -6q-6 -1 -9 1q-2 1 -1 5q48 205 -12 335q-44 97 -133 142t-210 29q-210 -23 -461 -255q-173 -171 -267 -391q-94 -219 -115 -436q-15 -103 13 -248q28 -144 94 -196q94 -52 241 -9q183 63 325 197t247 309q134 225 189 442q55 216 18 348v0zM945 1781v0l2.5 2
t7 4.5t10.5 3t13.5 -1t15.5 -8.5q13 -11 8.5 -26.5t-21 -25.5t-36.5 -7q-11 3 -15 9.5t-2 15t6 16.5t7.5 13zM1129 1781v0l2.5 2t7 4.5t10.5 3t13.5 -1t15.5 -8.5q14 -11 9 -26.5t-21.5 -25.5t-36.5 -7q-11 3 -15 9.5t-2 15t6 16.5t7.5 13z" />
    <glyph glyph-name="Oslash" unicode="&#xd8;" horiz-adv-x="1614" 
d="M123 66q20 -33 45 -53q52 -29 120 -29q55 0 121 19q182 63 325 198q142 134 247 309q134 225 189 441q32 128 32 227q0 67 -15 121v2q0 3 2 6q3 5 8 8q5 4 9 4q5 0 6 -3q30 -73 30 -171q0 -91 -25 -203q-52 -236 -216 -464q-222 -369 -610 -507q-73 -24 -132 -24
q-58 0 -102 23q-39 20 -67 52l-87 -114l-58 -59q-6 -6 -10 -6h-5q-5 0 -8 4q-1 2 -1 5q0 5 4 13l141 189q-23 36 -37 83q-24 82 -24 185q0 47 5 98q24 222 132 458t288 414q259 247 477 275q45 5 86 5q109 0 179 -36l104 139q28 25 44 25h3q15 -2 16.5 -11.5t1.5 -11.5
q0 -12 -7 -21l-24 -33l-91 -120q27 -24 45 -57q47 -86 47 -203q0 -91 -29 -202q-1 -4 -5 -9q-4 -4 -9 -6h-3q-3 0 -5 1q-1 1 -1 3v2q21 92 21 168q0 96 -33 168q-24 53 -62 91zM1141 1494q-13 8 -27 15q-67 34 -151 34q-29 0 -60 -4q-210 -24 -460 -255q-173 -172 -267 -391
q-94 -220 -116 -436q-5 -35 -5 -74q0 -78 19 -174q11 -60 30 -105z" />
    <glyph glyph-name="Ugrave" unicode="&#xd9;" horiz-adv-x="1044" 
d="M234 1348v0q-5 -3 -9 -3q-5 0 -6 3q-1 4 1 7q3 4 8 7h1q6 5 43 29q38 24 89 51t95 39q45 12 64 -7q20 -36 1 -81q-18 -45 -60 -112q-37 -59 -84 -147l-4 -8q-3 -5 -5 -9q-86 -167 -172 -352q-85 -186 -119 -344q-35 -158 27 -242q56 -65 136 -48q79 18 163 84
q85 65 158 144q74 79 120 137t48 61q3 4 7 7q85 205 175 401t153 325q23 46 38 77q26 53 28 57q3 6 9 9q7 4 14 4v0q1 0 4 -1q6 -1 12 -5t6 -17q1 -12 -9 -38l-2 -1q-7 -9 -31 -43q-25 -35 -49 -79q-90 -170 -221 -445q-130 -276 -211 -530q0 -3 -1 -7q-1 -6 -3 -15v0
q-3 -14 -5 -30q-4 -28 -8 -42q-2 -6 -7 -9q-5 -2 -11 0q-6 1 -9 7q-4 5 -1 11q39 140 109 320q-59 -79 -183 -205q-122 -126 -255 -194q-133 -69 -223 27q-63 87 -17 270q46 182 143 393q97 210 187 382q1 4 3 7q4 7 7 14q53 102 84 167t26 73q-14 10 -53 -2
q-40 -13 -86 -36q-46 -22 -80 -41q-33 -18 -35 -20v0zM741 1789v0q1 -2 28 -31t72 -65.5t101 -59.5q10 -4 19.5 0t14.5 14q3 11 -1 20.5t-14 13.5q-58 4 -100 35t-63 63.5t-17 42.5q-7 8 -17.5 9t-19.5 -5q-8 -8 -9 -18t6 -19z" />
    <glyph glyph-name="Uacute" unicode="&#xda;" horiz-adv-x="1039" 
d="M231 1338v0q-5 -3 -9 -3q-5 0 -6 3q-1 4 1 7q3 4 8 7h1q6 5 43 29q38 24 89 51t95 39q45 12 64 -7q20 -36 1 -81q-18 -45 -60 -112q-37 -59 -84 -147l-4 -8q-3 -5 -5 -9q-86 -167 -172 -352q-85 -186 -119 -344q-35 -158 27 -242q56 -65 136 -48q79 18 163 84
q85 65 158 144q74 79 120 137t48 61q3 4 7 7q85 205 175 401t153 325q23 46 38 77q26 53 28 57q3 6 9 9q7 4 14 4v0q1 0 4 -1q6 -1 12 -5t6 -17q1 -12 -9 -38l-2 -1q-7 -9 -31 -43q-25 -35 -49 -79q-90 -170 -221 -445q-130 -276 -211 -530q0 -3 -1 -7q-1 -6 -3 -15v0
q-3 -14 -5 -30q-4 -28 -8 -42q-2 -6 -7 -9q-5 -2 -11 0q-6 1 -9 7q-4 5 -1 11q39 140 109 320q-59 -79 -183 -205q-122 -126 -255 -194q-133 -69 -223 27q-63 87 -17 270q46 182 143 393q97 210 187 382q1 4 3 7q4 7 7 14q53 102 84 167t26 73q-14 10 -53 -2
q-40 -13 -86 -36q-46 -22 -80 -41q-33 -18 -35 -20v0zM1163 1780v0q-1 -1 -31 -19t-77.5 -38t-99.5 -26q-10 0 -17 5.5t-8 15.5q0 10 5.5 17t15.5 8q50 -11 92.5 5t68.5 38.5t25 31.5q8 5 17 3.5t15 -9.5q5 -8 3 -17t-9 -15z" />
    <glyph glyph-name="Ucircumflex" unicode="&#xdb;" horiz-adv-x="1037" 
d="M220 1338v0q-5 -3 -9 -3q-5 0 -6 3q-1 4 1 7q3 4 8 7h1q6 5 43 29q38 24 89 51t95 39q45 12 64 -7q20 -36 1 -81q-18 -45 -60 -112q-37 -59 -84 -147l-4 -8q-3 -5 -5 -9q-86 -167 -172 -352q-85 -186 -119 -344q-35 -158 27 -242q56 -65 136 -48q79 18 163 84
q85 65 158 144q74 79 120 137t48 61q3 4 7 7q85 205 175 401t153 325q23 46 38 77q26 53 28 57q3 6 9 9q7 4 14 4v0q1 0 4 -1q6 -1 12 -5t6 -17q1 -12 -9 -38l-2 -1q-7 -9 -31 -43q-25 -35 -49 -79q-90 -170 -221 -445q-130 -276 -211 -530q0 -3 -1 -7q-1 -6 -3 -15v0
q-3 -14 -5 -30q-4 -28 -8 -42q-2 -6 -7 -9q-5 -2 -11 0q-6 1 -9 7q-4 5 -1 11q39 140 109 320q-59 -79 -183 -205q-122 -126 -255 -194q-133 -69 -223 27q-63 87 -17 270q46 182 143 393q97 210 187 382q1 4 3 7q4 7 7 14q53 102 84 167t26 73q-14 10 -53 -2
q-40 -13 -86 -36q-46 -22 -80 -41q-33 -18 -35 -20v0zM877 1808v0q-3 5 12.5 21t38.5 34t43 28.5t26 5.5q13 -18 27 -47t10 -58q4 -12 10.5 -20t18.5 -4q12 5 17 16t1 23q-1 1 -8 19t-19.5 41t-26.5 40.5t-28 18.5q-13 4 -37.5 -7.5t-51 -29t-45.5 -31.5t-20 -15
q-10 -8 -11 -20t6 -22q8 -9 17.5 -5.5t19.5 12.5z" />
    <glyph glyph-name="Udieresis" unicode="&#xdc;" horiz-adv-x="1004" 
d="M226 1338v0q-5 -3 -9 -3q-5 0 -6 3q-1 4 1 7q3 4 8 7h1q6 5 43 29q38 24 89 51t95 39q45 12 64 -7q20 -36 1 -81q-18 -45 -60 -112q-37 -59 -84 -147l-4 -8q-3 -5 -5 -9q-86 -167 -172 -352q-85 -186 -119 -344q-35 -158 27 -242q56 -65 136 -48q79 18 163 84
q85 65 158 144q74 79 120 137t48 61q3 4 7 7q85 205 175 401t153 325q23 46 38 77q26 53 28 57q3 6 9 9q7 4 14 4v0q1 0 4 -1q6 -1 12 -5t6 -17q1 -12 -9 -38l-2 -1q-7 -9 -31 -43q-25 -35 -49 -79q-90 -170 -221 -445q-130 -276 -211 -530q0 -3 -1 -7q-1 -6 -3 -15v0
q-3 -14 -5 -30q-4 -28 -8 -42q-2 -6 -7 -9q-5 -2 -11 0q-6 1 -9 7q-4 5 -1 11q39 140 109 320q-59 -79 -183 -205q-122 -126 -255 -194q-133 -69 -223 27q-63 87 -17 270q46 182 143 393q97 210 187 382q1 4 3 7q4 7 7 14q53 102 84 167t26 73q-14 10 -53 -2
q-40 -13 -86 -36q-46 -22 -80 -41q-33 -18 -35 -20v0zM799 1757v0l2.5 2t7 4.5t10.5 3.5t13.5 -1t15.5 -9q13 -11 8 -26.5t-21 -25.5t-36 -7q-12 3 -15.5 9.5t-2 15t5.5 16.5t8 13zM983 1757v0l2.5 2t7 4.5t10.5 3.5t13.5 -1t15.5 -9q13 -11 8 -26.5t-21 -25.5t-36 -7
q-12 3 -15.5 9.5t-2 15t5.5 16.5t8 13z" />
    <glyph glyph-name="Yacute" unicode="&#xdd;" horiz-adv-x="1022" 
d="M202 1273q-4 -4 -9 -8q-5 -3 -9 -3t-5 3l-1 1q0 3 3 7q0 2 14 20t36 41t46 37q17 11 34 11q7 0 14 -2q22 -5 22 -36q0 -16 -6 -40q-10 -28 -36 -85q-17 -42 -34 -83q-17 -45 -41 -97q-48 -100 -120 -293q-37 -87 -44 -199q-2 -21 -2 -41q0 -86 29 -151q31 -72 110 -72
q9 0 19 1q95 9 197 122q176 216 317 457q68 114 118 183q43 63 70 63q3 0 6 -1q0 -1 1 -2l1 -1v-6q0 -35 -64 -193q-74 -175 -190 -428q-177 -380 -355 -721q-179 -340 -246 -397q-27 -16 -51 -16q-13 0 -25 5q-35 13 -63 47q-29 34 -50 74q-20 40 -31 68t-11 30q-1 1 -2 3
q-2 5 -6 14q-2 5 -2 10t2 10q3 10 18 18q14 10 23 11q4 1 7 1q4 0 7 -2q5 -3 7 -7q2 -5 2 -8q0 -1 1 -1v-1q1 -8 13 -54q12 -45 33 -98q21 -52 52 -82q17 -16 38 -16q16 0 34 9q59 52 223 376q163 325 336 700q96 211 159 367q6 15 12 31q4 8 7 16q6 14 11 27q10 23 18 43
q37 85 37 100v2h-2q-8 0 -26 -27q-19 -28 -60 -94q-10 -16 -21 -34q-5 -8 -11 -18q-141 -243 -322 -464q-120 -132 -236 -151q-15 -2 -29 -2q-40 0 -71 19q-42 24 -62 85q-14 37 -14 89q0 114 64 299q109 294 162 424q36 88 50 128q7 24 7 36v3q-2 11 -13 14q-5 1 -9 1
q-11 0 -22 -7q-15 -10 -29 -25t-22 -27t-8 -13zM958 1598q-1 -2 -31 -20t-77 -37.5t-100 -25.5h-3q-7 0 -13.5 5.5t-7.5 15.5l-1 3q0 7 6 13.5t15 7.5q20 -4 39 -4q28 0 62.5 12.5t59.5 35.5q25 21 25 30v1q7 4 14 4q1 0 6.5 -1t11.5 -9q4 -7 4 -14q0 -1 -1 -6.5t-9 -10.5z
" />
    <glyph glyph-name="Thorn" unicode="&#xde;" horiz-adv-x="1120" 
 />
    <glyph glyph-name="germandbls" unicode="&#xdf;" horiz-adv-x="1251" 
 />
    <glyph glyph-name="agrave" unicode="&#xe0;" horiz-adv-x="705" 
d="M264 523q-4 -3 -6 -3t-3 1q-4 1 -5 5q-11 61 -49 83q-24 12 -53 12q-15 0 -32 -3q-49 -9 -102 -40q-35 -25 -84 -74q-48 -50 -82 -111q-27 -46 -27 -92q0 -14 3 -27q7 -17 23 -18h5q14 0 35 9q72 33 177 141q64 65 93 65q8 0 14 -6q10 -10 12 -30q2 -21 2 -46
q0 -37 6 -70q7 -34 33 -49q11 -5 26 -5q32 0 80 25q68 37 141 94q73 58 150 131q78 72 80 75q6 6 11 7h2q4 0 7 -2q2 -1 2 -4q0 -2 -1 -4q-1 -5 -6 -9q-3 -4 -85 -79q-82 -76 -161 -137q-79 -60 -154 -98q-50 -24 -85 -24q-19 0 -33 6q-35 21 -44 61q-8 39 -8 79q0 19 -1 33
q-2 14 -7 20q-1 1 -3 1q-4 0 -14 -7q-14 -10 -41 -39q-116 -119 -201 -160q-26 -12 -47 -12q-5 0 -10 1q-23 2 -33 26q-5 13 -5 33q0 17 4 41q16 81 79 154q62 74 142 121q59 35 115 46q13 2 25 2q38 0 74 -16q48 -20 65 -51q5 -9 5 -18q0 -20 -29 -38zM89 983
q1 -2 30.5 -34t78.5 -71.5t110 -64.5q5 -2 11 -2q5 0 12.5 3.5t12.5 14.5q2 6 2 11q0 6 -3.5 13.5t-14.5 11.5q-63 5 -108 38.5t-68 68.5q-20 31 -20 42q0 3 1 4q-8 9 -19 10h-5q-8 0 -16 -6q-9 -8 -10 -19v-3q0 -9 6 -17z" />
    <glyph glyph-name="aacute" unicode="&#xe1;" horiz-adv-x="688" 
d="M277 523q-3 -3 -6 -3q-1 0 -3 1q-5 1 -6 5q-10 61 -49 83q-23 12 -52 12q-16 0 -33 -3q-48 -9 -101 -40q-35 -25 -84 -74q-49 -50 -83 -111q-25 -45 -25 -90q0 -15 2 -29q6 -17 22 -18h5q15 0 35 9q72 33 178 141q64 65 93 65q9 0 14 -6q9 -10 11 -30q3 -21 3 -46
q0 -37 6 -70q6 -34 33 -49q12 -5 26 -5q32 0 79 25q69 37 141 94q73 58 151 131q78 72 80 75q5 6 11 7h3q3 0 5 -2q3 -1 3 -5l-1 -3q-2 -5 -6 -9q-3 -4 -86 -79q-82 -76 -161 -137q-79 -60 -154 -98q-49 -24 -84 -24q-19 0 -34 6q-35 21 -43 61q-9 39 -9 79q0 19 -1 33
t-6 20q-1 1 -2 1q-5 0 -15 -7q-14 -10 -42 -39q-115 -119 -201 -160q-26 -12 -46 -12q-5 0 -10 1q-24 2 -33 26q-5 13 -5 32q0 18 4 42q16 81 78 154q63 74 142 121q60 35 116 46q13 2 26 2q37 0 73 -16q47 -20 65 -51q5 -9 5 -18q0 -20 -29 -38zM386 913q-1 -1 -33.5 -20.5
t-83.5 -41t-108 -27.5h-2q-10 0 -17 6t-8 16v3q0 9 6 16t16 8q23 -5 44 -5q30 0 66.5 14t64.5 38q27 23 27 33v1q7 5 14 5q3 0 8.5 -1.5t11.5 -9.5q5 -7 5 -14q0 -2 -1 -8t-10 -13z" />
    <glyph glyph-name="acircumflex" unicode="&#xe2;" horiz-adv-x="683" 
d="M266 523q-3 -3 -6 -3q-1 0 -3 1q-5 1 -6 5q-10 61 -49 83q-23 12 -52 12q-15 0 -32 -3q-49 -9 -102 -40q-35 -25 -84 -74q-49 -50 -83 -111q-25 -45 -25 -90q0 -15 2 -29q7 -17 22 -18h5q15 0 36 9q72 33 177 141q64 65 93 65q9 0 14 -6q10 -10 12 -30q2 -21 2 -46
q0 -37 6 -70q6 -34 33 -49q12 -5 26 -5q32 0 79 25q69 37 142 94q72 58 150 131q78 72 80 75q6 6 11 7h3q3 0 5 -2q3 -1 3 -5l-1 -3q-2 -5 -6 -9q-3 -4 -85 -79q-82 -76 -162 -137q-78 -60 -153 -98q-49 -24 -85 -24q-18 0 -33 6q-36 21 -44 61q-9 39 -9 79q0 19 -1 33
t-6 20q-1 1 -2 1q-5 0 -15 -7q-14 -10 -41 -39q-116 -119 -202 -160q-26 -12 -46 -12q-5 0 -10 1q-23 2 -33 26q-5 13 -5 32q0 18 4 42q16 81 79 154q62 74 142 121q59 35 115 46q13 2 26 2q37 0 73 -16q48 -20 65 -51q5 -9 5 -18q0 -20 -29 -38zM118 813
q-11 -9 -17.5 -11.5t-8.5 -2.5q-7 0 -14 7q-7 10 -7 21v3q2 13 12 22q1 1 21.5 16t49.5 34t52.5 29.5t35.5 10.5q5 0 8 -1q15 -1 30.5 -20t28.5 -44t21 -44.5t9 -20.5q2 -6 2 -11q0 -7 -3 -14q-6 -12 -19 -17q-4 -1 -7 -1q-7 0 -12 5q-7 9 -12 22q1 7 1 13q0 26 -12 50
q-15 32 -29 51q-2 2 -5 2q-8 0 -23 -8q-22 -12 -46.5 -31.5t-40 -35t-15.5 -22.5v-2z" />
    <glyph glyph-name="atilde" unicode="&#xe3;" horiz-adv-x="698" 
d="M284 523q-4 -3 -6 -3t-3 1q-4 1 -5 5q-11 61 -49 83q-24 12 -53 12q-15 0 -32 -3q-49 -9 -102 -40q-35 -25 -84 -74q-48 -50 -82 -111q-27 -46 -27 -92q0 -14 3 -27q7 -17 23 -18h5q14 0 35 9q72 33 177 141q64 65 93 65q8 0 14 -6q10 -10 12 -30q2 -21 2 -46
q0 -37 6 -70q7 -34 33 -49q11 -5 26 -5q32 0 80 25q68 37 141 94q73 58 150 131q78 72 80 75q6 6 11 7h2q4 0 7 -2q2 -1 2 -4q0 -2 -1 -4q-2 -5 -6 -9q-3 -4 -85 -79q-82 -76 -161 -137q-79 -60 -154 -98q-50 -24 -85 -24q-19 0 -33 6q-35 21 -44 61q-8 39 -8 79q0 19 -1 33
q-2 14 -7 20q-1 1 -3 1q-4 0 -14 -7q-14 -10 -41 -39q-116 -119 -202 -160q-25 -12 -46 -12q-5 0 -10 1q-23 2 -33 26q-5 13 -5 33q0 17 4 41q16 81 79 154q62 74 142 121q59 35 115 46q13 2 25 2q38 0 74 -16q48 -20 65 -51q5 -9 5 -18q0 -20 -29 -38zM23 822q-8 -7 -14 -7
h-7q-9 0 -16 7q-8 9 -8 24q0 16 8 24q4 6 22 19t43.5 22t51.5 9q9 0 19 -1q37 -4 79 -34q12 -9 23 -17q20 -16 33.5 -24t23.5 -8q4 0 9 1q13 5 24 19t20 29q6 11 12 17q7 9 12.5 9.5t7.5 0.5q8 0 16 -5q8 -7 9 -13t1 -7q0 -9 -6 -17q-25 -38 -80 -61q-15 -5 -29 -5
q-13 0 -25 4q-27 9 -67 38q-39 36 -72 36h-6q-35 -4 -57.5 -25.5t-26.5 -34.5z" />
    <glyph glyph-name="adieresis" unicode="&#xe4;" horiz-adv-x="700" 
d="M276 523q-3 -3 -6 -3q-1 0 -3 1q-4 1 -6 5q-10 61 -48 83q-23 12 -52 12q-16 0 -33 -3q-49 -9 -102 -40q-35 -25 -84 -74q-48 -50 -82 -111q-26 -46 -26 -92q0 -14 2 -27q7 -17 22 -18h5q15 0 36 9q72 33 177 141q65 65 94 65q8 0 13 -6q10 -10 12 -30q2 -21 2 -46
q0 -37 6 -70q7 -34 33 -49q12 -5 26 -5q32 0 79 25q69 37 142 94q72 58 150 131q78 72 80 75q6 6 11 7h3q3 0 5 -2q3 -1 3 -4q0 -2 -1 -4q-2 -5 -6 -9q-3 -4 -85 -79q-82 -76 -161 -137q-79 -60 -154 -98q-49 -24 -85 -24q-18 0 -33 6q-36 21 -44 61q-8 39 -8 79q0 19 -2 33
q-1 14 -6 20q-1 1 -2 1q-5 0 -15 -7q-14 -10 -41 -39q-116 -119 -202 -160q-26 -12 -46 -12q-5 0 -10 1q-23 2 -33 26q-5 13 -5 32q0 18 4 42q16 81 79 154q62 74 142 121q59 35 115 46q13 2 26 2q37 0 73 -16q48 -20 65 -51q6 -9 6 -18q0 -20 -30 -38zM47 840l3 3q2 2 7 4
t11 3h5q5 0 11.5 -1.5t15.5 -8.5q11 -9 11 -20q0 -5 -4 -15t-21 -21q-13 -9 -30 -9q-4 0 -9 1q-13 3 -17 10q-2 5 -2 10q0 3 1 9.5t5.5 15t8.5 14.5zM246 840l3 3q2 2 7 4t12 3h4q5 0 11.5 -1.5t15.5 -8.5q11 -9 11 -20q0 -4 -3.5 -14.5t-20.5 -21.5q-14 -9 -30 -9
q-5 0 -10 1q-12 3 -16 10q-2 5 -2 10q0 3 0.5 9.5t5 15t8.5 14.5z" />
    <glyph glyph-name="aring" unicode="&#xe5;" horiz-adv-x="688" 
d="M191 748q-14 13 -32 13q-19 0 -32 -13t-13 -32t13 -32t32 -13q18 0 32 13q13 14 13 32q0 19 -13 32zM202 640q15 -3 30 -10q48 -20 65 -51q5 -9 5 -18q0 -21 -28 -38q-4 -3 -7 -3q-2 0 -3 1q-4 1 -5 5q-11 61 -49 83q-24 12 -53 12q-15 0 -32 -3q-49 -9 -102 -40
q-35 -25 -84 -74q-48 -50 -82 -111q-26 -46 -26 -92q0 -14 2 -27q7 -17 23 -18h5q14 0 35 9q72 33 177 141q65 65 93 65q9 0 14 -6q10 -10 12 -30q2 -21 2 -46q0 -37 6 -70q7 -34 33 -49q11 -5 26 -5q32 0 80 25q68 37 141 94q73 58 151 131q78 72 80 75q5 6 10 7h2
q4 0 7 -2q2 -1 2 -4q0 -2 -1 -4q-1 -5 -6 -9q-3 -4 -85 -79q-82 -76 -161 -137q-79 -60 -154 -98q-50 -24 -85 -24q-18 0 -33 6q-35 21 -44 61q-8 39 -8 79q0 19 -1 33t-6 20q-1 1 -3 1q-5 0 -14 -7q-14 -10 -42 -39q-115 -119 -201 -160q-26 -12 -46 -12q-6 0 -11 1
q-23 2 -32 26q-6 13 -6 35q0 17 4 39q16 81 79 154q63 74 142 121q51 30 98 42q-10 6 -19 15q-25 25 -25 61t25 62q26 25 62 25t61 -25q26 -26 26 -62t-26 -61q-8 -9 -18 -15z" />
    <glyph glyph-name="ae" unicode="&#xe6;" horiz-adv-x="1454" 
 />
    <glyph glyph-name="ccedilla" unicode="&#xe7;" horiz-adv-x="598" 
d="M164 540q-2 -6 -7 -9q-5 -4 -11 -4q-5 0 -7 3v2q0 3 1 7q1 1 4 8q3 8 7 20q3 12 3 23v3q0 10 -5 18q-6 9 -20 12h-6q-14 0 -35 -6q-54 -17 -115 -85q-60 -68 -94 -145q-19 -42 -19 -76q0 -27 12 -48q28 -36 81 -36t133 37q159 73 318 186t215 160q7 4 11 4h2q4 0 5 -2
q2 -2 2 -5q0 -2 -1 -4q-2 -5 -7 -9q-3 -3 -37 -29q-23 -17 -58 -44q-91 -69 -219 -155q-129 -85 -251 -140q-84 -38 -142 -38q-8 0 -16 1q1 -11 16 -19q38 -18 43 -48q1 -4 1 -9q0 -25 -29 -46q-10 -5 -24 -5q-26 0 -68 16q-3 1 -4 3v6q1 3 4 4l2 1l3 -1q31 -10 50 -10
q16 0 24 7q8 6 11 14q2 6 2 13v5q-1 12 -6.5 22.5t-14.5 14.5q-26 14 -26 34v1q-7 1 -14 4q-31 15 -44 39q-12 25 -12 54t12 63q21 64 68 128q44 60 95 103q50 43 95 58q33 10 54 10q9 0 16 -2q24 -5 29 -22q4 -10 4 -21q0 -8 -2 -16q-4 -20 -13 -34t-16 -16z" />
    <glyph glyph-name="egrave" unicode="&#xe8;" horiz-adv-x="580" 
d="M-84 509q-5 1 -5 6v2q0 3 3 7q3 5 8 9q4 2 8 2h3l20 -2q57 70 113 103q11 7 29 15q17 8 35 8h3q16 0 29 -13q10 -12 10 -26q0 -16 -14 -34q-25 -33 -78 -58q-50 -23 -109 -23h-5q-39 -51 -61 -113q-11 -37 -11 -67q0 -51 34 -78q38 -29 97 -29q26 0 56 6q164 18 525 365
q1 0 2 1q5 4 9 7q4 1 6 1h1q1 -2 1 -4t-1 -5q-2 -5 -7 -10q-381 -359 -561 -384q-34 -6 -62 -6q-39 0 -67 12q-46 21 -60 66q-7 23 -7 49q0 34 12 72q22 65 62 119q-7 1 -11 2h-7zM-18 531q11 -1 21 -1q34 0 68 10q45 13 59 59q2 8 2 14q0 10 -5 14q-3 5 -11 5q-3 0 -8 -1
q-15 -3 -36 -16q-44 -26 -90 -84zM82 973q-6 8 -6 18v3q1 11 10 19q8 6 18 6h3q11 -1 19 -10v-4q0 -12 19 -42q22 -36 67.5 -69.5t108.5 -37.5q11 -5 14.5 -13t3.5 -14q0 -5 -2 -10q-5 -11 -13 -14.5t-14 -3.5q-5 0 -10 2q-60 26 -109 65t-78.5 71t-30.5 34z" />
    <glyph glyph-name="eacute" unicode="&#xe9;" horiz-adv-x="583" 
d="M-84 509q-5 1 -5 6v2q0 3 2 7q4 5 9 9q4 2 8 2h3q1 0 19 -2q58 70 114 103q10 7 28 15t36 8h3q16 0 29 -13q9 -12 9 -25q0 -17 -14 -35q-24 -33 -77 -58q-50 -23 -109 -23h-5q-39 -51 -61 -113q-11 -37 -11 -67q0 -51 34 -78q38 -29 96 -29q27 0 57 6q163 18 525 365
q1 0 2 1q4 4 9 7q4 1 6 1h1q1 -2 1 -4t-1 -5q-2 -5 -8 -10q-380 -359 -560 -384q-34 -6 -62 -6q-39 0 -67 12q-46 21 -60 66q-7 23 -7 49q0 34 12 72q22 65 62 119q-7 1 -11 2h-7zM-18 531q11 -1 21 -1q34 0 68 10q45 13 59 59q2 8 2 14q0 10 -5 14q-4 5 -12 5q-3 0 -8 -1
q-14 -3 -35 -16q-44 -26 -90 -84zM361 904q-1 -2 -33.5 -21.5t-83.5 -40.5t-108 -28h-2q-9 0 -16.5 6t-8.5 17v2q0 9 6 16t16 8q22 -4 42 -4q31 0 68 13.5t65 37.5q27 24 27 33v1q7 5 14 5q3 0 8.5 -1t12.5 -10q4 -6 4 -13q0 -2 -1 -8.5t-10 -12.5z" />
    <glyph glyph-name="ecircumflex" unicode="&#xea;" horiz-adv-x="597" 
d="M-74 509q-4 1 -5 6q0 4 3 9t8 9q5 2 9 2h2q1 0 20 -2q57 70 114 103q10 7 28 15q17 8 35 8h3q16 0 29 -13q9 -12 9 -26q0 -16 -13 -34q-24 -33 -77 -58q-50 -23 -110 -23h-5q-38 -51 -60 -113q-11 -37 -11 -67q0 -51 34 -78q37 -29 96 -29q26 0 57 6q163 18 525 365
q1 0 2 1q4 4 9 7q4 1 6 1h1q1 -2 1 -4t-1 -5q-3 -5 -8 -10q-381 -359 -561 -384q-34 -6 -62 -6q-39 0 -66 12q-47 21 -61 66q-7 23 -7 48q0 34 13 73q22 65 61 119q-6 1 -10 2h-8zM-7 531q11 -1 21 -1q34 0 67 10q45 13 59 59q2 8 2 15q0 9 -5 13q-3 5 -11 5q-4 0 -8 -1
q-15 -3 -36 -16q-44 -26 -89 -84zM70 868q-10 -10 -16.5 -12.5t-9.5 -2.5q-7 0 -13 7q-7 9 -7 19v5q1 13 12 22q1 1 21.5 16t49.5 34t52 30t36 11q4 0 7 -1q16 -1 31.5 -20t28.5 -44.5t21 -44.5t8 -20q2 -6 2 -12t-3 -13q-5 -12 -18 -17q-4 -2 -8 -2q-7 0 -12 6q-7 8 -11 22
q1 7 1 13q0 25 -12 50q-15 31 -29 50q-2 2 -6 2q-8 0 -23 -8q-22 -12 -46.5 -31t-40 -35.5t-15.5 -22.5v-1z" />
    <glyph glyph-name="edieresis" unicode="&#xeb;" horiz-adv-x="580" 
d="M-82 509q-5 1 -5 6v2q0 3 2 7q4 5 9 9q4 2 8 2h3l20 -2q57 70 113 103q11 7 28 15q18 8 36 8h3q16 0 29 -13q9 -12 9 -25q0 -17 -14 -35q-24 -33 -77 -58q-50 -23 -109 -23h-5q-39 -51 -61 -113q-11 -37 -11 -67q0 -51 34 -78q38 -29 96 -29q27 0 57 6q163 18 525 365
q1 0 2 1q4 4 9 7q4 1 6 1h1q1 -2 1 -4t-1 -5q-2 -5 -7 -10q-381 -359 -561 -384q-34 -6 -62 -6q-39 0 -67 12q-46 21 -60 66q-7 23 -7 49q0 34 12 72q22 65 62 119q-7 1 -11 2h-7zM-16 531q11 -1 21 -1q34 0 68 10q45 13 59 59q2 8 2 14q0 10 -5 14q-4 5 -11 5q-4 0 -8 -1
q-15 -3 -36 -16q-44 -26 -90 -84zM12 873l3 3q2 2 7 4t11 3h5q5 0 11.5 -1.5t15.5 -8.5q11 -9 11 -20q0 -5 -3.5 -15t-21.5 -21q-13 -9 -29 -9q-5 0 -10 1q-13 3 -17 10q-2 5 -2 12q0 2 1 8t5.5 14.5t8.5 14.5zM211 873l3 3q3 2 7.5 4t11.5 3h5q5 0 11.5 -1.5t15.5 -8.5
q11 -9 11 -20q0 -5 -4 -15t-21 -21q-14 -9 -30 -9q-5 0 -10 1q-12 3 -16 10q-2 5 -2 10q0 3 1 9.5t5 15t8 14.5z" />
    <glyph glyph-name="igrave" unicode="&#xec;" horiz-adv-x="445" 
d="M-13 952q-4 5 -4 11v2q1 8 7 13q5 4 11 4h2q8 -1 13 -7v-3q0 -8 13 -27q15 -24 44.5 -46t71.5 -25q7 -3 9.5 -8.5t2.5 -9.5q0 -3 -1 -6q-3 -7 -8 -9t-9 -2t-8 1q-39 16 -71.5 42t-52 47t-20.5 23zM58 690q5 5 10 8q4 2 7 2h2q5 -1 10 -7q6 -5 8 -15v-3q0 -8 -7 -18
q0 -1 -1 -1q-7 -9 -42 -62q-35 -54 -75 -125q-40 -72 -59 -135q-8 -26 -8 -45q0 -28 16 -44q11 -8 29 -8q34 0 91 31q86 47 184 121t168 135q69 62 73 68q4 4 9 6q5 0 9 -3q1 -1 1 -3t-1 -5q-2 -4 -6 -10q-4 -3 -78 -66q-75 -62 -177 -139q-103 -78 -194 -126
q-60 -32 -98 -32q-19 0 -32 9q-20 19 -20 55q0 21 7 48q18 74 59 158q41 83 77 143q15 24 24 39q13 22 14 24z" />
    <glyph glyph-name="iacute" unicode="&#xed;" horiz-adv-x="446" 
d="M64 690q5 5 10 8q3 2 7 2h2q5 -1 10 -7q6 -5 8 -15v-4q0 -8 -7 -17q0 -1 -1 -1q-7 -9 -42 -62q-35 -54 -75 -125q-40 -72 -59 -135q-8 -26 -8 -45q0 -28 16 -44q11 -8 28 -8q34 0 92 31q86 47 184 121t168 135q69 62 73 68q4 4 9 6q5 0 9 -3q1 -1 1 -3t-1 -5
q-1 -4 -6 -10q-4 -3 -78 -66q-75 -62 -177 -139q-103 -78 -194 -126q-61 -32 -98 -32q-19 0 -32 9q-20 19 -20 55q0 21 7 48q19 74 59 158q41 83 77 143q15 24 24 39q13 22 14 24zM247 873q-1 -1 -23.5 -14.5t-59 -28.5t-76.5 -20q-7 0 -12.5 4.5t-6.5 11.5q0 7 4.5 12.5
t11.5 6.5q15 -3 29 -3q22 0 48.5 9.5t45.5 26.5q19 16 19 23v1q5 3 11 3q1 0 5 -0.5t9 -6.5q2 -5 2 -9q0 -2 -0.5 -6.5t-6.5 -9.5z" />
    <glyph glyph-name="icircumflex" unicode="&#xee;" horiz-adv-x="443" 
d="M113 851q-7 -6 -11.5 -8t-6.5 -2q-5 0 -9 5q-6 6 -6 13l1 3q1 9 8 16q1 0 15 10.5t34 23.5t36 20.5t24 7.5q3 0 6 -1q11 0 21.5 -13.5t19.5 -30.5t14.5 -30.5t5.5 -14.5q1 -4 1 -9q0 -4 -1 -8q-4 -8 -13 -12q-3 -1 -5 -1q-6 0 -9 4q-5 6 -8 15v10q0 17 -7 34
q-11 21 -20 34q-2 1 -5 1q-5 0 -15 -5q-15 -8 -32 -21t-28 -24t-11 -16zM66 690q4 5 9 8q4 2 7 2h2q5 -1 11 -7q5 -5 8 -15v-3q0 -8 -8 -18q0 -1 -1 -1q-6 -9 -42 -62q-35 -54 -75 -125q-40 -72 -59 -135q-8 -25 -8 -44q0 -29 17 -45q11 -8 28 -8q33 0 91 31q86 47 184 121
q99 74 168 135q69 62 73 68q4 4 9 6q6 0 9 -3q1 -1 1 -3t-1 -5q-1 -4 -6 -10q-4 -3 -78 -66q-75 -62 -177 -139q-103 -78 -194 -126q-60 -32 -98 -32q-19 0 -32 9q-20 19 -20 55q0 21 7 48q19 74 59 158q41 83 77 143q15 24 24 39q13 22 15 24z" />
    <glyph glyph-name="idieresis" unicode="&#xef;" horiz-adv-x="444" 
d="M-45 873l3 3q2 2 7 4t11 3h5q5 0 11.5 -1.5t15.5 -8.5q10 -9 10 -20q0 -5 -3 -15t-21 -21q-13 -9 -30 -9q-4 0 -9 1q-13 3 -17 10q-2 5 -2 12q0 2 1 8t5.5 14.5t8.5 14.5zM154 873l3 3q3 2 7.5 4t11.5 3h5q5 0 11.5 -1.5t15.5 -8.5q10 -9 10 -20q0 -5 -3.5 -15t-20.5 -21
q-14 -9 -31 -9q-4 0 -9 1q-12 3 -16 10q-3 5 -3 10q0 3 1.5 9.5t5.5 15t8 14.5zM57 690q4 5 9 8q5 2 8 2h2q4 -1 10 -7q6 -5 8 -15v-3q0 -8 -7 -18q0 -1 -1 -1q-7 -9 -42 -62q-36 -54 -76 -125q-39 -72 -59 -135q-8 -25 -8 -44q0 -29 17 -45q11 -8 29 -8q34 0 91 31
q86 47 184 121t167 135q70 62 73 68q4 4 10 6q5 0 8 -3q1 -2 1 -5v-3q-2 -4 -6 -10q-4 -3 -79 -66q-74 -62 -177 -139q-103 -78 -194 -126q-60 -32 -97 -32q-19 0 -32 9q-20 19 -20 55q0 21 7 48q18 74 59 158q41 83 77 143q14 24 24 39q13 22 14 24z" />
    <glyph glyph-name="eth" unicode="&#xf0;" horiz-adv-x="1139" 
 />
    <glyph glyph-name="ntilde" unicode="&#xf1;" horiz-adv-x="880" 
d="M45 665q0 3 -1 7q-2 9 -3 24v2q0 14 10 26q5 3 12 6q8 3 15 3q7 -1 9 -9q1 -2 1 -5q0 -8 -5 -24q0 -6 -18 -39t-48 -82q-63 -105 -122 -217q-56 -106 -56 -146v-6q9 4 43 47q11 14 24 29q67 84 155 171t176 114q19 3 34 3q56 0 68 -46q4 -23 4 -51q0 -23 -3 -50v-4
q-1 -8 -1 -16q-2 -22 -2 -41q0 -20 2 -37q4 -24 17 -36q7 -6 21 -6q11 0 27 4q106 26 214 92q109 66 176 122q82 76 95 94q13 17 15 21h2q4 5 9 6h3q3 0 6 -2q2 -2 2 -4t-1 -4q-1 -5 -7 -9q-1 -2 -73 -68q-73 -65 -143 -115q-69 -51 -149 -95q-80 -45 -157 -64
q-17 -4 -31 -4q-22 0 -36 9q-22 13 -28 43q-4 25 -4 52q0 24 3 51q3 26 3 48q0 26 -4 48q-5 21 -20 32q-8 6 -22 6q-11 0 -26 -4q-79 -23 -160 -106q-82 -83 -147 -162q-73 -94 -108 -106h-4q-11 0 -14 13v5q0 27 29 89q32 69 79 151t88 152q5 9 10 17q13 21 22 36
q19 33 19 35zM240 760q-7 -6 -15 -6t-14 6q-6 7 -6 19t6 19q3 4 17 14t34 17t39 7q8 0 15 -1q29 -3 62 -26l18 -14q15 -12 26 -18t19 -6q3 0 6 1q10 4 18.5 15t15.5 22q5 8 9 13q5 7 10 7.5t6 0.5q6 0 12 -4q7 -6 7.5 -10.5t0.5 -5.5q0 -7 -5 -13q-20 -29 -62 -47
q-11 -4 -22 -4q-10 0 -20 3q-20 7 -52 30q-30 27 -55 27h-5q-27 -3 -44.5 -19.5t-20.5 -26.5z" />
    <glyph glyph-name="ograve" unicode="&#xf2;" horiz-adv-x="731" 
d="M46 603q5 4 10 5q5 0 8 -3q1 -1 1 -4q0 -2 -1 -5q-2 -5 -6 -9h-1q-2 0 -35 -33q-1 -10 -1 -21q0 -44 24 -86q31 -52 112 -82h1q73 91 89 225q1 19 1 36q0 88 -39 117q-20 16 -43 16t-47 -13q-69 -35 -93 -161l11 11q5 4 6 5q2 2 3 2zM-14 517q-54 -64 -72 -135
q-7 -29 -7 -53q0 -35 15 -60q17 -27 51 -27q20 0 45 9l1 1q45 17 89 58q16 14 30 31q-86 24 -127 87q-24 38 -25 89zM-123 266q-11 29 -11 59q0 45 26 92q43 77 96 131q29 166 128 218q46 19 79 19q45 0 65 -35q26 -45 26 -115q0 -22 -3 -47q-23 -135 -103 -228q42 -9 90 -9
q37 0 76 5q232 50 411 253l9 9q3 3 5 3q1 0 2 -1q4 -2 4 -6v-2q-1 -5 -6 -9q-239 -238 -434 -269q-48 -8 -91 -8q-46 0 -87 9q-17 -21 -36 -39q-53 -48 -106 -68l-1 -1q-31 -11 -57 -11q-20 0 -37 6q-29 10 -45 44zM131 987q-4 5 -4 11v3q1 7 7 12q5 4 11 4h2q8 0 13 -6v-3
q0 -8 12 -28q16 -23 45.5 -45.5t71.5 -24.5q7 -3 9.5 -8.5t2.5 -10.5q0 -3 -1 -6q-4 -7 -8.5 -9t-8.5 -2t-8 1q-39 17 -71.5 43t-52 47t-20.5 22z" />
    <glyph glyph-name="oacute" unicode="&#xf3;" horiz-adv-x="704" 
d="M35 603q5 4 10 5q5 0 8 -3q1 -1 1 -4q0 -2 -1 -5q-2 -5 -6 -9h-1q-2 0 -35 -33q-1 -10 -1 -21q0 -44 24 -86q31 -52 112 -82h1q73 91 89 225q1 19 1 36q0 88 -39 117q-20 16 -43 16t-47 -13q-69 -35 -93 -161l11 11q5 4 6 5q2 2 3 2zM-25 517q-54 -64 -72 -135
q-7 -29 -7 -53q0 -35 15 -60q17 -27 51 -27q20 0 45 9l1 1q45 17 89 58q16 14 30 31q-86 24 -127 87q-24 38 -25 89zM-134 266q-11 29 -11 59q0 45 26 92q43 77 96 131q29 166 128 218q46 19 79 19q45 0 65 -35q26 -45 26 -115q0 -22 -3 -47q-23 -135 -103 -228q42 -9 90 -9
q37 0 76 5q232 50 411 253l9 9q3 3 6 3q1 0 2 -1q3 -2 3 -6v-2q-1 -5 -6 -9q-239 -238 -434 -269q-48 -8 -91 -8q-46 0 -87 9q-17 -21 -36 -39q-53 -48 -106 -68l-1 -1q-31 -11 -57 -11q-20 0 -37 6q-29 10 -45 44zM356 931q-1 -1 -24 -14.5t-59 -28.5t-76 -20
q-7 0 -12.5 4.5t-6.5 11.5q0 7 4.5 12.5t11.5 6.5q15 -3 30 -3q21 0 47 9.5t46 26.5q19 16 19 23v1q6 3 11 3q1 0 5 -0.5t9 -6.5q3 -5 3 -9q0 -2 -1 -6.5t-7 -9.5z" />
    <glyph glyph-name="ocircumflex" unicode="&#xf4;" horiz-adv-x="754" 
d="M54 593q5 4 10 5q5 0 8 -3q1 -1 1 -4q0 -2 -1 -5q-2 -5 -7 -9h-1q-2 0 -35 -33q-1 -9 -1 -18q0 -46 25 -89q31 -52 112 -82h1q72 91 89 225q1 19 1 36q0 88 -39 117q-20 16 -43 16q-24 0 -47 -13q-69 -35 -93 -161l11 11q4 4 6 5q2 2 3 2zM-7 507q-54 -64 -71 -135
q-7 -29 -7 -53q0 -35 15 -60q16 -27 50 -27q20 0 46 9l1 1q45 17 89 58q15 14 30 31q-86 24 -127 87q-25 38 -26 89zM-115 256q-12 30 -12 60q0 45 26 91q43 77 96 131q30 166 129 218q46 19 79 19q44 0 64 -35q26 -45 26 -113q0 -23 -3 -49q-22 -135 -103 -228q43 -9 91 -9
q36 0 76 5q232 50 411 253l9 9q2 3 5 3q1 0 2 -1q3 -1 3 -5v-3q-1 -5 -5 -9q-239 -238 -435 -269q-47 -8 -91 -8q-45 0 -86 9q-18 -21 -37 -39q-52 -48 -105 -68l-1 -1q-31 -11 -57 -11q-20 0 -37 6q-29 10 -45 44zM150 877q-7 -7 -11.5 -9t-6.5 -2q-5 0 -9 5q-5 7 -5 14v3
q1 9 9 15q0 1 14 11t34 23t36 21t25 8q2 0 5 -1q11 -1 21.5 -14t19.5 -30.5t14.5 -30.5t5.5 -14q1 -4 1 -9q0 -4 -1 -8q-4 -9 -13 -12q-3 -1 -6 -1q-5 0 -8 4q-4 6 -8 15v10q0 16 -7 33q-10 22 -20 35q-2 1 -5 1q-5 0 -15 -5q-15 -8 -32 -21.5t-28 -24.5t-11 -15z" />
    <glyph glyph-name="otilde" unicode="&#xf5;" horiz-adv-x="1010" 
 />
    <glyph glyph-name="odieresis" unicode="&#xf6;" horiz-adv-x="736" 
d="M45 603q5 4 9 5q5 0 8 -3q1 -1 1 -4q0 -2 -1 -5q-2 -5 -6 -9h-1q-2 0 -35 -33q-2 -10 -2 -20q0 -45 26 -87q30 -52 112 -82h1q72 91 89 225q1 19 1 36q0 88 -39 117q-20 16 -44 16q-23 0 -46 -13q-69 -35 -94 -161q3 3 6 5q3 4 6 6q4 4 6 5q2 2 3 2zM-16 517
q-54 -64 -71 -135q-7 -29 -7 -53q0 -35 15 -60q16 -27 50 -27q20 0 46 9l1 1q44 17 89 58q15 14 30 31q-86 24 -128 87q-24 38 -25 89zM-124 266q-12 30 -12 60q0 45 26 91q43 77 96 131q30 166 128 218q46 19 79 19q45 0 65 -35q25 -45 25 -115q0 -22 -2 -47
q-22 -135 -103 -228q42 -9 90 -9q37 0 77 5q232 50 410 253q5 5 10 9q2 3 5 3q1 0 2 -1q3 -2 3 -6v-2q-1 -5 -5 -9q-240 -238 -435 -269q-47 -8 -91 -8q-45 0 -86 9q-18 -21 -37 -39q-52 -48 -105 -68l-1 -1q-31 -11 -58 -11q-20 0 -37 6q-28 10 -44 44zM78 909l3 2
q3 2 7.5 4.5t11.5 3.5h4q5 0 12 -1.5t16 -8.5q10 -10 10 -21q0 -4 -3.5 -14.5t-20.5 -21.5q-14 -8 -29 -8q-5 0 -11 1q-12 2 -16 10q-3 5 -3 10q0 3 1.5 9t6 14.5t7.5 14.5zM278 909l2 2q3 2 8 4.5t12 3.5h4q4 0 11 -1.5t16 -8.5q10 -9 10 -20q0 -4 -3 -15t-21 -22
q-13 -8 -28 -8q-5 0 -11 1q-13 2 -16 10q-3 5 -3 10q0 3 1 9t5.5 14.5t8.5 14.5z" />
    <glyph glyph-name="oslash" unicode="&#xf8;" horiz-adv-x="1010" 
 />
    <glyph glyph-name="ugrave" unicode="&#xf9;" horiz-adv-x="816" 
d="M61 668q4 6 9 8q4 2 7 2h3q2 -2 9 -6q8 -5 13 -11q3 -5 3 -9v-4q-2 -6 -18 -8q-31 -10 -87 -91t-96 -170q-29 -63 -29 -99q0 -15 6 -26q2 -3 6 -6q8 -4 20 -4q16 0 39 8q18 7 32 15q15 9 36 24q4 4 9 7q133 82 259 256q18 22 31 41q33 54 58 54h2q12 -4 12 -17v-4
q-3 -15 -13 -37q-4 -13 -9 -26q-9 -29 -20 -73t-17 -76q-7 -23 -7 -43q0 -22 9 -40q15 -30 52 -30h10q82 9 169 63t183 142q95 89 102 98h2q4 5 9 6h2q4 0 7 -2q1 -2 1 -4t-1 -4q-2 -5 -7 -10q-1 -1 -29 -27q-20 -19 -54 -49q-80 -74 -154 -125t-151 -85q-61 -26 -110 -26
q-14 0 -27 2q-40 10 -48 49q-3 15 -3 31q0 28 8 61q14 65 32 120q9 24 14 40q4 16 4 17q-1 0 -5 -7q-6 -13 -31 -47q-138 -173 -272 -266q-61 -44 -107 -60q-24 -8 -42 -8q-20 0 -33 10q-5 3 -9 8q-6 10 -6 26q0 28 20 73q29 69 78 147q48 78 87 134q38 56 42 58zM208 935
q-5 5 -5 11l1 3q1 7 7 12q5 4 10 4h3q8 0 13 -6l-1 -3q0 -8 14 -28q15 -23 44.5 -45.5t71.5 -24.5q7 -3 9 -8.5t2 -10.5v-6q-3 -7 -8.5 -9t-9.5 -2q-3 0 -7 1q-39 17 -71.5 43t-52 47t-20.5 22z" />
    <glyph glyph-name="uacute" unicode="&#xfa;" horiz-adv-x="821" 
d="M62 668q4 6 9 8q3 2 7 2h3q2 -2 9 -6q8 -5 13 -11q3 -5 3 -9v-4q-2 -6 -18 -8q-31 -10 -87 -91t-96 -170q-29 -63 -29 -99q0 -15 6 -26q2 -3 6 -6q8 -4 20 -4q16 0 39 8q18 7 32 15q15 9 36 24q4 4 9 7q133 82 259 256q18 22 31 41q33 54 58 54h2q12 -4 12 -17v-4
q-3 -15 -13 -37q-4 -13 -9 -26q-9 -29 -20 -73t-17 -76q-7 -23 -7 -43q0 -22 9 -40q15 -30 52 -30h10q82 9 169 63t183 142q95 89 102 98h2q4 5 9 6h2q4 0 7 -2q1 -2 1 -4t-1 -4q-2 -5 -7 -10q-1 -1 -29 -27q-20 -19 -54 -49q-80 -74 -154 -125t-151 -85q-61 -26 -110 -26
q-14 0 -27 2q-40 10 -48 49q-3 15 -3 31q0 28 8 61q14 65 32 120q9 24 14 40q4 16 4 17q-1 0 -5 -7q-6 -13 -32 -47q-137 -173 -271 -266q-61 -44 -107 -60q-24 -8 -42 -8q-20 0 -33 10q-5 3 -9 8q-6 10 -6 26q0 28 20 73q29 69 78 147q48 78 87 134q38 56 42 58zM428 879
q-1 -1 -24 -14.5t-59 -28.5t-76 -20q-7 0 -12.5 4.5t-6.5 11.5q0 7 4.5 12.5t11.5 6.5q15 -3 29 -3q22 0 48 9.5t46 26.5q19 16 19 23v1q5 3 10 3q1 0 5.5 -0.5t9.5 -6.5q2 -5 2 -9q0 -2 -0.5 -6.5t-6.5 -9.5z" />
    <glyph glyph-name="ucircumflex" unicode="&#xfb;" horiz-adv-x="819" 
d="M59 668q4 6 9 8q4 2 7 2h3q2 -2 9 -6q8 -5 13 -11q3 -5 3 -9v-4q-2 -6 -18 -8q-31 -10 -87 -91t-96 -170q-28 -61 -28 -97q0 -17 6 -28q2 -3 5 -6q8 -4 20 -4q16 0 39 8q18 7 33 15q14 9 35 24q4 4 9 7q133 82 259 256q18 22 31 41q33 54 59 54h2q11 -4 11 -17v-4
q-3 -15 -13 -37q-4 -13 -9 -26q-9 -29 -19 -73q-12 -44 -18 -76q-7 -23 -7 -43q0 -22 9 -40q15 -30 53 -30h10q81 9 168 63t183 142q95 89 103 98h1q4 5 9 6h2q4 0 7 -2q1 -2 1 -4t-1 -4q-1 -5 -7 -10q-1 -1 -29 -27q-20 -19 -54 -49q-80 -74 -154 -125t-151 -85
q-61 -26 -110 -26q-14 0 -27 2q-40 10 -48 49q-3 15 -3 31q0 28 8 61q15 65 32 120q9 24 14 40t5 17q-2 0 -6 -7q-6 -13 -31 -47q-138 -173 -272 -266q-61 -44 -107 -60q-24 -8 -42 -8q-20 0 -33 10q-5 3 -9 8q-6 10 -6 26q0 28 20 73q29 69 78 147q48 78 87 134
q38 56 42 58zM209 835q-7 -7 -12 -9t-7 -2q-4 0 -8 5q-6 7 -6 14l1 3q1 9 9 15q0 1 14.5 11t34 23t35.5 21t25 8q2 0 5 -1q11 -1 21.5 -14t19.5 -30.5t14.5 -30.5t5.5 -14q1 -4 1 -9q0 -4 -1 -8q-4 -9 -13 -12q-3 -1 -6 -1q-5 0 -7 4q-5 6 -8 15v7q0 18 -8 36q-10 22 -20 35
q-2 1 -5 1q-5 0 -15 -5q-14 -8 -31.5 -21.5t-28.5 -25t-11 -14.5z" />
    <glyph glyph-name="udieresis" unicode="&#xfc;" horiz-adv-x="828" 
d="M69 668q4 6 10 8q4 2 7 2h2q2 -2 10 -6q7 -5 12 -11q5 -5 5 -10l-1 -3q-3 -6 -18 -8q-31 -10 -87 -91q-57 -81 -97 -170q-27 -62 -27 -98q0 -16 5 -27q2 -3 5 -6q8 -4 20 -4q16 0 39 8q19 7 33 15q14 9 36 24q4 4 9 7q133 82 259 256q18 22 31 41q34 54 58 54h2
q12 -4 12 -16q0 -2 -1 -5q-2 -15 -12 -37q-4 -13 -9 -26q-9 -29 -20 -73t-18 -76q-6 -23 -6 -42q0 -23 8 -41q15 -30 54 -30h9q82 9 169 63t182 142q95 89 103 98h1q4 5 10 6h2q4 0 6 -2q1 -3 1 -5v-3q-2 -5 -7 -10q-2 -1 -30 -27q-20 -19 -53 -49q-81 -74 -154 -125
q-74 -51 -151 -85q-60 -26 -109 -26q-14 0 -28 2q-40 10 -48 49q-3 16 -3 34q0 27 7 58q15 65 33 120q8 24 13 40t5 17q-1 0 -5 -7q-7 -13 -32 -47q-138 -173 -271 -266q-61 -44 -108 -60q-23 -8 -41 -8q-21 0 -34 10q-4 3 -9 8q-5 10 -5 25q0 29 19 74q30 69 78 147
q49 78 87 134q39 56 42 58zM117 857l3 2q2 2 7 4.5t12 3.5h4q5 0 11.5 -1.5t15.5 -8.5q11 -9 11 -20q0 -4 -3.5 -15t-20.5 -22q-13 -8 -28 -8q-6 0 -12 1q-12 2 -16 10q-3 5 -3 10q0 3 1 9t5.5 14.5t8.5 14.5zM317 857l3 2q2 2 7 4.5t11 3.5h5q5 0 11.5 -1.5t15.5 -8.5
q10 -10 10 -21q0 -4 -3 -14.5t-21 -21.5q-12 -8 -28 -8q-5 0 -11 1q-13 2 -17 10q-3 5 -3 10q0 3 1.5 9t6 14.5t8.5 14.5z" />
    <glyph glyph-name="yacute" unicode="&#xfd;" horiz-adv-x="798" 
d="M60 674q5 6 10 9q3 2 7 2h3q2 -1 10 -6q7 -5 11 -12q1 -3 1 -6q0 -5 -4 -12q-7 -9 -43 -57q-37 -49 -76 -115q-40 -65 -54 -123q-5 -17 -5 -31q0 -34 25 -52q11 -5 24 -5q39 0 89 46q67 62 133 143l20 24q2 2 3 4q40 47 75 82q33 35 57 36q8 0 16 -8q7 -7 7 -17v-4
q0 -8 -6 -25q-8 -20 -18 -46q-17 -41 -30 -79q-12 -38 -25 -73q-12 -35 -32 -88q-2 -6 -6 -14q-21 -57 -46 -119q216 185 425 332q210 148 218 150q5 3 9 3q5 -1 6 -6v-2q0 -3 -2 -7q-3 -4 -8 -8h-1q-1 -1 -3 -2q-7 -3 -27 -13q-25 -13 -63 -36q-274 -193 -570 -451
q-124 -303 -258 -566q-135 -261 -213 -278q-56 0 -73 38q-13 29 -13 63q0 12 2 25q7 50 24 88q73 197 332 466q88 92 178 170q31 79 58 150q48 124 74 210q23 74 23 100v5l1 1v1q-13 -1 -44 -35q-32 -33 -72 -81q-72 -89 -149 -157q-55 -48 -100 -48q-19 0 -36 8
q-32 20 -32 62l1 10q3 49 28 109t57 115q32 56 57 93q24 36 25 37zM-279 -741q85 41 200 276q116 235 231 518q-73 -66 -145 -140q-249 -262 -310 -438q-12 -29 -24 -78q-9 -32 -9 -61q0 -16 3 -30q7 -41 54 -47zM126 857l2 2q3 2 8 4.5t12 3.5h4q4 0 11 -1.5t16 -8.5
q10 -9 10 -20q0 -4 -3 -15t-21 -22q-13 -8 -28 -8q-6 0 -11 1q-13 2 -16 10q-4 6 -4 12q0 2 1.5 7.5t6 14t8.5 14.5zM325 857l3 2q3 2 7.5 4.5t11.5 3.5h4q5 0 12 -1.5t16 -8.5q10 -10 10 -21q0 -4 -3.5 -14.5t-20.5 -21.5q-14 -8 -29 -8q-6 0 -11 1q-12 2 -16 10
q-3 5 -3 10q0 3 1.5 9t5.5 14.5t8 14.5z" />
    <glyph glyph-name="thorn" unicode="&#xfe;" horiz-adv-x="1010" 
 />
    <glyph glyph-name="ydieresis" unicode="&#xff;" horiz-adv-x="774" 
d="M60 674q4 6 9 9q5 2 8 2h2q3 -1 10 -6q8 -5 12 -12q1 -2 1 -5q0 -6 -4 -13q-8 -9 -44 -57q-37 -49 -76 -115q-39 -65 -54 -123q-4 -17 -4 -31q0 -34 24 -52q12 -5 25 -5q39 0 89 46q66 62 132 143q10 12 21 24q1 2 3 4q40 47 74 82t57 36q8 0 16 -8q7 -7 7 -17v-4
q0 -8 -6 -25q-8 -20 -18 -46q-17 -41 -30 -79q-12 -38 -24 -73q-13 -35 -33 -88q-2 -6 -5 -14q-22 -57 -47 -119q217 185 426 332q209 148 217 150q5 3 10 3q4 -1 5 -6v-3q0 -3 -1 -6q-4 -4 -9 -8h-1l-3 -2q-7 -3 -27 -13q-25 -13 -62 -36q-275 -193 -571 -451
q-124 -303 -258 -566q-134 -261 -213 -278q-56 0 -73 38q-12 28 -12 60q0 14 2 28q7 50 24 88q72 197 332 466q88 92 177 170q32 79 58 150q48 124 74 210q24 77 24 102v4h1v1q-14 -1 -45 -35q-32 -33 -72 -81q-72 -89 -149 -157q-54 -48 -100 -48q-19 0 -36 8
q-31 20 -31 64v8q3 49 28 109t58 115q32 56 56 93q25 36 26 37zM-280 -741q85 41 201 276q115 235 230 518q-72 -66 -145 -140q-249 -262 -310 -438q-12 -29 -24 -78q-8 -32 -8 -60q0 -16 3 -31q6 -41 53 -47zM402 879q-1 -1 -24 -14.5t-59 -28.5t-76 -20q-7 0 -12.5 4.5
t-6.5 11.5q0 7 4.5 12.5t11.5 6.5q15 -3 30 -3q21 0 47 9.5t46 26.5q19 16 19 23v1q5 3 10 3q2 0 6 -0.5t9 -6.5q3 -5 3 -9q0 -2 -1 -6.5t-7 -9.5z" />
    <glyph glyph-name="tilde" unicode="&#x2dc;" horiz-adv-x="1024" 
 />
    <glyph glyph-name="hungarumlaut" unicode="&#x2dd;" horiz-adv-x="672" 
d="M316 1020v0q-25 0 -31.5 -5.5t-4.5 -15.5q-3 -4 -3 -6.5t5 -3.5q1 -4 -0.5 -13.5t-13.5 -21.5t-42 -24q-8 -4 -15 -10t-9 -11q-1 -6 4 -7.5t13 1.5q43 17 66 34t31 32t8.5 26.5t-1.5 16.5v1q1 7 -7 7zM413 1020v0q-25 0 -31.5 -5.5t-4.5 -15.5q-3 -4 -3 -6.5t5 -3.5
q1 -4 -0.5 -13.5t-13.5 -21.5t-42 -24q-9 -4 -15.5 -10t-8.5 -11q-1 -6 3.5 -7.5t13.5 1.5q43 17 65.5 34t31 32t9 26.5t-1.5 16.5v1q1 7 -7 7z" />
    <glyph glyph-name="quoteleft" unicode="&#x2018;" horiz-adv-x="557" 
d="M225 958v0q25 0 31.5 5.5t4.5 15.5q3 3 3 5.5t-5 3.5q-1 5 0 14.5t13 21t42 24.5q9 3 16 9t8 12q2 6 -3 7.5t-13 -2.5q-44 -17 -66.5 -34t-31 -32t-8.5 -26t2 -17v0q-2 -7 7 -7z" />
    <glyph glyph-name="quoteright" unicode="&#x2019;" horiz-adv-x="557" 
d="M316 1020v0q-25 0 -31.5 -5.5t-4.5 -15.5q-3 -4 -3 -6.5t5 -3.5q1 -4 -0.5 -13.5t-13.5 -21.5t-42 -24q-8 -4 -15 -10t-9 -11q-1 -6 4 -7.5t13 1.5q43 17 66 34t31 32t8.5 26.5t-1.5 16.5v1q1 7 -7 7z" />
    <glyph glyph-name="quotedblleft" unicode="&#x201c;" horiz-adv-x="672" 
d="M321 958v0q26 0 32.5 5.5t3.5 15.5q4 3 3.5 5.5t-4.5 3.5q-2 5 -0.5 14.5t13.5 21t42 24.5q9 3 16 9t8 12q2 6 -3 7.5t-14 -2.5q-43 -17 -65.5 -34t-31 -32t-8.5 -26t1 -17v0q-1 -7 7 -7zM225 958v0q25 0 31.5 5.5t4.5 15.5q3 3 3 5.5t-5 3.5q-1 5 0 14.5t13 21t42 24.5
q9 3 16 9t8 12q2 6 -3 7.5t-13 -2.5q-44 -17 -66.5 -34t-31 -32t-8.5 -26t2 -17v0q-2 -7 7 -7z" />
    <glyph glyph-name="quotedblright" unicode="&#x201d;" horiz-adv-x="672" 
d="M316 1020v0q-25 0 -31.5 -5.5t-4.5 -15.5q-3 -4 -3 -6.5t5 -3.5q1 -4 -0.5 -13.5t-13.5 -21.5t-42 -24q-8 -4 -15 -10t-9 -11q-1 -6 4 -7.5t13 1.5q43 17 66 34t31 32t8.5 26.5t-1.5 16.5v1q1 7 -7 7zM413 1020v0q-25 0 -31.5 -5.5t-4.5 -15.5q-3 -4 -3 -6.5t5 -3.5
q1 -4 -0.5 -13.5t-13.5 -21.5t-42 -24q-9 -4 -15.5 -10t-8.5 -11q-1 -6 3.5 -7.5t13.5 1.5q43 17 65.5 34t31 32t9 26.5t-1.5 16.5v1q1 7 -7 7z" />
    <glyph glyph-name="an" horiz-adv-x="1494" 
d="M275 531q-4 -2 -7 -2h-2q-5 1 -6 5q-10 59 -46 79q-23 12 -51 12q-15 0 -31 -3q-47 -8 -97 -38q-34 -23 -81 -71q-46 -48 -79 -106q-26 -45 -26 -88q0 -13 3 -26q7 -16 22 -17h5q14 0 33 8q70 31 171 135q61 62 89 62q8 0 13 -5q9 -10 11 -29q3 -20 3 -44q0 -36 5 -68
q7 -32 32 -46q2 -1 3 -1q7 -2 15 -2q22 0 55 15q52 29 127.5 96t143.5 137q34 35 61 65q54 66 73 66q22 0 22 -20v-2q0 -22 -31 -73l1 -1l-8 -14q-60 -100 -116 -208q-55 -103 -55 -141v-5q9 4 42 45q10 14 23 29q64 80 149 163q84 84 169 109q18 4 33 4q53 0 64 -45
q4 -22 4 -48q0 -23 -3 -48v-4q-1 -8 -1 -15q-3 -21 -3 -40t3 -35q4 -24 16 -35q6 -6 20 -6q11 0 26 4q102 25 206 88t169 117q78 74 91 90q12 17 14 21h1q4 4 10 5h2q3 0 5 -2q2 -1 2 -5v-2q-1 -5 -7 -9q0 -2 -70 -65q-70 -62 -137 -111q-66 -48 -143 -90q-77 -43 -150 -62
q-17 -4 -31 -4q-21 0 -34 9q-20 13 -27 41q-4 22 -4 47t4 52q2 25 2 46q0 25 -3 46q-4 21 -19 30q-9 6 -24 6q-10 0 -23 -3q-75 -22 -153 -102q-79 -79 -141 -155q-70 -90 -103 -102h-5q-11 0 -13 12v5q0 26 28 86q7 16 16 33q17 45 73 152q26 45 51 86q40 65 52 96
q-32 -25 -117 -114q-69 -71 -143.5 -141t-134.5 -102q-37 -20 -67 -20q-19 0 -35 8q-28 16 -38 44q-6 13 -9 37t-3 53q0 18 -1 32q-1 13 -6 19q-1 1 -3 1q-4 0 -14 -7q-13 -9 -39 -37q-111 -114 -193 -154q-27 -12 -46 -12q-4 0 -8 1q-23 2 -32 26q-5 12 -5 31q0 17 4 40
q15 77 75 148t136 115q58 34 111 44q12 2 25 2q36 0 70 -15q46 -19 63 -49q4 -9 4 -17q0 -20 -27 -37z" />
    <glyph glyph-name="it" horiz-adv-x="724" 
d="M154 839q4 7 14 13q6 4 11 4q3 0 6 -1q8 -4 14 -14q4 -6 4 -12q0 -3 -1 -6l-44 -58q-4 -7 -12 -9q-3 -1 -5 -1q-5 0 -10 3q-7 3 -9 10q-1 3 -1 6q0 5 2 9zM751 1373q1 1 1 4q1 5 4 11q3 5 9 7q2 1 4 1q4 0 10 -3q3 0 5 -6q1 -7 1 -15v-8v-8q0 -8 -1 -11l-29 -48
l-143 -342q189 23 347 56t174 68v4q0 6 4 11q3 6 12 7q4 0 8 -3q5 -2 8 -6q3 -3 3 -8q-19 -45 -190 -84q-170 -38 -374 -63l-495 -1176q-2 -6 -6 -9q-5 -3 -10 -3t-7 3l-1 3q0 3 2 6l485 1172q-25 -4 -49 -7q-129 -203 -262.5 -391.5t-221.5 -267.5q-24 -20 -64 -33
q-18 -6 -33 -6q-19 0 -35 10q-23 19 -23 58q0 19 6 44q19 65 57 137q2 6 5 11q39 80 73 137q15 24 24 38q12 21 13 22q4 6 9 9q4 2 7 2h2q4 -1 10 -7q6 -5 8 -15v-3q0 -8 -7 -17q0 -1 -1 -1q-7 -8 -41 -60q-34 -51 -72 -119q-38 -69 -56 -129q-8 -25 -8 -44q0 -27 16 -42
q11 -7 27 -7q13 0 31 5q19 6 41 23q86 76 218.5 260t261.5 385q-108 -14 -188 -22q19 -17 29 -55v-5q0 -4 -1 -6q-3 -5 -9 -6h-3q-5 0 -9 3q-5 3 -7 10q-5 19 -14 30t-18 16t-17 6t-14 1l-5 -1h-6q-28 -3 -33 -3t-8 3q-1 2 -1 4t1 4v7q0 5 2 11q1 6 8 14q22 9 38 9t42 -6
q13 -2 27 -5q16 -3 36 -3q10 0 21 1q33 2 68 5q4 0 7 1q4 0 7 1q29 3 60 6q96 150 164 260l24 58zM661 1148q-56 -91 -126 -202q22 3 45 5z" />
  </font>
</defs>
</svg>
